<?xml version="1.0" encoding="UTF-8"?>
<svg id="Layer_1" xmlns="http://www.w3.org/2000/svg" version="1.1" viewBox="0 0 197.7 182.5">
  <!-- Generator: Adobe Illustrator 29.6.1, SVG Export Plug-In . SVG Version: 2.1.1 Build 9)  -->
  <defs>
    <style>
      .st0 {
        fill: #fff;
      }
    </style>
  </defs>
  <path class="st0" d="M114.1,0c-20.9,0-38,17.1-38,38s17.1,38,38,38h45.6c20.9,0,38-17.1,38-38S180.6,0,159.7,0h-45.6ZM114.1,15.2h45.6c12.7,0,22.8,10.1,22.8,22.8s-10.1,22.8-22.8,22.8h-45.6c-12.7,0-22.8-10.1-22.8-22.8s10.1-22.8,22.8-22.8ZM114.1,30.4c-4.2,0-7.6,3.4-7.6,7.6s3.4,7.6,7.6,7.6,7.6-3.4,7.6-7.6-3.4-7.6-7.6-7.6ZM136.9,30.4c-4.2,0-7.6,3.4-7.6,7.6s3.4,7.6,7.6,7.6,7.6-3.4,7.6-7.6-3.4-7.6-7.6-7.6ZM159.7,30.4c-4.2,0-7.6,3.4-7.6,7.6s3.4,7.6,7.6,7.6,7.6-3.4,7.6-7.6-3.4-7.6-7.6-7.6ZM53.2,68.4c-12,0-22,4.8-28.5,12.1-6.5,7.3-9.5,16.7-9.5,26s3.1,18.7,9.5,26c1.2,1.4,3.1,2.1,4.5,3.3C12.1,144.6,0,162,0,182.5h15.2c0-21.1,16.9-38,38-38s38,16.9,38,38h15.2c0-20.6-12.1-38-29.3-46.8,1.4-1.2,3.3-1.9,4.5-3.3,6.5-7.3,9.5-16.7,9.5-26s-3.1-18.7-9.5-26c-6.5-7.3-16.5-12.1-28.5-12.1ZM53.2,83.7c8.2,0,13.4,2.8,17.1,7,3.7,4.1,5.7,9.9,5.7,15.9s-2,11.7-5.7,15.9-8.9,7-17.1,7-13.4-2.8-17.1-7-5.7-9.9-5.7-15.9,2-11.7,5.7-15.9c3.7-4.1,8.9-7,17.1-7ZM140.7,83.7c-6.3,0-11.4,5.1-11.4,11.4s5.1,11.4,11.4,11.4,11.4-5.1,11.4-11.4-5.1-11.4-11.4-11.4ZM114.1,98.9c-4.2,0-7.6,3.4-7.6,7.6s3.4,7.6,7.6,7.6,7.6-3.4,7.6-7.6-3.4-7.6-7.6-7.6Z"/>
</svg>