<svg xmlns="http://www.w3.org/2000/svg" width="71" height="40" viewBox="0 0 71 40"><g transform="translate(0 -0.211)"><g transform="translate(0 0.211)" fill="#fff" stroke="#ececec" stroke-width="1"><rect width="71" height="40" rx="5" stroke="none"/><rect x="0.5" y="0.5" width="70" height="39" rx="4.5" fill="none"/></g><g transform="translate(8.269 9.755)"><path d="M262.949,4.573a6.1,6.1,0,0,1,7.9,4.563l4.173-.851A10.355,10.355,0,0,0,261.6.531Z" transform="translate(-254.526 0)" fill="#ffcb05"/><path d="M3.489,111.7l2.825-3.193a6.088,6.088,0,0,1,0-9.12L3.489,96.2a10.35,10.35,0,0,0,0,15.5" transform="translate(0.003 -93.6)" fill="#00a4e0"/><path d="M270.75,428.1a6.087,6.087,0,0,1-5.966,4.868,6.01,6.01,0,0,1-1.932-.313L261.5,436.7a10.368,10.368,0,0,0,13.429-7.739Z" transform="translate(-254.43 -416.528)" fill="#ef4123"/><path d="M858.676,210.745a7.4,7.4,0,0,1-.435-.835,6.236,6.236,0,0,1,9.01-7.831,6.233,6.233,0,0,1,2.605,3.146c.076.187.152.384.219.554Zm3.806-6.628a3.145,3.145,0,0,0-1.908,3.338l5.73-2.468a3.046,3.046,0,0,0-3.822-.872Zm4.539,5.369-.119-.081a3.371,3.371,0,0,1-1.549,1.3,3.011,3.011,0,0,1-3.322-.335l-.076.119-1.454,2.176a6.209,6.209,0,0,0,8.741-1.7Z" transform="translate(-834.527 -195.695)"/><path d="M1365.586,101.9v12.094l1.882.759-1.068,2.492-2.076-.865a2.351,2.351,0,0,1-1.022-.86,2.7,2.7,0,0,1-.4-1.5V101.9Z" transform="translate(-1326.058 -99.146)"/><g transform="translate(41.507 5.449)"><path d="M1538.482,264.933a3.419,3.419,0,0,1,1.176-2.579l-1.93-2.152a6.318,6.318,0,0,0-.005,9.46l1.927-2.152A3.418,3.418,0,0,1,1538.482,264.933Z" transform="translate(-1535.596 -258.616)"/><path d="M1696.911,463.831a3.442,3.442,0,0,1-1.086-.178l-.922,2.741a6.325,6.325,0,0,0,8.2-4.717l-2.833-.578a3.425,3.425,0,0,1-3.36,2.732Z" transform="translate(-1690.591 -454.086)"/><path d="M1697.4,201.6a6.373,6.373,0,0,0-2,.322l.91,2.741a3.429,3.429,0,0,1,4.444,2.574l2.833-.573A6.321,6.321,0,0,0,1697.4,201.6Z" transform="translate(-1691.077 -201.6)"/></g></g></g></svg>