<svg xmlns="http://www.w3.org/2000/svg" width="66.95" height="66.95" viewBox="0 0 66.95 66.95"><path d="M30.685,66.95H5.579V33.475H30.685Zm0-50.213H0V27.9H30.685ZM36.265,66.95H61.371V33.475H36.265Zm0-50.213V27.9H66.95V16.738ZM48.452,0c-8.221,0-13.03,9.7-14.977,13.948h14.91C58.129,13.948,58.233,0,48.452,0ZM46.232,10.1h-5.7c2.062-3.127,4.014-5.484,6.533-5.484C50.335,4.617,50.492,10.1,46.232,10.1ZM18.565,13.948h14.91C31.528,9.7,26.719,0,18.5,0,8.717,0,8.821,13.948,18.565,13.948Zm1.319-9.331c2.519,0,4.472,2.357,6.533,5.484h-5.7c-4.26,0-4.1-5.484-.834-5.484Z" fill="#fff"/></svg>