<svg xmlns="http://www.w3.org/2000/svg" width="71" height="40" viewBox="0 0 71 40"><g transform="translate(0.147 -0.211)"><g transform="translate(-0.147 0.211)" fill="#fff" stroke="#ececec" stroke-width="1"><rect width="71" height="40" rx="5" stroke="none"/><rect x="0.5" y="0.5" width="70" height="39" rx="4.5" fill="none"/></g><g transform="translate(8.685 8.44)"><g transform="translate(0.232 0.196)"><path d="M-81.521-43.259c2.655,0,4.97-.816,5.5-3.439s4-19.5,4-19.5h-43.234c-2.655,0-4.98.945-5.5,3.438s-3.989,19.5-3.989,19.5Z" transform="translate(124.745 66.197)" fill="#b3131b"/></g><g transform="translate(0 0)"><path d="M-81.962-43.981v-.379c2.63-.011,4.806-.788,5.311-3.287.5-2.443,3.536-17.241,3.953-19.267h-42.994c-2.624.008-4.819.918-5.316,3.286-.262,1.245-1.259,6.119-2.191,10.681l-1.75,8.584h42.991v.379l-43.459,0,.047-.228s3.463-17,3.989-19.5c.55-2.616,3-3.6,5.69-3.59h43.469l-.047.228c0,.008-.866,4.218-1.8,8.765s-1.933,9.42-2.2,10.731c-.553,2.731-2.983,3.593-5.639,3.593h-.052" transform="translate(125.418 67.306)" fill="#fff"/></g><g transform="translate(4.866 7.182)"><path d="M-.044-14.456l.36-1.833.364-1.935.313-1.948L1.284-22l.026-.117H2.6A.85.85,0,0,1,2.579-22c-.046.222-.14.712-.268,1.468-.07.409-.165.876-.269,1.4l-.023.165h.1l1.69.021,1.646-.021h.13l.022-.165c.07-.455.14-.934.233-1.448.188-1.026.2-1.1.258-1.538H7.419A.713.713,0,0,1,7.385-22c-.024.116-.139.723-.338,1.831l-.361,1.948-.329,1.935c-.186,1.1-.28,1.7-.3,1.832a.419.419,0,0,1-.014.115H4.726l.025-.115c.032-.141.092-.479.184-1.015.035-.2.105-.536.2-1.051l.187-1.027c.058-.313.093-.5.1-.549,0-.024.012-.056.023-.116H5.295c-.221-.011-1.014-.011-1.772-.011s-1.262,0-1.495.01H1.88c-.024.224-.035.268-.1.665-.058.3-.115.653-.175,1.026-.093.55-.152.9-.176,1.051-.093.56-.152.9-.175,1.016a.514.514,0,0,1-.011.115H-.068Z" transform="translate(0.068 22.12)" fill="#fff"/></g><g transform="translate(12.12 7.078)"><path d="M-.065-14.659l.245-1.25.268-1.4.223-1.36c.112-.693.178-1.126.2-1.3a.493.493,0,0,1,.011-.112H2.029a.5.5,0,0,1-.03.112c-.045.178-.123.612-.259,1.3l-.256,1.36-.232,1.4c-.1.657-.17,1.081-.193,1.25a.582.582,0,0,1-.008.11H-.1Zm1.171-6.869c0-.568.278-.9.769-.9.335,0,.5.157.5.48,0,.558-.291.9-.77.9-.278,0-.446-.113-.492-.323a.975.975,0,0,1-.008-.157" transform="translate(0.1 22.431)" fill="#fff"/></g><g transform="translate(13.849 9.287)"><path d="M-.065-15.118c.055-.244.189-.935.4-2.094l.367-2,.324-1.917c.156-.937.247-1.527.28-1.772a.518.518,0,0,1,.01-.112H2.31l-.024.112-.054.31-.022.124a2.551,2.551,0,0,1,1.816-.668,1.734,1.734,0,0,1,1.436.507,1.734,1.734,0,0,1,.482,1.444,5.432,5.432,0,0,1-.514,2.2,2.676,2.676,0,0,1-2.564,1.661A1.221,1.221,0,0,1,1.529-18.1l-.022.132L1.25-16.322c-.09.558-.159.959-.179,1.193a1.129,1.129,0,0,1-.009.134H-.1c.021-.076.021-.076.034-.124m2.228-6.534L1.8-19.577a2.655,2.655,0,0,0-.043.425.962.962,0,0,0,.275.813.962.962,0,0,0,.815.27A1.5,1.5,0,0,0,4-18.563a4.117,4.117,0,0,0,.769-2.485c0-.9-.4-1.351-1.271-1.351a1.709,1.709,0,0,0-1.306.58Z" transform="translate(0.1 23.144)" fill="#fff"/></g><g transform="translate(20.192 9.282)"><path d="M-4.227-10.916c-1.5,0-2.241-.644-2.241-1.984a5.516,5.516,0,0,1,.514-2.251A2.754,2.754,0,0,1-3.2-16.7c1.281,0,1.92.489,1.92,1.46a6.4,6.4,0,0,1-.179,1.214l-.123-.011c-.2-.007-.826-.007-1.875-.007-.891,0-1.437,0-1.649.01l-.115.011a3.9,3.9,0,0,0-.108.983c0,.893.511,1.372,1.47,1.372a4.62,4.62,0,0,0,1.9-.413l-.167.892a8.194,8.194,0,0,1-2.1.278m-.724-3.757c.123.012.536.012,1.228.012h.178c.5,0,.847,0,1.048-.012h.1l.021-.145a2.266,2.266,0,0,0,.034-.366c0-.547-.369-.814-1.083-.814a1.523,1.523,0,0,0-1.651,1.325Z" transform="translate(6.468 16.717)" fill="#fff"/></g><g transform="translate(25.524 9.293)"><path d="M-.041-10.476l.247-1.25.267-1.4L.7-14.491c.112-.693.178-1.126.2-1.3,0-.023.011-.056.011-.112h1l-.021.112-.131.7-.036.152a3.642,3.642,0,0,1,.4-.547,1.542,1.542,0,0,1,1.161-.546,1.377,1.377,0,0,1,.624.145l-.143.808a2.093,2.093,0,0,0-.658-.11c-.668,0-1.26.6-1.5,1.526-.087.347-.168.748-.243,1.214a20.545,20.545,0,0,0-.291,2.083H-.062Z" transform="translate(0.062 16.034)" fill="#fff"/></g><g transform="translate(28.87 9.279)"><path d="M-8.731-1.877a4.364,4.364,0,0,0-1.429-.261,1.72,1.72,0,0,0-1.237.4A3.869,3.869,0,0,0-12.21.75c0,.949.413,1.406,1.261,1.406a3.926,3.926,0,0,0,1.593-.379l-.157.85a5.593,5.593,0,0,1-1.782.29,1.863,1.863,0,0,1-1.717-.7A2.118,2.118,0,0,1-13.359.9a5.1,5.1,0,0,1,.546-2.276,2.731,2.731,0,0,1,.658-.859,2.923,2.923,0,0,1,2.13-.635c.357,0,.734.023,1.338.076l.112.011Z" transform="translate(13.364 2.888)" fill="#fff"/></g><g transform="translate(33.517 9.299)"><path d="M-3.128-10.911c-1.127,0-1.661-.469-1.661-1.448,0-1.451,1.024-2.285,2.8-2.285.278,0,.825.02,1.192.043l.023-.121a2.376,2.376,0,0,0,.076-.57c0-.446-.368-.67-1.127-.67a6.727,6.727,0,0,0-1.862.292l.228-.916a.365.365,0,0,0,.1.011,8.269,8.269,0,0,0,.841-.067c.335-.033.668-.055.98-.055,1.327,0,1.919.346,1.919,1.115a5.278,5.278,0,0,1-.123.91L.077-13.656a15.818,15.818,0,0,0-.311,2.442,1.283,1.283,0,0,0,.009.178h-1v-.088c0-.158.046-.5.09-.827a2.165,2.165,0,0,1-1.993,1.04m2.093-3.057A6.337,6.337,0,0,0-1.771-14a2.112,2.112,0,0,0-1.393.334A1.435,1.435,0,0,0-3.7-12.519c0,.559.335.858.946.858a1.577,1.577,0,0,0,1.43-.876,5.679,5.679,0,0,0,.4-1.417Z" transform="translate(4.789 16.696)" fill="#fff"/></g><g transform="translate(39.021 9.293)"><path d="M-.044-10.476.2-11.725l.271-1.4.223-1.362c.11-.693.178-1.126.2-1.3,0-.023.012-.056.012-.112h1l-.025.112-.133.7-.033.152a3.682,3.682,0,0,1,.4-.547,1.536,1.536,0,0,1,1.16-.546,1.39,1.39,0,0,1,.624.145l-.145.8A2.088,2.088,0,0,0,3.1-15.2c-.666,0-1.257.6-1.491,1.526-.09.347-.168.748-.246,1.214-.223,1.393-.246,1.5-.291,2.083H-.068Z" transform="translate(0.068 16.034)" fill="#fff"/></g><g transform="translate(42.354 7.032)"><path d="M-3.623-15.183a1.669,1.669,0,0,1-1.445-.463,1.669,1.669,0,0,1-.473-1.442A5.017,5.017,0,0,1-5-19.339a2.824,2.824,0,0,1,2.687-1.626,4.3,4.3,0,0,1,.967.1c.091.033.147.044.313.1l.021-.134c.045-.223.1-.578.178-1.07.089-.535.146-.926.178-1.172l.012-.089H.5l-.021.076c-.091.448-.222,1.116-.39,2.029-.3,1.63-.413,2.243-.581,3.256A17.481,17.481,0,0,0-.78-15.385v.076H-1.817a3.742,3.742,0,0,1,.045-.464c.033-.18.046-.244.068-.435a1.9,1.9,0,0,1-1.918,1.025m1.371-5.061a1.737,1.737,0,0,0-1.182.39,3.707,3.707,0,0,0-.936,2.639c0,.881.357,1.281,1.138,1.281a1.524,1.524,0,0,0,1.369-.845,4.529,4.529,0,0,0,.28-.891c.134-.683.313-1.651.413-2.243l.011-.121a3.035,3.035,0,0,0-1.094-.21" transform="translate(5.561 23.234)" fill="#fff"/></g></g></g></svg>