<svg xmlns="http://www.w3.org/2000/svg" width="13" height="13" viewBox="0 0 13 13"><path d="M6.5,1.172c1.736,0,1.941.007,2.627.038a2.442,2.442,0,0,1,2.664,2.664c.031.685.037.891.037,2.627s-.007,1.941-.037,2.627a2.443,2.443,0,0,1-2.664,2.664c-.686.031-.891.038-2.627.038s-1.941-.007-2.627-.038A2.443,2.443,0,0,1,1.209,9.127c-.031-.685-.038-.89-.038-2.627s.007-1.941.038-2.627A2.442,2.442,0,0,1,3.873,1.209c.686-.031.891-.037,2.627-.037ZM6.5,0C4.735,0,4.514.008,3.82.039A3.588,3.588,0,0,0,.04,3.82C.008,4.514,0,4.735,0,6.5S.008,8.487.039,9.18A3.588,3.588,0,0,0,3.82,12.961c.694.031.915.039,2.68.039s1.987-.008,2.68-.039A3.588,3.588,0,0,0,12.96,9.18c.032-.693.04-.915.04-2.68s-.008-1.986-.039-2.68A3.588,3.588,0,0,0,9.181.04C8.487.008,8.265,0,6.5,0Zm0,3.162A3.338,3.338,0,1,0,9.838,6.5,3.338,3.338,0,0,0,6.5,3.162Zm0,5.5A2.167,2.167,0,1,1,8.667,6.5,2.166,2.166,0,0,1,6.5,8.667ZM9.97,2.251a.78.78,0,1,0,.779.78A.78.78,0,0,0,9.97,2.251Z" fill="#fff"/></svg>