<svg xmlns="http://www.w3.org/2000/svg" width="137" height="79" viewBox="0 0 137 79"><g transform="translate(1970 -3613)"><rect width="137" height="79" rx="5" transform="translate(-1970 3613)" fill="#fff"/><g transform="translate(-1941.086 3621.704)"><path d="M177.062,1325.721v.158h.148a.156.156,0,0,0,.079-.02.071.071,0,0,0,.03-.061.068.068,0,0,0-.03-.059.143.143,0,0,0-.079-.02h-.148Zm.149-.112a.274.274,0,0,1,.177.052.17.17,0,0,1,.062.14.161.161,0,0,1-.05.123.243.243,0,0,1-.142.059l.2.225h-.152l-.182-.224h-.059v.224h-.127v-.6h.277Zm-.04.806a.471.471,0,0,0,.194-.04.506.506,0,0,0,.266-.265.5.5,0,0,0-.107-.55.506.506,0,0,0-.158-.107.5.5,0,0,0-.194-.037.523.523,0,0,0-.2.037.5.5,0,0,0-.162.107.511.511,0,0,0-.106.554.472.472,0,0,0,.106.158.509.509,0,0,0,.162.107.5.5,0,0,0,.2.04m0-1.148a.661.661,0,0,1,.465.19.639.639,0,0,1,.14.706.669.669,0,0,1-.14.205.708.708,0,0,1-.209.139.656.656,0,0,1-.257.051.663.663,0,0,1-.26-.051.682.682,0,0,1-.21-.139.669.669,0,0,1-.138-.212.64.64,0,0,1,.14-.706.628.628,0,0,1,.21-.138.663.663,0,0,1,.26-.052m-60.608-2.306a1.967,1.967,0,1,1,1.971,2.08,1.95,1.95,0,0,1-1.971-2.08m5.259,0v-3.25h-1.413v.792a2.462,2.462,0,0,0-2.052-.952,3.416,3.416,0,0,0,0,6.823,2.464,2.464,0,0,0,2.052-.952v.789h1.411v-3.25Zm47.731,0a1.967,1.967,0,1,1,1.971,2.08,1.95,1.95,0,0,1-1.971-2.08m5.261,0V1317.1H173.4v3.4a2.462,2.462,0,0,0-2.052-.952,3.416,3.416,0,0,0,0,6.823,2.463,2.463,0,0,0,2.052-.952v.789h1.414Zm-35.46-2.147a1.613,1.613,0,0,1,1.644,1.576h-3.371a1.673,1.673,0,0,1,1.727-1.576m.028-1.267a3.414,3.414,0,0,0,.095,6.823,3.946,3.946,0,0,0,2.663-.91l-.692-1.047a3.1,3.1,0,0,1-1.89.679,1.8,1.8,0,0,1-1.943-1.591h4.824c.014-.176.028-.353.028-.543a3.117,3.117,0,0,0-3.085-3.411m17.055,3.411a1.967,1.967,0,1,1,1.971,2.08,1.95,1.95,0,0,1-1.971-2.08m5.259,0v-3.247h-1.412v.792a2.464,2.464,0,0,0-2.052-.952,3.416,3.416,0,0,0,0,6.823,2.465,2.465,0,0,0,2.052-.952v.789H161.7v-3.25Zm-13.237,0a3.282,3.282,0,0,0,3.466,3.412,3.4,3.4,0,0,0,2.335-.775l-.678-1.142a2.854,2.854,0,0,1-1.7.585,2.084,2.084,0,0,1,0-4.16,2.863,2.863,0,0,1,1.7.585l.678-1.142a3.4,3.4,0,0,0-2.335-.775,3.281,3.281,0,0,0-3.466,3.411m18.211-3.411a1.918,1.918,0,0,0-1.713.952v-.787h-1.4v6.5h1.414v-3.641c0-1.075.462-1.672,1.385-1.672a2.287,2.287,0,0,1,.883.163l.435-1.331a3,3,0,0,0-1.007-.177m-37.864.68a4.858,4.858,0,0,0-2.649-.68c-1.646,0-2.705.789-2.705,2.079,0,1.059.789,1.713,2.241,1.917l.667.095c.775.109,1.14.313,1.14.68,0,.5-.515.789-1.481.789a3.462,3.462,0,0,1-2.161-.68l-.664,1.1a4.686,4.686,0,0,0,2.813.843c1.876,0,2.963-.884,2.963-2.12,0-1.142-.856-1.739-2.27-1.943l-.666-.1c-.612-.079-1.1-.2-1.1-.637,0-.475.462-.761,1.237-.761a4.193,4.193,0,0,1,2.025.557l.612-1.142Zm18.227-.678a1.913,1.913,0,0,0-1.711.952v-.79h-1.4v6.5h1.413v-3.641c0-1.075.462-1.672,1.385-1.672a2.287,2.287,0,0,1,.883.163l.435-1.331a3,3,0,0,0-1.007-.177m-12.054.163h-2.31v-1.971h-1.428v1.971h-1.318V1321h1.318v2.963c0,1.507.585,2.4,2.256,2.4a3.318,3.318,0,0,0,1.767-.5l-.408-1.209a2.615,2.615,0,0,1-1.251.367c-.706,0-.936-.435-.936-1.087V1321h2.31Zm-21.12,6.5v-4.077a2.419,2.419,0,0,0-2.556-2.582,2.515,2.515,0,0,0-2.283,1.156,2.384,2.384,0,0,0-2.147-1.156,2.149,2.149,0,0,0-1.9.965v-.8H103.56v6.5h1.425v-3.6a1.521,1.521,0,0,1,1.591-1.727c.938,0,1.413.612,1.413,1.713v3.615h1.428v-3.6a1.533,1.533,0,0,1,1.59-1.727c.965,0,1.425.612,1.425,1.712v3.615Z" transform="translate(-99.461 -1264.969)" fill="#231f20"/><path d="M1930.912,978.17v-.95h-.247l-.286.652-.285-.652h-.248v.95h.176v-.716l.268.617h.182l.268-.619v.717h.174Zm-1.569,0v-.787h.317v-.16h-.809v.16h.317v.787h.174Z" transform="translate(-1852.505 -938.542)" fill="#f79410"/><path d="M751.118,170.622H729.71V132.15h21.408Z" transform="translate(-700.828 -126.92)" fill="#ff5f00"/><path d="M30.24,24.467A24.427,24.427,0,0,1,39.584,5.231a24.467,24.467,0,1,0,0,38.472A24.427,24.427,0,0,1,30.24,24.467" transform="translate(0 0)" fill="#eb001b"/><path d="M1039.7,24.467A24.466,24.466,0,0,1,1000.11,43.7a24.47,24.47,0,0,0,0-38.472A24.466,24.466,0,0,1,1039.7,24.467" transform="translate(-960.525 0)" fill="#f79e1b"/></g></g></svg>