<svg xmlns="http://www.w3.org/2000/svg" width="14.848" height="16.198" viewBox="0 0 14.848 16.198"><path d="M2.748.892,4.668,0,7.395,5.325,5.556,6.23c-.363.85,1.457,4.245,2.225,4.3.061-.039,1.8-.9,1.8-.9l2.774,5.353s-1.865.914-1.926.942C5.126,18.354-2.46,3.607,2.748.892Zm1.3.86-.69.34C-.213,3.956,6.179,16.39,9.872,14.7l.655-.32L8.994,11.426l-.692.337C6.167,12.807,2.726,6.216,4.89,5.056l.68-.335L4.051,1.752ZM9.337,6.914l1.969.587A2.054,2.054,0,0,0,9.923,4.946Zm1.218-4.089a4.266,4.266,0,0,1,2.871,5.307l-1.211-.361a3,3,0,0,0-2.021-3.734l.362-1.212ZM11.2.675a6.513,6.513,0,0,1,4.38,8.1L14.334,8.4a5.214,5.214,0,0,0-3.509-6.487L11.2.675Z" transform="translate(-1)" fill="#fff"/></svg>