<svg xmlns="http://www.w3.org/2000/svg" width="68.5" height="68.5" viewBox="0 0 68.5 68.5"><g transform="translate(-291 -2815)"><g transform="translate(291 2815)"><g transform="translate(0 0)"><path d="M0,19.951A6.486,6.486,0,0,0,6.336,26.6H13.5a5.675,5.675,0,0,0,5.537-5.794c0-3.482-1.513-4.709-3.767-5.509l-11.5-4C1.513,10.5,0,9.276,0,5.794A5.675,5.675,0,0,1,5.537,0H12.7a6.486,6.486,0,0,1,6.336,6.65" transform="translate(24.751 20.949)" fill="none" stroke="#fff" stroke-linecap="round" stroke-linejoin="round" stroke-width="4"/><path d="M0,0V34.25" transform="translate(34.25 17.125)" fill="none" stroke="#fff" stroke-linecap="round" stroke-linejoin="round" stroke-width="4"/><path d="M57.083,28.542A28.542,28.542,0,1,1,28.542,0,28.542,28.542,0,0,1,57.083,28.542Z" transform="translate(5.708 5.708)" fill="none" stroke="#fff" stroke-linecap="round" stroke-linejoin="round" stroke-width="4"/><path d="M0,0H68.5V68.5H0Z" fill="none" opacity="0"/></g></g></g></svg>