<svg xmlns="http://www.w3.org/2000/svg" width="68" height="68" viewBox="0 0 68 68"><g transform="translate(-300 -188)"><g transform="translate(300 188)"><path d="M20.06.659,5.922,5.985A9.831,9.831,0,0,0,0,14.514V35.565a13.775,13.775,0,0,0,4.9,9.747l12.183,9.1a12.9,12.9,0,0,0,14.563,0l12.183-9.1a13.775,13.775,0,0,0,4.9-9.747V14.514a9.838,9.838,0,0,0-5.922-8.557L28.673.659A14.407,14.407,0,0,0,20.06.659Z" transform="translate(9.662 5.66)" fill="none" stroke="#fff" stroke-linecap="round" stroke-linejoin="round" stroke-width="4"/><path d="M0,7.622l4.562,4.562L16.745,0" transform="translate(25.642 26.01)" fill="none" stroke="#fff" stroke-linecap="round" stroke-linejoin="round" stroke-width="4"/><path d="M0,0H68V68H0Z" transform="translate(68 68) rotate(180)" fill="none" opacity="0"/></g></g></svg>