<svg xmlns="http://www.w3.org/2000/svg" width="68" height="68" viewBox="0 0 68 68"><g transform="translate(-428 -188)"><g transform="translate(428 188)"><path d="M29.382.17l25.5,10.2A3.068,3.068,0,0,1,56.667,13v9.407a2.842,2.842,0,0,1-2.833,2.833h-51A2.842,2.842,0,0,1,0,22.412V13A3.068,3.068,0,0,1,1.785,10.37L27.285.17A3.317,3.317,0,0,1,29.382.17Z" transform="translate(5.667 5.922)" fill="none" stroke="#fff" stroke-linecap="round" stroke-linejoin="round" stroke-width="4"/><path d="M56.667,11.333H0v-8.5A2.842,2.842,0,0,1,2.833,0h51a2.842,2.842,0,0,1,2.833,2.833Z" transform="translate(5.667 51)" fill="none" stroke="#fff" stroke-linecap="round" stroke-linejoin="round" stroke-width="4"/><path d="M0,19.833V0" transform="translate(11.333 31.167)" fill="none" stroke="#fff" stroke-linecap="round" stroke-linejoin="round" stroke-width="4"/><path d="M0,19.833V0" transform="translate(22.667 31.167)" fill="none" stroke="#fff" stroke-linecap="round" stroke-linejoin="round" stroke-width="4"/><path d="M0,19.833V0" transform="translate(34 31.167)" fill="none" stroke="#fff" stroke-linecap="round" stroke-linejoin="round" stroke-width="4"/><path d="M0,19.833V0" transform="translate(45.333 31.167)" fill="none" stroke="#fff" stroke-linecap="round" stroke-linejoin="round" stroke-width="4"/><path d="M0,19.833V0" transform="translate(56.667 31.167)" fill="none" stroke="#fff" stroke-linecap="round" stroke-linejoin="round" stroke-width="4"/><path d="M0,0H62.333" transform="translate(2.833 62.333)" fill="none" stroke="#fff" stroke-linecap="round" stroke-linejoin="round" stroke-width="4"/><path d="M8.5,4.25A4.25,4.25,0,1,1,4.25,0,4.25,4.25,0,0,1,8.5,4.25Z" transform="translate(29.75 15.583)" fill="none" stroke="#fff" stroke-linecap="round" stroke-linejoin="round" stroke-width="4"/><path d="M0,0H68V68H0Z" fill="none" opacity="0"/></g></g></svg>