<svg xmlns="http://www.w3.org/2000/svg" width="61.495" height="61.495" viewBox="0 0 61.495 61.495"><path d="M20.5,6.406V41a10.268,10.268,0,0,1-2.921,7.149l-.1.1a8.068,8.068,0,0,1-.717.641,8.965,8.965,0,0,1-2.537,1.537c-.282.128-.564.231-.846.333a9.963,9.963,0,0,1-3.126.487,10.9,10.9,0,0,1-2.05-.2c-.333-.077-.666-.154-1-.256a9.252,9.252,0,0,1-1.179-.436c0-.026,0-.026-.026,0a12.92,12.92,0,0,1-2.05-1.255l-.026-.026A7.031,7.031,0,0,1,3,48.248c-.282-.307-.564-.615-.846-.948A12.92,12.92,0,0,1,.9,45.25c.026-.026.026-.026,0-.026a.079.079,0,0,0-.026-.051c-.154-.359-.282-.743-.41-1.127-.1-.333-.179-.666-.256-1A10.9,10.9,0,0,1,0,41V6.406A6.052,6.052,0,0,1,6.406,0h7.687A6.052,6.052,0,0,1,20.5,6.406Z" transform="translate(5.125 5.125)" fill="none" stroke="#fff" stroke-linecap="round" stroke-linejoin="round" stroke-width="4"/><path d="M41,6.406v7.687A6.052,6.052,0,0,1,34.591,20.5H0a9.963,9.963,0,0,0,3.126-.487c.282-.1.564-.2.846-.333a8.965,8.965,0,0,0,2.537-1.537,8.068,8.068,0,0,0,.717-.641l.1-.1L24.752,0h9.839A6.052,6.052,0,0,1,41,6.406Z" transform="translate(15.374 35.872)" fill="none" stroke="#fff" stroke-linecap="round" stroke-linejoin="round" stroke-width="4"/><path d="M6.739,6.739A9.826,9.826,0,0,1,2.537,4.2,9.826,9.826,0,0,1,0,0,10.3,10.3,0,0,0,6.739,6.739Z" transform="translate(5.586 49.17)" fill="none" stroke="#fff" stroke-linecap="round" stroke-linejoin="round" stroke-width="4"/><path d="M24.367,16.54l-6.944,6.944L0,40.881a10.268,10.268,0,0,0,2.921-7.149V8.981L9.865,2.037a6.067,6.067,0,0,1,9.071,0l5.432,5.432A6.067,6.067,0,0,1,24.367,16.54Z" transform="translate(22.702 12.389)" fill="none" stroke="#fff" stroke-linecap="round" stroke-linejoin="round" stroke-width="4"/><path d="M5.125,2.562A2.562,2.562,0,1,1,2.562,0,2.562,2.562,0,0,1,5.125,2.562Z" transform="translate(12.811 43.559)" fill="none" stroke="#fff" stroke-linecap="round" stroke-linejoin="round" stroke-width="4"/><path d="M0,0H61.495V61.495H0Z" fill="none" opacity="0"/></svg>