<svg xmlns="http://www.w3.org/2000/svg" width="68" height="68" viewBox="0 0 68 68"><g transform="translate(-748 -188)"><g transform="translate(748 188)"><path d="M26.888,34h2.833a5.683,5.683,0,0,0,5.667-5.667V0H9.888A11.322,11.322,0,0,0,0,5.808" transform="translate(7.112 5.667)" fill="none" stroke="#fff" stroke-linecap="round" stroke-linejoin="round" stroke-width="4.5"/><path d="M0,34a8.489,8.489,0,0,0,8.5,8.5h2.833a5.667,5.667,0,1,1,11.333,0H34a5.667,5.667,0,1,1,11.333,0h2.833a8.489,8.489,0,0,0,8.5-8.5V25.5h-8.5a2.842,2.842,0,0,1-2.833-2.833v-8.5a2.842,2.842,0,0,1,2.833-2.833h3.655L46.977,2.862A5.713,5.713,0,0,0,42.047,0H36.833V19.833A5.683,5.683,0,0,1,31.167,25.5H28.333" transform="translate(5.667 14.167)" fill="none" stroke="#fff" stroke-linecap="round" stroke-linejoin="round" stroke-width="4.5"/><path d="M11.333,5.667A5.667,5.667,0,1,1,5.667,0,5.667,5.667,0,0,1,11.333,5.667Z" transform="translate(17 51)" fill="none" stroke="#fff" stroke-linecap="round" stroke-linejoin="round" stroke-width="4.5"/><path d="M11.333,5.667A5.667,5.667,0,1,1,5.667,0,5.667,5.667,0,0,1,11.333,5.667Z" transform="translate(39.667 51)" fill="none" stroke="#fff" stroke-linecap="round" stroke-linejoin="round" stroke-width="4.5"/><path d="M11.333,8.5v5.667h-8.5A2.842,2.842,0,0,1,0,11.333v-8.5A2.842,2.842,0,0,1,2.833,0H6.488Z" transform="translate(51 25.5)" fill="none" stroke="#fff" stroke-linecap="round" stroke-linejoin="round" stroke-width="4.5"/><path d="M0,0H17" transform="translate(5.667 22.667)" fill="none" stroke="#fff" stroke-linecap="round" stroke-linejoin="round" stroke-width="4.5"/><path d="M0,0H11.333" transform="translate(5.667 31.167)" fill="none" stroke="#fff" stroke-linecap="round" stroke-linejoin="round" stroke-width="4.5"/><path d="M0,0H5.667" transform="translate(5.667 39.667)" fill="none" stroke="#fff" stroke-linecap="round" stroke-linejoin="round" stroke-width="4.5"/><path d="M0,0H68V68H0Z" fill="none" opacity="0"/></g></g></svg>