<svg xmlns="http://www.w3.org/2000/svg" width="137" height="79" viewBox="0 0 137 79"><g transform="translate(2154 -3613)"><rect width="137" height="79" rx="5" transform="translate(-2154 3613)" fill="#fff"/><g transform="translate(-223.226 5.481)"><g transform="translate(-1916.774 3629.519)"><path d="M58.439,86.262H49.552l5.554-34.133h8.888ZM42.076,52.129,33.6,75.606l-1-5.056v0L29.612,55.2s-.362-3.073-4.216-3.073H11.39l-.164.578a33.245,33.245,0,0,1,9.3,3.9l7.721,29.655H37.5L51.64,52.129H42.076Zm69.9,34.133h8.16L113.02,52.128h-7.144a4.083,4.083,0,0,0-4.1,2.544L88.52,86.262h9.264l1.853-5.07h11.3l1.041,5.07ZM102.2,74.188l4.669-12.774,2.627,12.774ZM89.215,60.337l1.268-7.33a25.65,25.65,0,0,0-7.993-1.488c-4.41,0-14.883,1.927-14.883,11.3,0,8.818,12.291,8.928,12.291,13.56s-11.025,3.8-14.664.881l-1.321,7.664a24.9,24.9,0,0,0,10.031,1.927c6.064,0,15.213-3.14,15.213-11.686,0-8.875-12.4-9.7-12.4-13.56s8.656-3.364,12.459-1.268Z" transform="translate(-11.226 -51.519)" fill="#2566af"/></g><path d="M32.6,70.609l-2.99-15.35s-.362-3.073-4.216-3.073H11.39l-.164.578a34.431,34.431,0,0,1,13.189,6.622A26.617,26.617,0,0,1,32.6,70.609Z" transform="translate(-1928 3577.942)" fill="#e6a540"/></g></g></svg>