<svg xmlns="http://www.w3.org/2000/svg" width="29" height="29" viewBox="0 0 29 29"><g transform="translate(-13 -4350)"><path d="M12.5,25A12.5,12.5,0,0,1,3.661,3.661,12.5,12.5,0,0,1,21.339,21.339,12.418,12.418,0,0,1,12.5,25Zm.3-19.866a7.226,7.226,0,0,0-6.5,10.376L5.315,19.1a.61.61,0,0,0,.59.769h.01a.578.578,0,0,0,.152-.02l3.587-.98a7.161,7.161,0,0,0,3.141.721,7.226,7.226,0,1,0,0-14.452ZM6.778,18.38v0L7.55,15.6a.619.619,0,0,0-.051-.448A5.944,5.944,0,1,1,10,17.674a.624.624,0,0,0-.446-.049l-2.778.755Zm3.659-9.051a.526.526,0,0,0-.373.153L9.8,9.742a1.03,1.03,0,0,0-.209,1.167,9.542,9.542,0,0,0,4.449,4.449,1.039,1.039,0,0,0,.432.1,1.024,1.024,0,0,0,.733-.306l.262-.26a.528.528,0,0,0,0-.735l-.764-.777a.529.529,0,0,0-.735,0l-.344.329a5.824,5.824,0,0,1-2.38-2.381l.328-.331a.529.529,0,0,0,0-.747l-.765-.762A.526.526,0,0,0,10.437,9.329Z" transform="translate(15 4352)" fill="#fff"/><g transform="translate(13 4350)" fill="none" stroke="#fff" stroke-width="1"><circle cx="14.5" cy="14.5" r="14.5" stroke="none"/><circle cx="14.5" cy="14.5" r="14" fill="none"/></g></g></svg>