<svg xmlns="http://www.w3.org/2000/svg" width="34.828" height="34.994" viewBox="0 0 34.828 34.994"><path d="M.057,34.994l2.46-8.986A17.339,17.339,0,1,1,9.25,32.582L.057,34.994Zm9.619-5.551a14.379,14.379,0,1,0-4-3.889L4.22,30.873l5.456-1.43Zm16.6-7.967c-.108-.181-.4-.289-.831-.506s-2.563-1.266-2.961-1.41-.685-.217-.975.217-1.12,1.41-1.372,1.7-.506.325-.939.108a11.826,11.826,0,0,1-3.485-2.151,13.043,13.043,0,0,1-2.41-3c-.252-.433-.026-.668.19-.884.2-.194.433-.506.65-.76a2.842,2.842,0,0,0,.437-.722.8.8,0,0,0-.036-.76c-.109-.216-.975-2.349-1.336-3.217-.353-.844-.71-.73-.975-.744L11.4,9.332a1.587,1.587,0,0,0-1.155.542,4.862,4.862,0,0,0-1.516,3.615A8.432,8.432,0,0,0,10.5,17.971c.217.289,3.055,4.666,7.4,6.542a25.07,25.07,0,0,0,2.47.913,5.956,5.956,0,0,0,2.73.172,4.463,4.463,0,0,0,2.925-2.06,3.61,3.61,0,0,0,.252-2.062Z" transform="translate(-0.057)" fill="#fff"/></svg>