<?xml version="1.0" encoding="utf-8"?>
<!-- Generator: Adobe Illustrator 27.8.1, SVG Export Plug-In . SVG Version: 6.00 Build 0)  -->
<svg version="1.1" id="Layer_1" xmlns="http://www.w3.org/2000/svg" xmlns:xlink="http://www.w3.org/1999/xlink" x="0px" y="0px"
	 viewBox="0 0 278.1 61.9" style="enable-background:new 0 0 278.1 61.9;" xml:space="preserve">
<style type="text/css">
	.st0{fill:#29B364;}
	.st1{fill:#E12026;}
	.st2{fill:#636464;}
</style>
<path class="st0" d="M73,16.5h35.7v11.8h-12v33.5H84.7V28.4H73L73,16.5L73,16.5z"/>
<path class="st0" d="M110.7,16.6h28.1v9.8h-16.3v7.4h16.3v10h-16.3v8.3h16.3v9.7h-28.1V16.6z"/>
<rect x="197.5" y="16.6" class="st0" width="11.9" height="45.3"/>
<path class="st0" d="M229.3,16.6h-5.4l-12.4,26.6v18.7h3.2l2.7-5.9h18.5l2.8,5.9h11.9L229.3,16.6z M222,46l4.7-10l4.6,10H222z"/>
<path class="st0" d="M255.2,33.9c-1.9,0-3.4-1.5-3.4-3.4c0,0,0,0,0,0c0-1.9,1.5-3.4,3.4-3.4c1.9,0,3.4,1.5,3.4,3.4h10.5
	c0-7.7-6.3-13.9-14-13.9c-7.7,0-13.9,6.3-13.9,14c0,7.7,6.2,13.9,13.9,13.9c1.9,0,3.4,1.5,3.4,3.4c0,1.9-1.6,3.4-3.4,3.4
	c-1.9,0-3.4-1.5-3.4-3.4c0,0,0,0,0,0h-5.5l6.6,14.1h2.3c7.7-0.1,14-6.4,13.9-14.1C269,40.1,262.8,33.9,255.2,33.9L255.2,33.9z"/>
<path class="st0" d="M140.9,16.6h11.9V50h16.3v12h-28.2V16.6z"/>
<rect x="171.2" y="16.6" class="st0" width="11.9" height="45.3"/>
<path class="st1" d="M73,39.2c0,3-0.6,6.1-1.9,8.8c-1.2,2.7-2.9,5.2-5,7.2c-2.1,2.1-4.7,3.7-7.4,4.9c-5.8,2.4-12.4,2.4-18.2,0
	c-1.4-0.6-2.8-1.3-4.1-2.1c-0.5-0.3-0.9-0.6-1.3-0.9c-0.7-0.5-1.4-1.1-2.1-1.8c-2.1-2.1-3.8-4.5-5-7.2c-0.2-0.4-0.3-0.8-0.5-1.2
	c0,0,0-0.1-0.1-0.1c-0.1-0.4-0.4-0.7-0.7-1c-0.3-0.3-0.7-0.6-1.1-0.8c-0.2-0.1-0.4-0.2-0.6-0.3c-0.2-0.1-0.5-0.1-0.7-0.2h0
	c0,0-0.2,0-0.2,0h-9.9c-2,0-4-0.4-5.8-1.2c-1.7-0.8-3.3-1.9-4.6-3.2l-0.3-0.3v-0.1c-1.1-1.2-1.9-2.5-2.5-4c-1.4-3.3-1.4-7,0-10.4
	c0.5-1.1,1-2.1,1.7-3c0.7-0.9,1.5-1.7,2.5-2.4c1-0.8,2.1-1.5,3.2-2.1c1.8-0.8,3.8-1.2,5.8-1.2h26.2c-0.2,0.1-0.4,0.2-0.6,0.2
	c-2.9,1.2-5.6,3-8,5.2c-1.5,1.5-2.8,3.1-3.9,4.9H15.9l-1,0c-0.2,0-0.4,0-0.6,0c-0.4,0-0.9,0.2-1.3,0.4c-0.2,0.1-0.4,0.2-0.6,0.4
	l-0.1,0c-0.1,0.1-0.3,0.2-0.4,0.3l0,0.1l0,0c-0.6,0.6-0.9,1.5-0.9,2.3v0.1c0,0.9,0.3,1.7,0.9,2.3c0.5,0.5,1.1,0.9,1.8,1.2
	c0.7,0.1,1.5,0.1,2.3,0.1c0.4,0,0.7,0,0.9,0h7.5c0.2,0,0.5,0,0.7,0c0.5,0,1.1,0.1,1.6,0.2c1.2,0.2,2.4,0.5,3.5,1
	c1.1,0.5,2.1,1.2,3,2c0.5,0.4,1,0.8,1.5,1.3c1.1,1.1,2,2.4,2.6,3.7c0.3,0.5,0.4,1.1,0.7,1.7c0.6,1.3,1.3,2.4,2.3,3.5
	c0.1,0.2,0.3,0.3,0.4,0.4c1.2,1.1,2.5,2,4,2.7c3.2,1.3,6.7,1.3,9.9,0c1.5-0.6,2.9-1.5,4.1-2.7c1.2-1.1,2.1-2.4,2.7-3.9
	c1.3-3,1.3-6.5,0-9.5c-0.7-1.5-1.6-2.8-2.7-3.9c-1.2-1.1-2.6-2-4-2.7c-1.4-0.6-3-0.9-4.5-1c-0.1,0-0.3,0-0.4,0s-0.3,0-0.4,0
	c-0.7,0-1.4,0.1-2.1,0.2c-0.9,0.2-1.7,0.4-2.5,0.8c-0.4,0.2-0.9,0.4-1.3,0.6c-1,0.6-1.9,1.2-2.8,2c-1.1,1.1-2.1,2.4-2.7,3.9
	c-0.6,1.4-0.9,2.8-1,4.3c-0.4-0.5-0.7-0.9-1.2-1.3c-0.5-0.5-1-1-1.6-1.4c-1-0.9-2.2-1.6-3.4-2.2c-1.2-0.5-2.4-0.9-3.7-1.1
	c0.2-0.8,0.5-1.6,0.9-2.3c0.3-0.6,0.6-1.3,0.9-1.9c0.3-0.6,0.6-1.1,1-1.6c0.9-1.3,1.9-2.6,3.1-3.7c2.2-2.1,4.7-3.7,7.5-4.8
	c0.7-0.3,1.4-0.5,2.1-0.7c1-0.3,2-0.5,3-0.7c0.7-0.1,1.5-0.2,2.2-0.3c0.6,0,1.2-0.1,1.8-0.1s1.2,0,1.8,0.1c2.5,0.2,4.9,0.8,7.2,1.7
	c0,0,0,0,0,0c0.5,0.2,1,0.5,1.5,0.7c2.2,1.1,4.1,2.5,5.9,4.1c0.5,0.4,0.9,0.9,1.3,1.4c0.6,0.7,1.1,1.4,1.6,2.1
	c0.8,1.2,1.5,2.4,2.1,3.7C72.3,33.1,73,36.2,73,39.2z"/>
<path class="st1" d="M33.9,58.2c-1.1,1-2.4,1.8-3.8,2.5c-1.8,0.8-3.8,1.2-5.8,1.2H3V51.6h16.7c0.5,0,0.9,0,1.4,0s0.9,0,1.4,0
	c0.7,0,1.2,0,1.8,0c1,0,1.9-0.5,2.6-1.2c0.1-0.1,0.2-0.3,0.3-0.4c1.2,2.4,2.8,4.6,4.8,6.5C32.5,57.1,33.2,57.7,33.9,58.2z"/>
<path class="st0" d="M59.6,9.2V0L43.1,13.8h11L59.6,9.2z"/>
<path class="st0" d="M183.1,42v-9.2l16.5,13.8h-11L183.1,42z"/>
<g transform="translate(270.61 22.974)">
	<path class="st2" d="M5.5,3c0-1-0.7-1.3-1.6-1.3H2.3v4.2h0.9V4.3h0.5l0.8,1.5h1.1l-1-1.7C5.2,4,5.5,3.5,5.5,3z M3.3,2.4h0.5
		c0.5,0,0.8,0.1,0.8,0.6S4.3,3.6,3.8,3.6H3.3V2.4z"/>
	<path class="st2" d="M3.8,0C1.7,0,0,1.7,0,3.8s1.7,3.8,3.8,3.8s3.8-1.7,3.8-3.8c0,0,0,0,0,0C7.5,1.7,5.8,0,3.8,0z M3.8,6.7
		c-1.6,0-3-1.3-3-3c0-1.6,1.3-3,3-3c1.6,0,3,1.3,3,3C6.7,5.4,5.4,6.7,3.8,6.7z"/>
</g>
</svg>
