<?xml version="1.0" encoding="UTF-8"?>
<svg id="Layer_1" xmlns="http://www.w3.org/2000/svg" version="1.1" viewBox="0 0 1614.7 484.3">
  <!-- Generator: Adobe Illustrator 29.6.1, SVG Export Plug-In . SVG Version: 2.1.1 Build 9)  -->
  <defs>
    <style>
      .st0 {
        fill: #fff;
      }
    </style>
  </defs>
  <path class="st0" d="M423.5,227.6c0,17.7-3.6,35.2-10.8,51.4-7,15.7-16.9,29.9-29.1,42-12.4,12.1-27.1,21.7-43.2,28.2-33.9,13.7-71.7,13.7-105.6,0-8.3-3.4-16.2-7.6-23.6-12.5-2.6-1.7-5.2-3.5-7.7-5.5-17.9-13.6-32.1-31.7-41.1-52.3-1-2.2-1.9-4.5-2.8-6.8-.1-.3-.2-.5-.3-.8-.9-2.2-2.2-4.3-3.8-6-1.8-1.9-3.9-3.5-6.2-4.8-1.1-.6-2.3-1.1-3.5-1.5-1.3-.5-2.8-.8-4.2-1h-.2s-1.1,0-1.3,0h-57.4c-11.6.1-23.1-2.3-33.6-7.1-9.9-4.6-18.9-10.8-26.6-18.6l-1.7-1.7v-.5c-6.1-6.8-11-14.6-14.6-23-8-19.2-8-40.9,0-60.1,2.6-6.2,6-12,10-17.4,4.1-5.2,8.9-9.9,14.3-14,5.1-4,11.5-9.1,18.7-12.4,10.5-4.8,22-7.2,33.6-7.1h151.9c-1.1.5-2.3.9-3.4,1.4-17.1,7.1-32.7,17.3-46.1,30-8.8,8.4-16.4,18-22.7,28.4h-76.1c-1.2,0-2.4,0-3.6,0-2.6.2-5.1,1-7.4,2.3-1.2.6-2.3,1.3-3.4,2.1l-.3.2c-.8.6-1.5,1.2-2.2,1.9l-.2.3-.3.3c-3.5,3.7-5.4,8.5-5.3,13.6v.4c-.1,5,1.7,9.8,5.1,13.4,2.8,3.1,6.4,5.5,10.4,6.8.3,0,2.7.6,13.1.6s3.9,0,5.4,0h43.8c1.4,0,2.7,0,4,0,3.2.1,6.3.4,9.4.9,6.9,1.1,13.7,3,20,5.9,6.3,2.8,11.7,6.9,17.6,11.5,3,2.3,5.8,4.8,8.5,7.5,6.2,6.3,11.3,13.6,15.2,21.7,1.5,3.2,2.5,6.6,3.9,9.8,3.2,7.4,7.7,14.2,13.2,20.1.8.9,1.7,1.7,2.5,2.6,6.8,6.6,14.8,11.8,23.5,15.5,18.4,7.6,39.1,7.6,57.5,0,8.7-3.7,16.7-8.9,23.5-15.5,6.7-6.5,12.1-14.2,16-22.7,7.8-17.6,7.8-37.7,0-55.3-8-17.2-22.1-30.8-39.5-38.2-4.6-2-9.4-3.4-14.3-4.4-4-.8-8-1.2-12-1.3-.8,0-1.6,0-2.4,0s-1.5,0-2.3,0c-4,0-8.1.5-12.1,1.3-5,.9-9.8,2.4-14.4,4.4-2.5,1.1-5,2.3-7.4,3.6-5.9,3.2-11.3,7.2-16.1,11.9-6.7,6.5-12,14.2-15.7,22.7-3.4,7.9-5.3,16.4-5.6,25-2.1-2.7-4.3-5.2-6.7-7.7-2.9-3-6.1-5.8-9.4-8.4-6.4-5-12.3-9.4-19.6-12.7-6.8-3.1-14.1-5.2-21.5-6.4,1.4-4.6,3.1-9.1,5-13.5,1.6-3.7,3.4-7.4,5.4-10.9,1.8-3.2,3.7-6.4,5.7-9.4,5.2-7.8,11.3-15.1,18.1-21.6,12.6-12,27.2-21.5,43.3-28.2,3.9-1.6,7.9-3.1,11.9-4.4,5.7-1.8,11.6-3.2,17.5-4.2,4.2-.7,8.5-1.2,12.8-1.5,3.5-.3,7-.4,10.6-.4,3.6,0,7.1.1,10.6.4,14.5,1,28.7,4.4,42.1,10,0,0,.1,0,.2,0,3.1,1.3,6,2.7,9,4.1,12.5,6.2,24,14.4,34.1,24.1,2.7,2.6,5.2,5.3,7.6,8.1,3.4,3.9,6.5,7.9,9.4,12.2,4.7,6.8,8.7,14.1,12.1,21.6,7.2,16.2,10.9,33.7,10.8,51.4Z"/>
  <path class="st0" d="M196.7,338c-6.5,5.8-13.9,10.7-21.8,14.3-10.5,4.8-22,7.2-33.6,7.1H17.4v-59.8h96.8c2.7,0,5.3,0,8,0,2.6,0,5.3,0,7.9,0,4,0,7.2,0,10.3-.2,5.7-.3,11.1-2.8,14.9-7.1.7-.8,1.4-1.6,2-2.4,9.5,18.7,23,35.1,39.6,48Z"/>
  <path class="st0" d="M345.9,53.4V0l-95.9,80.2h63.9l32-26.7h0Z"/>
  <path class="st0" d="M423.5,96.1h207.3v68.7h-69.8v194.6h-69.1v-194.6h-68.4v-68.7Z"/>
  <path class="st0" d="M642.8,96.4h163.4v57.2h-94.3v42.8h94.3v58.2h-94.3v48.4h94.3v56.5h-163.4V96.4Z"/>
  <rect class="st0" x="1146.6" y="96.4" width="69.1" height="263"/>
  <path class="st0" d="M1331.1,96.4h-31.2l-72.2,154.6v108.4h18.5l15.8-34.4h107.7l16.1,34.4h69.1l-123.8-263ZM1289.1,266.8l27-57.9,26.7,57.9h-53.7Z"/>
  <path class="st0" d="M1481.5,196.7c-10.8,0-19.6-8.7-19.6-19.6h0c0-11,8.7-19.9,19.6-20.1,11,.1,19.9,9,20,20h61c0-44.6-36.4-80.8-81-80.7-44.6,0-80.8,36.4-80.7,81,0,44.5,36.2,80.6,80.7,80.7,11,.1,19.9,9,20,20-.1,10.9-9.1,19.7-20,19.6-10.9,0-19.7-8.9-19.6-19.7,0,0,0-.2,0-.3h-32.2l38.5,81.7h13.4c44.9-.4,81.1-37.1,80.7-82-.3-44.4-36.3-80.4-80.7-80.7h0Z"/>
  <path class="st0" d="M818.3,96.4h69.1v193.6h94.7v69.4h-163.8V96.4Z"/>
  <rect class="st0" x="994.2" y="96.4" width="69.1" height="263"/>
  <path class="st0" d="M1063.3,243.6v-53.4l95.9,80.2h-63.9l-32-26.7h0Z"/>
  <path class="st0" d="M1602.9,150.6c0-5.8-4.2-7.6-9.4-7.6h-8.8v24.4h5.5v-8.8h3l4.7,8.8h6.2l-5.5-9.8c2.8-1.2,4.5-4,4.3-7ZM1590.2,147.4h2.8c2.9,0,4.5.8,4.5,3.2s-1.6,3.6-4.5,3.6h-2.8v-6.9Z"/>
  <path class="st0" d="M1592.9,133.4c-12.1,0-21.8,9.8-21.8,21.8,0,12.1,9.8,21.8,21.8,21.8s21.8-9.8,21.8-21.8h0c0-12.1-9.8-21.8-21.8-21.8ZM1592.9,172.4c-9.5,0-17.2-7.7-17.2-17.2s7.7-17.2,17.2-17.2,17.2,7.7,17.2,17.2h0c0,9.5-7.7,17.2-17.2,17.2h0Z"/>
  <path class="st0" d="M69.2,410.2v13h-27.7v59.7h-13.8v-59.7H0v-13h69.2Z"/>
  <path class="st0" d="M109.6,440h40.1v13h-40.1v16.7h53.8v13.1h-67.7v-72.7h67.7v13h-53.8v16.7Z"/>
  <path class="st0" d="M206.5,469.7h41.4v13.1h-55.3v-72.7h13.9v59.6Z"/>
  <path class="st0" d="M343.6,410.2v72.7h-13.9v-29.9h-41.4v29.9h-13.9v-72.7h13.9v29.8h41.4v-29.8h13.9Z"/>
  <path class="st0" d="M431.2,482.9l-7.1-18.6h-33.7l-7,18.6h-14.7l28.4-72.7h20.7l28.4,72.7h-14.9ZM419.4,451.2l-12.4-30.2-11.9,30.2h24.3Z"/>
  <path class="st0" d="M513,424.6c-3.3-1.9-7.6-2.8-13-2.8-5.8,0-10.3.8-13.4,2.5-3.1,1.7-4.6,4.1-4.6,7.2,0,2.7,1.5,4.7,4.4,5.9,2.9,1.2,7.7,1.8,14.3,1.8,11.3,0,19.5,1.7,24.7,5.1s7.7,8.9,7.7,16.3c0,7.7-2.8,13.6-8.5,17.6s-13.9,6-24.7,6c-5.9.1-11.8-.9-17.4-2.9-4.6-1.6-8.6-4.4-11.7-8.2-2.8-3.4-4.2-7.7-4.2-12.2h13.8c0,3.1,1.8,5.5,5.4,7.4,3.6,1.9,8.2,2.8,14,2.8,6.2,0,11-.9,14.3-2.7,3.4-1.8,5-4.5,5-7.9,0-2.9-1.6-5-4.8-6.4-3.2-1.3-8.2-2-15.2-2-10.9,0-18.9-1.6-23.8-4.9s-7.4-8.6-7.4-15.9c0-7.4,2.7-13.1,8.1-17,5.4-3.9,13.3-5.9,23.6-5.9,5.7-.1,11.3.9,16.6,2.9,4.4,1.6,8.3,4.5,11.2,8.2,2.6,3.5,4,7.8,3.9,12.2h-13.8c0-3.1-1.6-5.5-4.9-7.4Z"/>
  <path class="st0" d="M652,410.2h13.9v72.7h-13.9v-72.7Z"/>
  <path class="st0" d="M739.9,424.6c-3.3-1.9-7.6-2.8-13-2.8-5.8,0-10.3.8-13.4,2.5-3.1,1.7-4.6,4.1-4.6,7.2,0,2.7,1.5,4.7,4.4,5.9,2.9,1.2,7.7,1.8,14.3,1.8,11.3,0,19.5,1.7,24.7,5.1,5.1,3.4,7.7,8.9,7.7,16.3,0,7.7-2.8,13.6-8.5,17.6-5.7,4-13.9,6-24.7,6-5.9.1-11.8-.9-17.4-2.9-4.6-1.6-8.6-4.4-11.7-8.2-2.8-3.4-4.2-7.7-4.2-12.2h13.8c0,3.1,1.8,5.5,5.4,7.4s8.2,2.8,14,2.8c6.2,0,11-.9,14.3-2.7,3.4-1.8,5-4.5,5-7.9,0-2.9-1.6-5-4.8-6.4-3.2-1.3-8.2-2-15.2-2-10.9,0-18.9-1.6-23.8-4.9s-7.4-8.6-7.4-15.9c0-7.4,2.7-13.1,8.1-17s13.3-5.9,23.6-5.9c5.7-.1,11.3.9,16.6,2.9,4.4,1.6,8.3,4.5,11.2,8.2,2.6,3.5,4,7.8,3.9,12.2h-13.8c0-3.1-1.6-5.5-4.9-7.4Z"/>
  <path class="st0" d="M802,479.4c-5.5-3.2-9.9-7.9-12.9-13.5-6.2-12.2-6.2-26.6,0-38.8,3-5.6,7.4-10.3,12.9-13.6,11.4-6.6,25.4-6.6,36.8,0,5.5,3.3,9.9,8,12.9,13.6,6.2,12.2,6.2,26.6,0,38.8-3,5.6-7.4,10.3-12.9,13.5-11.4,6.5-25.4,6.5-36.8,0ZM801.8,458.8c1.7,3.5,4.3,6.5,7.6,8.6,3.3,2.1,7.1,3.2,11,3.1,3.9,0,7.7-1,11.1-3.1,3.3-2.1,6-5.1,7.7-8.6,3.7-7.8,3.7-16.8,0-24.6-1.7-3.5-4.4-6.5-7.7-8.6-3.3-2.1-7.1-3.2-11.1-3.1-3.9,0-7.7,1-11,3.1-3.3,2.1-5.9,5.1-7.6,8.6-3.6,7.8-3.6,16.8,0,24.6h0Z"/>
  <path class="st0" d="M944.2,410.2v13h-27.7v59.7h-13.8v-59.7h-27.7v-13h69.2Z"/>
  <path class="st0" d="M1024.6,439.9v13h-40.1v16.7h53.8v13.1h-67.7v-72.7h67.7v13h-53.8v16.7h40.1ZM1001.1,382.5h12.4l-11.6,16.2h-8.2l7.4-16.2Z"/>
  <path class="st0" d="M1067.6,482.9v-72.7h49.8c6.2,0,11.2,2,15,6,3.8,4,5.7,9.3,5.7,15.8,0,5.8-1.7,10.5-5,14.3-3.4,3.8-8.1,6.2-13.2,6.6.9,1.1,1.8,2.3,2.5,3.5l15.7,26.5h-15.7l-17.5-29.9h-23.4v29.9h-13.9ZM1117.4,440c1.9,0,3.7-.7,4.9-2,1.3-1.5,1.9-3.4,1.9-5.3v-2.1c0-1.9-.6-3.8-1.9-5.3-1.3-1.4-3.1-2.1-4.9-2h-35.9v16.7h35.9Z"/>
  <path class="st0" d="M1166.5,410.2h12.4l22.3,31.2,21.9-31.2h12.6v72.7h-13.9v-48.6l-13.8,19.5h-13.9l-13.7-19.5v48.6h-13.9v-72.7Z"/>
  <path class="st0" d="M1266.9,410.2h13.9v72.7h-13.9v-72.7Z"/>
  <path class="st0" d="M1357.9,427.3c-6.9-5.7-16.7-6.4-24.4-1.7-3.3,2.1-5.9,5.1-7.6,8.6-3.6,7.8-3.6,16.8,0,24.6,1.7,3.5,4.3,6.5,7.6,8.6,3.3,2.1,7.1,3.2,11,3.1,4.9.1,9.7-1.6,13.4-4.8,3.8-3.3,6.4-7.8,7.3-12.7h14.8c-.8,5.8-2.9,11.4-6.2,16.3-3.2,4.7-7.5,8.5-12.5,11.1-5.2,2.7-11,4-16.8,3.9-6.5,0-12.8-1.6-18.4-4.9-5.5-3.2-9.9-7.9-12.9-13.5-6.2-12.2-6.2-26.6,0-38.8,3-5.6,7.4-10.3,12.9-13.6,5.6-3.3,11.9-5,18.4-4.9,5.8,0,11.6,1.3,16.8,3.9,5,2.6,9.3,6.4,12.5,11.1,3.3,4.9,5.4,10.5,6.2,16.3h-14.8c-1-4.9-3.6-9.4-7.3-12.7Z"/>
  <path class="st0" d="M1460.4,482.9l-7.1-18.6h-33.7l-7,18.6h-14.7l28.4-72.7h20.7l28.4,72.7h-14.9ZM1448.6,451.2l-12.4-30.2-11.9,30.2h24.3Z"/>
  <path class="st0" d="M1542.2,424.6c-3.3-1.9-7.6-2.8-13-2.8-5.8,0-10.3.8-13.4,2.5-3.1,1.7-4.6,4.1-4.6,7.2,0,2.7,1.5,4.7,4.4,5.9,2.9,1.2,7.7,1.8,14.3,1.8,11.3,0,19.5,1.7,24.7,5.1,5.1,3.4,7.7,8.9,7.7,16.3,0,7.7-2.8,13.6-8.5,17.6s-13.9,6-24.7,6c-5.9.1-11.8-.9-17.4-2.9-4.6-1.6-8.6-4.4-11.7-8.2-2.8-3.4-4.2-7.7-4.2-12.2h13.8c0,3.1,1.8,5.5,5.4,7.4s8.2,2.8,14,2.8c6.2,0,11-.9,14.3-2.7,3.4-1.8,5-4.5,5-7.9,0-2.9-1.6-5-4.8-6.4-3.2-1.3-8.2-2-15.2-2-10.9,0-18.9-1.6-23.8-4.9-4.9-3.3-7.4-8.6-7.4-15.9,0-7.4,2.7-13.1,8.1-17,5.4-3.9,13.3-5.9,23.6-5.9,5.7-.1,11.3.9,16.6,2.9,4.4,1.6,8.3,4.5,11.2,8.2,2.6,3.5,4,7.8,3.9,12.2h-13.8c0-3.1-1.6-5.5-4.9-7.4Z"/>
</svg>