<svg xmlns="http://www.w3.org/2000/svg" xmlns:xlink="http://www.w3.org/1999/xlink" width="1614.5" height="467" viewBox="0 0 1614.5 467"><defs><clipPath id="b"><rect width="1614.5" height="467"/></clipPath></defs><g id="a" clip-path="url(#b)"><rect width="1614.5" height="467" fill="#fff"/><g transform="translate(28.5 26)"><g transform="translate(-282 -119)"><path d="M423.5,227.6A126.408,126.408,0,0,1,412.7,279a138.787,138.787,0,0,1-29.1,42,133.437,133.437,0,0,1-43.2,28.2,140.8,140.8,0,0,1-105.6,0,136.425,136.425,0,0,1-23.6-12.5c-2.6-1.7-5.2-3.5-7.7-5.5a132.375,132.375,0,0,1-41.1-52.3c-1-2.2-1.9-4.5-2.8-6.8-.1-.3-.2-.5-.3-.8a19.736,19.736,0,0,0-3.8-6,26.4,26.4,0,0,0-6.2-4.8,21.694,21.694,0,0,0-3.5-1.5,19.784,19.784,0,0,0-4.2-1H82.7a79.228,79.228,0,0,1-33.6-7.1,91.163,91.163,0,0,1-26.6-18.6l-1.7-1.7v-.5a83.9,83.9,0,0,1-14.6-23,78.25,78.25,0,0,1,0-60.1,83.563,83.563,0,0,1,10-17.4,79.053,79.053,0,0,1,14.3-14c5.1-4,11.5-9.1,18.7-12.4a79.229,79.229,0,0,1,33.6-7.1H234.7c-1.1.5-2.3.9-3.4,1.4a151.5,151.5,0,0,0-46.1,30,138.226,138.226,0,0,0-22.7,28.4H82.8a17.78,17.78,0,0,0-7.4,2.3,23.944,23.944,0,0,0-3.4,2.1l-.3.2a20,20,0,0,0-2.2,1.9l-.2.3-.3.3a19.11,19.11,0,0,0-5.3,13.6v.4a18.887,18.887,0,0,0,5.1,13.4,24.2,24.2,0,0,0,10.4,6.8c.3,0,2.7.6,13.1.6h53.2a72.979,72.979,0,0,1,9.4.9,76.791,76.791,0,0,1,20,5.9c6.3,2.8,11.7,6.9,17.6,11.5a86.031,86.031,0,0,1,8.5,7.5,80.77,80.77,0,0,1,15.2,21.7c1.5,3.2,2.5,6.6,3.9,9.8a70.711,70.711,0,0,0,13.2,20.1c.8.9,1.7,1.7,2.5,2.6a76.845,76.845,0,0,0,23.5,15.5,75.355,75.355,0,0,0,57.5,0,76.845,76.845,0,0,0,23.5-15.5,75.364,75.364,0,0,0,16-22.7,68.269,68.269,0,0,0,0-55.3,76.666,76.666,0,0,0-39.5-38.2,71.667,71.667,0,0,0-14.3-4.4,69.911,69.911,0,0,0-12-1.3h-4.7a62.211,62.211,0,0,0-12.1,1.3,64.873,64.873,0,0,0-14.4,4.4c-2.5,1.1-5,2.3-7.4,3.6a72.177,72.177,0,0,0-16.1,11.9,71.113,71.113,0,0,0-15.7,22.7,69.439,69.439,0,0,0-5.6,25,97.179,97.179,0,0,0-6.7-7.7,93.9,93.9,0,0,0-9.4-8.4c-6.4-5-12.3-9.4-19.6-12.7a84.569,84.569,0,0,0-21.5-6.4,128.427,128.427,0,0,1,5-13.5,110.376,110.376,0,0,1,5.4-10.9c1.8-3.2,3.7-6.4,5.7-9.4a128.81,128.81,0,0,1,18.1-21.6A141.328,141.328,0,0,1,234.8,106c3.9-1.6,7.9-3.1,11.9-4.4a131.085,131.085,0,0,1,17.5-4.2c4.2-.7,8.5-1.2,12.8-1.5,3.5-.3,7-.4,10.6-.4s7.1.1,10.6.4a132.848,132.848,0,0,1,42.1,10h.2c3.1,1.3,6,2.7,9,4.1a137.763,137.763,0,0,1,34.1,24.1c2.7,2.6,5.2,5.3,7.6,8.1a123.621,123.621,0,0,1,9.4,12.2A138.68,138.68,0,0,1,412.7,176a124.784,124.784,0,0,1,10.8,51.4Z" transform="translate(253.3 93)" fill="#da2128"/><path d="M196.7,338a87.385,87.385,0,0,1-21.8,14.3,79.229,79.229,0,0,1-33.6,7.1H17.4V299.6H130.1c4,0,7.2,0,10.3-.2a21.336,21.336,0,0,0,14.9-7.1c.7-.8,1.4-1.6,2-2.4a142.508,142.508,0,0,0,39.6,48Z" transform="translate(253.3 93)" fill="#da2128"/><path d="M345.9,53.4V0L250,80.2h63.9l32-26.7h0Z" transform="translate(253.3 93)" fill="#30b460"/><path d="M423.5,96.1H630.8v68.7H561V359.4H491.9V164.8H423.5V96.1Z" transform="translate(253.3 93)" fill="#30b460"/><path d="M642.8,96.4H806.2v57.2H711.9v42.8h94.3v58.2H711.9V303h94.3v56.5H642.8V96.4Z" transform="translate(253.3 93)" fill="#30b460"/><rect width="69.1" height="263" transform="translate(1399.9 189.4)" fill="#30b460"/><path d="M1331.1,96.4h-31.2L1227.7,251V359.4h18.5L1262,325h107.7l16.1,34.4h69.1l-123.8-263Zm-42,170.4,27-57.9,26.7,57.9Z" transform="translate(253.3 93)" fill="#30b460"/><path d="M1481.5,196.7a19.568,19.568,0,0,1-19.6-19.6h0a19.8,19.8,0,1,1,39.6-.1h61a80.85,80.85,0,1,0-81,81,20.19,20.19,0,0,1,20,20,19.846,19.846,0,0,1-20,19.6,19.589,19.589,0,0,1-19.6-19.7v-.3h-32.2l38.5,81.7h13.4a81.353,81.353,0,0,0,0-162.7h0Z" transform="translate(253.3 93)" fill="#30b460"/><path d="M818.3,96.4h69.1V290h94.7v69.4H818.3Z" transform="translate(253.3 93)" fill="#30b460"/><rect width="69.1" height="263" transform="translate(1247.5 189.4)" fill="#30b460"/><path d="M1063.3,243.6V190.2l95.9,80.2h-63.9l-32-26.7h0Z" transform="translate(253.3 93)" fill="#30b460"/><path d="M1602.9,150.6c0-5.8-4.2-7.6-9.4-7.6h-8.8v24.4h5.5v-8.8h3l4.7,8.8h6.2l-5.5-9.8a7.087,7.087,0,0,0,4.3-7Zm-12.7-3.2h2.8c2.9,0,4.5.8,4.5,3.2s-1.6,3.6-4.5,3.6h-2.8v-6.9Z" transform="translate(253.3 93)"/><path d="M1592.9,133.4a21.8,21.8,0,1,0,21.8,21.8h0A21.787,21.787,0,0,0,1592.9,133.4Zm0,39a17.2,17.2,0,1,1,17.2-17.2h0a17.2,17.2,0,0,1-17.2,17.2Z" transform="translate(253.3 93)"/><text transform="translate(267 543)" fill="#848484" font-size="74" font-family="NORD-Bold, NORD" font-weight="700" letter-spacing="0.23em"><tspan x="0" y="0" xml:space="preserve">TELHAS   TERMOACÚSTICAS</tspan></text></g></g></g></svg>