<?xml version="1.0" encoding="UTF-8"?>
<svg id="Layer_1" xmlns="http://www.w3.org/2000/svg" version="1.1" viewBox="0 0 1614.5 467">
  <!-- Generator: Adobe Illustrator 29.6.1, SVG Export Plug-In . SVG Version: 2.1.1 Build 9)  -->
  <defs>
    <style>
      .st0 {
        fill: #fff;
      }

      .st1 {
        isolation: isolate;
      }
    </style>
  </defs>
  <g id="a">
    <g>
      <path class="st0" d="M423.3,227.6c0,17.7-3.6,35.2-10.8,51.4-7,15.7-16.9,29.9-29.1,42-12.4,12.1-27.1,21.7-43.2,28.2-33.9,13.7-71.7,13.7-105.6,0-8.3-3.4-16.2-7.6-23.6-12.5-2.6-1.7-5.2-3.5-7.7-5.5-17.9-13.7-32.1-31.7-41.1-52.3-1-2.2-1.9-4.5-2.8-6.8-.1-.3-.2-.5-.3-.8-.9-2.2-2.2-4.2-3.8-6-1.8-1.9-3.9-3.5-6.2-4.8-1.1-.6-2.3-1.1-3.5-1.5-1.4-.5-2.8-.8-4.2-1h-58.9c-11.6.1-23.1-2.3-33.6-7.1-9.9-4.6-18.9-10.9-26.6-18.6l-1.7-1.7v-.5c-6.1-6.8-11-14.6-14.6-23-8-19.2-8-40.9,0-60.1,2.6-6.2,6-12,10-17.4,4.2-5.3,9-10,14.3-14,5.1-4,11.5-9.1,18.7-12.4,10.5-4.8,22-7.2,33.6-7.1h151.9c-1.1.5-2.3.9-3.4,1.4-17.1,7.1-32.7,17.3-46.1,30-8.8,8.4-16.4,18-22.7,28.4h-79.7c-2.6.2-5.1,1-7.4,2.3-1.2.6-2.3,1.3-3.4,2.1l-.3.2c-.8.6-1.5,1.2-2.2,1.9l-.2.3-.3.3c-3.5,3.7-5.4,8.5-5.3,13.6v.4c0,5,1.7,9.8,5.1,13.4,2.8,3.1,6.4,5.5,10.4,6.8.3,0,2.7.6,13.1.6h53.2c3.1,0,6.3.4,9.4.9,6.9,1,13.6,3,20,5.9,6.3,2.8,11.7,6.9,17.6,11.5,3,2.3,5.8,4.8,8.5,7.5,6.2,6.3,11.4,13.7,15.2,21.7,1.5,3.2,2.5,6.6,3.9,9.8,3.2,7.4,7.7,14.2,13.2,20.1.8.9,1.7,1.7,2.5,2.6,6.8,6.6,14.8,11.8,23.5,15.5,18.4,7.6,39.1,7.6,57.5,0,8.7-3.7,16.7-8.9,23.5-15.5,6.7-6.5,12.1-14.2,16-22.7,7.8-17.6,7.8-37.7,0-55.3-8-17.2-22.1-30.8-39.5-38.2-4.6-2-9.4-3.4-14.3-4.4-4-.8-8-1.2-12-1.3h-4.7c-4.1,0-8.1.5-12.1,1.3-5,.9-9.8,2.4-14.4,4.4-2.5,1.1-5,2.3-7.4,3.6-5.9,3.2-11.3,7.2-16.1,11.9-6.7,6.5-12,14.2-15.7,22.7-3.4,7.9-5.3,16.4-5.6,25-2.1-2.7-4.3-5.3-6.7-7.7-2.9-3-6.1-5.8-9.4-8.4-6.4-5-12.3-9.4-19.6-12.7-6.9-3.1-14.1-5.2-21.5-6.4,1.4-4.6,3.1-9.1,5-13.5,1.6-3.7,3.4-7.4,5.4-10.9,1.8-3.2,3.7-6.4,5.7-9.4,5.2-7.8,11.3-15.1,18.1-21.6,12.6-12,27.3-21.5,43.3-28.2,3.9-1.6,7.9-3.1,11.9-4.4,5.7-1.8,11.6-3.2,17.5-4.2,4.2-.7,8.5-1.2,12.8-1.5,3.5-.3,7-.4,10.6-.4s7.1,0,10.6.4c14.5,1,28.7,4.4,42.1,10h.2c3.1,1.3,6,2.7,9,4.1,12.5,6.3,24,14.4,34.1,24.1,2.7,2.6,5.2,5.3,7.6,8.1,3.4,3.9,6.5,7.9,9.4,12.2,4.7,6.8,8.7,14.1,12.1,21.6,7.2,16.2,10.9,33.7,10.8,51.4v.2h0Z"/>
      <path class="st0" d="M196.5,338c-6.5,5.8-13.9,10.7-21.8,14.3-10.5,4.8-22,7.2-33.6,7.1H17.2v-59.8h112.7c4,0,7.2,0,10.3-.2,5.7-.3,11.1-2.8,14.9-7.1.7-.8,1.4-1.6,2-2.4,9.5,18.7,23,35.1,39.6,48h-.2,0Z"/>
      <path class="st0" d="M345.7,53.4V0l-95.9,80.2h63.9l32-26.7h0Z"/>
      <path class="st0" d="M423.3,96.1h207.3v68.7h-69.8v194.6h-69.1v-194.6h-68.4s0-68.7,0-68.7Z"/>
      <path class="st0" d="M642.6,96.4h163.4v57.2h-94.3v42.8h94.3v58.2h-94.3v48.4h94.3v56.5h-163.4V96.4Z"/>
      <rect class="st0" x="1146.4" y="96.4" width="69.1" height="263"/>
      <path class="st0" d="M1330.9,96.4h-31.2l-72.2,154.6v108.4h18.5l15.8-34.4h107.7l16.1,34.4h69.1l-123.8-263h0ZM1288.9,266.8l27-57.9,26.7,57.9h-53.7Z"/>
      <path class="st0" d="M1481.3,196.7c-10.8,0-19.6-8.7-19.6-19.5h0c0-11,8.8-19.9,19.8-19.9s19.8,8.8,19.8,19.7h61c0-44.7-36.3-80.8-81-80.7-44.7,0-80.8,36.3-80.7,81,0,44.5,36.2,80.6,80.7,80.7,11,.1,19.9,9,20,20,0,10.9-9.1,19.7-20,19.6-10.8,0-19.6-8.8-19.6-19.6h0v-.4h-32.2l38.5,81.7h13.4c44.9-.4,81-37.1,80.7-82-.4-44.4-36.3-80.3-80.7-80.7h-.1Z"/>
      <path class="st0" d="M818.1,96.4h69.1v193.6h94.7v69.4h-163.8V96.4Z"/>
      <rect class="st0" x="994" y="96.4" width="69.1" height="263"/>
      <path class="st0" d="M1063.1,243.6v-53.4l95.9,80.2h-63.9l-32-26.7h0Z"/>
      <path class="st0" d="M1602.7,150.6c0-5.8-4.2-7.6-9.4-7.6h-8.8v24.4h5.5v-8.8h3l4.7,8.8h6.2l-5.5-9.8c2.8-1.2,4.5-4,4.3-7h0ZM1590,147.4h2.8c2.9,0,4.5.8,4.5,3.2s-1.6,3.6-4.5,3.6h-2.8v-6.9h0Z"/>
      <path class="st0" d="M1592.7,133.4c-12,0-21.8,9.8-21.8,21.8s9.8,21.8,21.8,21.8,21.8-9.8,21.8-21.8h0c0-12-9.7-21.8-21.8-21.8h0ZM1592.7,172.4c-9.5,0-17.2-7.7-17.2-17.2s7.7-17.2,17.2-17.2,17.2,7.7,17.2,17.2h0c0,9.5-7.7,17.2-17.2,17.2Z"/>
      <g class="st1">
        <g class="st1">
          <path class="st0" d="M17.1,400.9h47.7v10.5h-18.2v38.6h-11.3v-38.6h-18.2s0-10.5,0-10.5Z"/>
          <path class="st0" d="M139.2,411.4h-35.4v8.8h26.3v10.4h-26.3v9h35.4v10.4h-46.8v-49.1h46.8v10.5h0Z"/>
          <path class="st0" d="M179.9,439.6h27.2v10.4h-38.6v-49.1h11.3v38.7h0Z"/>
          <path class="st0" d="M246,420.2h25.1v-19.3h11.2v49.1h-11.2v-19.4h-25.1v19.4h-11.3v-49.1h11.3v19.3Z"/>
          <path class="st0" d="M343.6,400.9l19.5,49.1h-12.2l-4.7-12.1h-20.5l-4.7,12.1h-12.1l19.5-49.1h15.2ZM329.6,427.5h12.7l-6.5-15.6-6.2,15.6Z"/>
          <path class="st0" d="M397.9,433.9v1c0,1.9,1.4,3.4,4.1,4.4,2.1.8,4.6,1.2,7.5,1.2s5.8-.4,7.8-1.1c2.5-1,3.8-2.6,3.8-4.7s-1.4-3.1-4.1-3.8c-1.1-.3-2.5-.5-4.1-.6h-3.7c-6.6,0-11.8-1-15.7-3s-5.9-5.8-5.9-11.5,2.1-9.7,6.2-12.1,9.4-3.7,15.8-3.7,7.2.6,10.6,1.7,6.1,2.9,8.3,5.3c2.1,2.4,3.2,5.4,3.2,9v1.1h-11.3v-1.1c0-1.9-1.2-3.3-3.6-4.3-2.2-.8-4.6-1.3-7.2-1.3s-5.4.3-7.2,1c-2.3.8-3.5,2.2-3.5,4.2s1.3,2.9,3.9,3.5c1,.2,2.3.4,3.8.5h3.5c6.8,0,12.2,1,16.3,3,4.1,2,6.2,6,6.2,11.8s-2.2,10.1-6.5,12.6c-4.4,2.5-9.9,3.8-16.5,3.8s-7.4-.6-10.8-1.7-6.4-2.9-8.6-5.3c-2.3-2.4-3.4-5.5-3.4-9.2v-1h11.2v.3Z"/>
          <path class="st0" d="M578,400.9h47.7v10.5h-18.2v38.6h-11.3v-38.6h-18.2v-10.5Z"/>
          <path class="st0" d="M700.1,411.4h-35.4v8.8h26.3v10.4h-26.3v9h35.4v10.4h-46.8v-49.1h46.8v10.5h0Z"/>
          <path class="st0" d="M729.4,400.9h33.8c3.2,0,5.8.7,8.1,2.1,2.2,1.4,3.9,3.2,5,5.5s1.7,4.8,1.7,7.5-1,6.6-2.9,9.2-4.7,4.3-8.2,5c0,.1.2.3.3.4s.2.3.3.6l11.2,18.7h-12.8l-11.5-19.4h-13.7v19.4h-11.3v-49.1h0ZM740.8,420.2h22.5c1.1,0,1.9-.3,2.5-1s.9-1.6.9-2.7v-1.4c0-1.1-.3-2-.9-2.7s-1.4-1-2.5-1h-22.5v8.8h0Z"/>
          <path class="st0" d="M855.3,400.9v49.1h-11.2v-29.3l-7.4,10.4h-10.4l-7.3-10.4v29.3h-11.3v-49.1h9.8l14.3,19.8,13.6-19.8h9.9Z"/>
          <path class="st0" d="M883.7,425.4c0-4.4,1-8.6,3-12.5s4.8-7,8.6-9.4c3.7-2.4,8.1-3.6,13.2-3.6s9.4,1.2,13.2,3.6c3.7,2.4,6.6,5.5,8.6,9.4s3,8.1,3,12.5-1,8.5-3,12.5c-2,3.9-4.8,7.1-8.6,9.5-3.7,2.4-8.1,3.6-13.2,3.6s-9.4-1.2-13.2-3.6-6.6-5.5-8.6-9.5c-2-3.9-3-8.1-3-12.5ZM895.5,425.4c0,2.5.5,4.9,1.5,7.1s2.5,4,4.5,5.4,4.3,2,7,2,5-.7,7-2c2-1.4,3.5-3.1,4.5-5.4,1-2.2,1.6-4.6,1.6-7.1s-.5-4.9-1.6-7.1c-1-2.2-2.5-4-4.5-5.4-1.9-1.4-4.3-2.1-7-2.1s-5,.7-7,2.1c-1.9,1.4-3.4,3.2-4.4,5.4-1,2.2-1.5,4.6-1.5,7.1h0Z"/>
          <path class="st0" d="M989.6,400.9l19.5,49.1h-12.2l-4.7-12.1h-20.5l-4.7,12.1h-12.1l19.5-49.1h15.2ZM975.6,427.5h12.7l-6.5-15.6-6.2,15.6Z"/>
          <path class="st0" d="M1030.8,425.4c0-4.4,1-8.6,3-12.5s4.8-7,8.6-9.4c3.7-2.4,8.1-3.6,13.2-3.6s8.4.9,11.9,2.8,6.3,4.4,8.4,7.6,3.5,6.8,4.1,10.7v1.1c0,0-11.7,0-11.7,0v-.7c-.9-3.1-2.4-5.6-4.6-7.6-2.2-1.9-4.9-2.9-8.1-2.9s-5,.7-7,2.1c-1.9,1.4-3.4,3.2-4.4,5.4-1,2.2-1.5,4.6-1.5,7.1s.5,4.9,1.5,7.1,2.5,4,4.5,5.4,4.3,2,7,2,5.9-1,8.1-2.9,3.7-4.5,4.4-7.6v-.8h12v1.1c-.7,3.9-2.1,7.5-4.3,10.7-2.1,3.2-5,5.8-8.4,7.7-3.5,1.9-7.4,2.8-11.9,2.8s-9.4-1.2-13.2-3.6c-3.8-2.4-6.6-5.5-8.6-9.5-2-3.9-3-8.1-3-12.5h0Z"/>
          <path class="st0" d="M1108.6,426.4v-25.5h11.3v25.5c0,2.3.4,4.5,1.3,6.6s2.2,3.7,4,5,3.9,1.9,6.3,1.9,4.5-.6,6.3-1.9,3.1-3,4-5c.9-2.1,1.4-4.3,1.4-6.6v-25.5h11.3v25.5c0,4.1-.9,8-2.7,11.8-1.8,3.8-4.4,6.8-7.9,9.2s-7.6,3.6-12.4,3.6-8.9-1.2-12.4-3.5-6.1-5.4-7.9-9.2c-1.8-3.8-2.7-7.7-2.7-11.9h0ZM1129.3,382.3l9.9-.3-8.4,12.1h-7.1l5.6-11.8h0Z"/>
          <path class="st0" d="M1194.2,433.9v1c0,1.9,1.4,3.4,4.1,4.4,2.1.8,4.6,1.2,7.5,1.2s5.8-.4,7.8-1.1c2.5-1,3.8-2.6,3.8-4.7s-1.4-3.1-4.1-3.8c-1.1-.3-2.5-.5-4.1-.6h-3.7c-6.6,0-11.8-1-15.7-3-3.9-2-5.9-5.8-5.9-11.5s2.1-9.7,6.2-12.1,9.4-3.7,15.8-3.7,7.2.6,10.6,1.7,6.1,2.9,8.3,5.3c2.1,2.4,3.2,5.4,3.2,9v1.1h-11.3v-1.1c0-1.9-1.2-3.3-3.6-4.3-2.2-.8-4.6-1.3-7.2-1.3s-5.4.3-7.2,1c-2.3.8-3.5,2.2-3.5,4.2s1.3,2.9,3.9,3.5c1,.2,2.3.4,3.8.5h3.5c6.8,0,12.2,1,16.3,3,4.1,2,6.2,6,6.2,11.8s-2.2,10.1-6.5,12.6c-4.4,2.5-9.9,3.8-16.5,3.8s-7.4-.6-10.8-1.7c-3.5-1.1-6.4-2.9-8.6-5.3-2.3-2.4-3.4-5.5-3.4-9.2v-1h11.2v.3Z"/>
          <path class="st0" d="M1252.5,400.9h47.7v10.5h-18.2v38.6h-11.3v-38.6h-18.2v-10.5Z"/>
          <path class="st0" d="M1339.1,450h-11.3v-49.1h11.3v49.1Z"/>
          <path class="st0" d="M1367.5,425.4c0-4.4,1-8.6,3-12.5s4.8-7,8.6-9.4c3.7-2.4,8.1-3.6,13.2-3.6s8.4.9,11.9,2.8,6.3,4.4,8.4,7.6,3.5,6.8,4.1,10.7v1.1c0,0-11.7,0-11.7,0v-.7c-.9-3.1-2.4-5.6-4.6-7.6-2.2-1.9-4.9-2.9-8.1-2.9s-5,.7-7,2.1c-1.9,1.4-3.4,3.2-4.4,5.4-1,2.2-1.5,4.6-1.5,7.1s.5,4.9,1.5,7.1,2.5,4,4.5,5.4,4.3,2,7,2,5.9-1,8.1-2.9,3.7-4.5,4.4-7.6v-.8h12v1.1c-.7,3.9-2.1,7.5-4.3,10.7-2.1,3.2-5,5.8-8.4,7.7-3.5,1.9-7.4,2.8-11.9,2.8s-9.4-1.2-13.2-3.6c-3.8-2.4-6.6-5.5-8.6-9.5-2-3.9-3-8.1-3-12.5h0Z"/>
          <path class="st0" d="M1473.2,400.9l19.5,49.1h-12.2l-4.7-12.1h-20.5l-4.7,12.1h-12.1l19.5-49.1h15.2,0ZM1459.2,427.5h12.7l-6.5-15.6-6.2,15.6Z"/>
          <path class="st0" d="M1527.5,433.9v1c0,1.9,1.4,3.4,4.1,4.4,2.1.8,4.6,1.2,7.5,1.2s5.8-.4,7.8-1.1c2.5-1,3.8-2.6,3.8-4.7s-1.4-3.1-4.1-3.8c-1.1-.3-2.5-.5-4.1-.6h-3.7c-6.6,0-11.8-1-15.7-3-3.9-2-5.9-5.8-5.9-11.5s2.1-9.7,6.2-12.1,9.4-3.7,15.8-3.7,7.2.6,10.6,1.7,6.1,2.9,8.3,5.3c2.1,2.4,3.2,5.4,3.2,9v1.1h-11.3v-1.1c0-1.9-1.2-3.3-3.6-4.3-2.2-.8-4.6-1.3-7.2-1.3s-5.4.3-7.2,1c-2.3.8-3.5,2.2-3.5,4.2s1.3,2.9,3.9,3.5c1,.2,2.3.4,3.8.5h3.5c6.8,0,12.2,1,16.3,3,4.1,2,6.2,6,6.2,11.8s-2.2,10.1-6.5,12.6c-4.4,2.5-9.9,3.8-16.5,3.8s-7.4-.6-10.8-1.7c-3.5-1.1-6.4-2.9-8.6-5.3-2.3-2.4-3.4-5.5-3.4-9.2v-1h11.2v.3Z"/>
        </g>
      </g>
    </g>
  </g>
</svg>