<?xml version="1.0" encoding="UTF-8"?>
<svg id="Layer_1" data-name="Layer 1" xmlns="http://www.w3.org/2000/svg" version="1.1" viewBox="0 0 194.4 60.9">
  <defs>
    <style>
      .cls-1 {
        fill: #58595b;
      }

      .cls-1, .cls-2, .cls-3, .cls-4 {
        stroke-width: 0px;
      }

      .cls-2 {
        fill: #30b460;
      }

      .cls-3 {
        fill: #da2128;
      }

      .cls-4 {
        fill: #333;
      }
    </style>
  </defs>
  <path class="cls-3" d="M51,27.4c0,2.2-.4,4.3-1.3,6.2-.9,1.9-2,3.6-3.5,5.1-1.5,1.4-3.2,2.6-5.2,3.4s-4.1,1.2-6.4,1.2-4.4-.4-6.4-1.2c-1-.4-2-.9-2.8-1.5-.3-.2-.6-.4-.9-.7-.5-.4-1-.8-1.4-1.2-1.5-1.4-2.7-3.1-3.5-5.1-.1-.3-.2-.5-.3-.8,0,0,0,0,0,0,0-.3-.3-.5-.5-.7-.2-.2-.5-.4-.7-.6-.1,0-.3-.1-.4-.2-.2,0-.3-.1-.5-.1h0s-.1,0-.2,0h-6.9c-1.5,0-2.8-.3-4-.9-1.2-.6-2.3-1.3-3.2-2.2l-.2-.2h0c-.7-.9-1.3-1.8-1.8-2.8-.5-1.1-.7-2.3-.7-3.6s.2-2.5.7-3.6c.3-.8.7-1.5,1.2-2.1.5-.7,1.2-1.3,1.7-1.7.6-.5,1.4-1.1,2.2-1.5,1.2-.6,2.6-.9,4-.9h18.3c-.1,0-.3.1-.4.2-2.1.9-4,2.1-5.6,3.6-1.1,1-2,2.2-2.7,3.4h-9.2c-.1,0-.3,0-.4,0-.2,0-.6.1-.9.3-.1,0-.3.2-.4.3h0c0,0-.2.2-.3.3h0s0,0,0,0c-.4.5-.6,1-.6,1.6h0c0,.7.2,1.2.6,1.7.3.4.8.7,1.3.8,0,0,.3,0,1.6,0s.5,0,.7,0h5.3c.2,0,.3,0,.5,0,.4,0,.8,0,1.1.1.8.1,1.7.4,2.4.7.8.3,1.4.8,2.1,1.4.4.3.7.6,1,.9.7.8,1.4,1.6,1.8,2.6.2.4.3.8.5,1.2.4.9.9,1.7,1.6,2.4,0,.1.2.2.3.3.8.8,1.8,1.4,2.8,1.9,1.1.5,2.2.7,3.5.7s2.4-.2,3.5-.7c1.1-.5,2-1.1,2.8-1.9.8-.8,1.4-1.7,1.9-2.7.5-1,.7-2.1.7-3.3s-.2-2.3-.7-3.3c-.5-1-1.1-2-1.9-2.7-.6-.6-1.2-1-1.9-1.4-.3-.2-.6-.3-.9-.4-.6-.2-1.1-.4-1.7-.5-.5,0-1-.1-1.4-.2,0,0-.2,0-.3,0s-.2,0-.3,0c-.5,0-1,0-1.5.2-.6.1-1.2.3-1.7.5-.3.1-.6.3-.9.4-.7.4-1.4.9-1.9,1.4-.8.8-1.4,1.7-1.9,2.7-.4.9-.6,1.9-.7,3-.3-.3-.5-.6-.8-.9-.3-.4-.7-.7-1.1-1-.8-.6-1.5-1.1-2.4-1.5-.8-.4-1.7-.6-2.6-.8.2-.6.4-1.1.6-1.6.2-.4.4-.9.6-1.3.2-.4.4-.8.7-1.1.6-.9,1.4-1.8,2.2-2.6,1.5-1.4,3.2-2.6,5.2-3.4.5-.2.9-.4,1.4-.5.7-.2,1.4-.4,2.1-.5.5,0,1-.1,1.5-.2.4,0,.8,0,1.3,0s.9,0,1.3,0c1.8.1,3.5.5,5.1,1.2,0,0,0,0,0,0,.4.2.7.3,1.1.5,1.5.8,2.9,1.7,4.1,2.9.3.3.6.6.9,1,.4.5.8,1,1.1,1.5.6.8,1,1.7,1.5,2.6.9,1.9,1.3,4,1.3,6.2Z"/>
  <path class="cls-3" d="M23.7,40.7c-.8.7-1.6,1.3-2.6,1.7-1.2.6-2.6.9-4,.9H2.1v-7.2h11.6c.3,0,.6,0,1,0,.3,0,.6,0,.9,0,.5,0,.9,0,1.2,0,.7,0,1.3-.3,1.8-.9,0,0,.2-.2.2-.3.9,1.7,2,3.2,3.3,4.5.5.4.9.8,1.4,1.2Z"/>
  <polygon class="cls-2" points="41.6 6.4 41.6 0 30.1 9.7 37.8 9.7 41.6 6.4 41.6 6.4"/>
  <path class="cls-2" d="M51,11.6h24.9v8.3h-8.4v23.4h-8.3v-23.4h-8.2v-8.3Z"/>
  <path class="cls-2" d="M77.4,11.6h19.7v6.9h-11.4v5.1h11.4v7h-11.4v5.8h11.4v6.8h-19.7V11.6Z"/>
  <rect class="cls-2" x="138" y="11.6" width="8.3" height="31.7"/>
  <path class="cls-2" d="M160.2,11.6h-3.8l-8.7,18.6v13h2.2l1.9-4.1h13l1.9,4.1h8.3l-14.9-31.7ZM155.2,32.1l3.3-7,3.2,7h-6.5Z"/>
  <path class="cls-2" d="M178.3,23.7c-1.3,0-2.4-1.1-2.4-2.4s1.1-2.4,2.4-2.4,2.4,1.1,2.4,2.4h7.3c0-5.4-4.3-9.7-9.8-9.7s-9.7,4.3-9.7,9.8,4.3,9.7,9.7,9.7,2.4,1.1,2.4,2.4-1.1,2.4-2.4,2.4-2.4-1.1-2.4-2.4h-3.9l4.6,9.8h1.6c5.4,0,9.8-4.3,9.8-9.7s-.8-4.4-2.1-6.1c-1.8-2.3-4.6-3.8-7.6-3.8Z"/>
  <path class="cls-2" d="M98.5,11.6h8.3v23.3h11.4v8.4h-19.7V11.6Z"/>
  <rect class="cls-2" x="119.7" y="11.6" width="8.3" height="31.7"/>
  <polygon class="cls-2" points="128 29.3 128 22.9 139.5 32.5 131.8 32.5 128 29.3 128 29.3"/>
  <path class="cls-1" d="M192.9,18.1c0-.7-.5-.9-1.1-.9h-1.1v2.9h.7v-1.1h.4l.6,1.1h.7l-.7-1.2c.3-.1.5-.4.5-.8ZM191.4,17.7h.3c.3,0,.5,0,.5.4s-.2.4-.5.4h-.3v-.8Z"/>
  <path class="cls-1" d="M191.7,16.1c-1.5,0-2.6,1.2-2.6,2.6s1.2,2.6,2.6,2.6,2.6-1.2,2.6-2.6-1.2-2.6-2.6-2.6ZM191.7,20.8c-1.1,0-2.1-.9-2.1-2.1s.9-2.1,2.1-2.1,2.1.9,2.1,2.1-.9,2.1-2.1,2.1Z"/>
  <g>
    <path class="cls-4" d="M69.3,53.7c0,3.1-2,5.4-5,5.4s-5.1-2.1-5.1-5,2.1-5,5.1-5,4.6,1.6,5,3.8h-2.8c-.3-.8-1.2-1.3-2.2-1.3-1.4,0-2.4,1-2.4,2.6s1,2.6,2.4,2.6,1.9-.5,2.2-1.2h-2.4v-1.7h5.3Z"/>
    <path class="cls-4" d="M83.3,55.8h-1v2.9h-2.6v-9.6h4.2c2.1,0,3.6,1.4,3.6,3.4s-.6,2.1-1.5,2.7l1.9,3.5h-2.9l-1.6-2.9ZM82.3,53.6h1.2c.7,0,1.2-.4,1.2-1s-.4-1-1.2-1h-1.2v2.1Z"/>
    <path class="cls-4" d="M103.7,57.2h-3.4l-.5,1.6h-2.8l3.8-9.6h2.6l3.8,9.6h-2.9l-.5-1.6ZM102,52.2l-1,3h2.1l-1.1-3Z"/>
    <path class="cls-4" d="M126.6,58.8l-.7-5.5-2.5,5.5h-.8l-2.5-5.5-.7,5.5h-2.7l1.4-9.6h2.6l2.3,5.2,2.3-5.2h2.6l1.4,9.6h-2.7Z"/>
    <path class="cls-4" d="M145.4,57.2h-3.4l-.5,1.6h-2.8l3.8-9.6h2.6l3.8,9.6h-2.9l-.5-1.6ZM143.7,52.2l-1,3h2.1l-1.1-3Z"/>
    <path class="cls-4" d="M157.8,54c0-2.9,2.2-5,5.1-5s4.5,1.7,4.8,4.1h-2.7c-.3-1-1.2-1.6-2.2-1.6s-2.4,1.1-2.4,2.6,1,2.6,2.4,2.6,1.9-.7,2.2-1.8h2.7c-.4,2.5-2.3,4.2-4.9,4.2s-5.1-2.2-5.1-5ZM163.6,60.9h-1.6v-3.1h1.6v3.1Z"/>
    <path class="cls-4" d="M177.5,54c0-2.9,2.2-5,5.3-5s5.3,2.1,5.3,5-2.2,5-5.3,5-5.3-2.1-5.3-5ZM185.3,54c0-1.5-1.1-2.6-2.5-2.6s-2.5,1.1-2.5,2.6,1.1,2.6,2.5,2.6,2.5-1.1,2.5-2.6Z"/>
  </g>
</svg>