<svg xmlns="http://www.w3.org/2000/svg" width="278.132" height="84.944" viewBox="0 0 278.132 84.944"><path d="M120.85,27.41h35.7V39.247H144.531V72.773h-11.9V39.253H120.856V27.41Z" transform="translate(-47.9 -10.864)" fill="#29b364"/><path d="M183.43,27.51h28.148v9.845h-16.25v7.37h16.25V54.752h-16.25v8.336h16.25v9.725H183.43Z" transform="translate(-72.705 -10.904)" fill="#29b364"/><rect width="11.898" height="45.303" transform="translate(197.498 16.606)" fill="#29b364"/><path d="M368.147,27.51h-5.378L350.34,54.142v18.67h3.187l2.716-5.922h18.544l2.777,5.922h11.9ZM360.9,56.865l4.654-9.966,4.594,9.966Z" transform="translate(-138.862 -10.904)" fill="#29b364"/><path d="M413.622,44.786a3.375,3.375,0,0,1-3.38-3.38,3.427,3.427,0,0,1,3.38-3.441,3.479,3.479,0,0,1,3.441,3.441h10.509a13.926,13.926,0,1,0-13.956,13.956,3.479,3.479,0,0,1,3.441,3.441,3.427,3.427,0,0,1-3.441,3.38,3.388,3.388,0,0,1-3.38-3.441h-5.541l6.622,14.077h2.3a14.017,14.017,0,0,0,.006-28.033Z" transform="translate(-158.434 -10.904)" fill="#29b364"/><path d="M233.5,27.51h11.9V60.855h16.31V72.813H233.5Z" transform="translate(-92.551 -10.904)" fill="#29b364"/><rect width="11.898" height="45.303" transform="translate(171.246 16.606)" fill="#29b364"/><path d="M72.95,50.037a21.468,21.468,0,0,1-1.865,8.849,23.678,23.678,0,0,1-5.016,7.232,23.255,23.255,0,0,1-7.437,4.865,24.355,24.355,0,0,1-18.194,0,24.013,24.013,0,0,1-4.075-2.149c-.453-.3-.9-.61-1.334-.942a23.023,23.023,0,0,1-2.058-1.769,22.744,22.744,0,0,1-5.022-7.244c-.169-.386-.326-.779-.477-1.171a1.412,1.412,0,0,0-.054-.145,3.156,3.156,0,0,0-.658-1.032,4.138,4.138,0,0,0-1.068-.821,4.5,4.5,0,0,0-.592-.266,2.523,2.523,0,0,0-.718-.169h-.042s-.181.006-.229.006H14.228a13.673,13.673,0,0,1-5.789-1.225,15.7,15.7,0,0,1-4.588-3.2l-.29-.284v-.091a14.492,14.492,0,0,1-2.523-3.966,13.422,13.422,0,0,1,0-10.352,14.216,14.216,0,0,1,1.726-3,13.543,13.543,0,0,1,2.457-2.4,16.573,16.573,0,0,1,3.211-2.131A13.677,13.677,0,0,1,14.222,27.4H40.383c-.193.078-.392.157-.579.235a26.019,26.019,0,0,0-7.95,5.173A23.882,23.882,0,0,0,27.942,37.7H15.858l-1.02-.006c-.205,0-.41,0-.616.006a3.136,3.136,0,0,0-1.28.392,3.618,3.618,0,0,0-.579.368l-.054.042a2.444,2.444,0,0,0-.38.326l-.036.06-.048.048a3.3,3.3,0,0,0-.918,2.342v.072a3.269,3.269,0,0,0,.881,2.306A4.274,4.274,0,0,0,13.6,44.827a11.276,11.276,0,0,0,2.264.109c.356,0,.676-.006.936-.006h7.545c.235,0,.465.006.694.018a16.191,16.191,0,0,1,1.63.157,13.33,13.33,0,0,1,3.453,1.014,14.937,14.937,0,0,1,3.036,1.98,14.361,14.361,0,0,1,1.461,1.3,13.859,13.859,0,0,1,2.614,3.73c.26.549.423,1.135.67,1.7a12.319,12.319,0,0,0,2.27,3.453c.139.151.284.3.435.447a13.238,13.238,0,0,0,4.05,2.668,12.942,12.942,0,0,0,9.9,0,13.415,13.415,0,0,0,4.056-2.668,12.942,12.942,0,0,0,2.747-3.912,11.755,11.755,0,0,0,0-9.525,12.8,12.8,0,0,0-2.747-3.912,13.77,13.77,0,0,0-4.05-2.674,12.348,12.348,0,0,0-4.539-.978c-.139-.006-.272-.006-.41-.006s-.26.006-.392.006a12.421,12.421,0,0,0-2.077.223,12.088,12.088,0,0,0-2.487.755,13.229,13.229,0,0,0-1.28.628,12.962,12.962,0,0,0-2.771,2.046,12.307,12.307,0,0,0-2.71,3.9,11.731,11.731,0,0,0-.966,4.31,15.986,15.986,0,0,0-1.159-1.316,16.147,16.147,0,0,0-1.618-1.437,16.331,16.331,0,0,0-3.368-2.185,15.033,15.033,0,0,0-3.694-1.111,21.592,21.592,0,0,1,.863-2.33c.284-.646.592-1.268.93-1.877.308-.555.634-1.093.984-1.624a22.08,22.08,0,0,1,3.115-3.718,24.234,24.234,0,0,1,7.455-4.847c.67-.284,1.358-.531,2.058-.749a23.025,23.025,0,0,1,3.012-.718c.73-.121,1.467-.211,2.209-.266.6-.048,1.213-.066,1.823-.066s1.219.024,1.823.066a23.067,23.067,0,0,1,7.25,1.72c.012,0,.018.006.03.012.525.223,1.044.459,1.545.712A23.75,23.75,0,0,1,66.068,34c.459.447.9.905,1.31,1.388A22.818,22.818,0,0,1,69,37.481,23.508,23.508,0,0,1,71.084,41.2,21.371,21.371,0,0,1,72.95,50.037Z" transform="translate(0 -10.837)" fill="#e12026"/><path d="M35.848,91.024a15.078,15.078,0,0,1-3.755,2.463,13.646,13.646,0,0,1-5.783,1.225H4.96v-10.3H21.626c.459,0,.911.006,1.37.006s.905.006,1.358.006c.688,0,1.25-.006,1.769-.024a3.675,3.675,0,0,0,2.565-1.225c.121-.139.235-.278.338-.417a24.15,24.15,0,0,0,4.781,6.5A24.761,24.761,0,0,0,35.848,91.024Z" transform="translate(-1.966 -32.803)" fill="#e12026"/><path d="M87.868,9.205V0L71.34,13.811H82.35Z" transform="translate(-28.277)" fill="#29b364"/><path d="M303.4,63.455V54.25l16.528,13.811H308.911Z" transform="translate(-120.257 -21.503)" fill="#29b364"/><g transform="translate(3 72.974)"><path d="M9.165,122.14a2.393,2.393,0,0,0-1.962.881,4.639,4.639,0,0,0-.024,4.9,2.436,2.436,0,0,0,1.992.833,5.047,5.047,0,0,0,1.093-.115,11.032,11.032,0,0,0,1.1-.29v1.243a6.7,6.7,0,0,1-2.36.392,3.779,3.779,0,0,1-2.988-1.177,4.924,4.924,0,0,1-1.044-3.368,5.428,5.428,0,0,1,.507-2.415,3.653,3.653,0,0,1,1.461-1.588,4.422,4.422,0,0,1,2.246-.549,5.55,5.55,0,0,1,2.505.567l-.519,1.207a8.844,8.844,0,0,0-.948-.374A3.819,3.819,0,0,0,9.165,122.14Z" transform="translate(-4.97 -120.89)" fill="#231f20"/><path d="M30.384,125.441A4.861,4.861,0,0,1,29.3,128.8a3.912,3.912,0,0,1-3.06,1.2,3.949,3.949,0,0,1-3.079-1.189,5.822,5.822,0,0,1,.006-6.749,3.977,3.977,0,0,1,3.085-1.177,3.9,3.9,0,0,1,3.054,1.2A4.832,4.832,0,0,1,30.384,125.441Zm-6.755,0a3.962,3.962,0,0,0,.658,2.481,2.337,2.337,0,0,0,1.956.845,2.342,2.342,0,0,0,1.95-.833,5.015,5.015,0,0,0,.006-4.956,2.3,2.3,0,0,0-1.944-.839,2.357,2.357,0,0,0-1.968.839A3.878,3.878,0,0,0,23.629,125.441Z" transform="translate(-11.756 -120.89)" fill="#231f20"/><path d="M43.086,121.12h2.626a4.985,4.985,0,0,1,2.644.531,1.868,1.868,0,0,1,.815,1.684,2.047,2.047,0,0,1-.4,1.292,1.766,1.766,0,0,1-1.153.646v.06a2.266,2.266,0,0,1,1.37.694,2.115,2.115,0,0,1,.441,1.4A2.28,2.28,0,0,1,48.6,129.3a3.571,3.571,0,0,1-2.318.676h-3.2V121.12Zm1.449,3.658h1.394a2.38,2.38,0,0,0,1.328-.29,1.106,1.106,0,0,0,.417-.978.985.985,0,0,0-.453-.905,2.805,2.805,0,0,0-1.431-.278H44.535Zm0,1.171v2.8h1.539a2.238,2.238,0,0,0,1.37-.35,1.284,1.284,0,0,0,.465-1.1,1.177,1.177,0,0,0-.471-1.026A2.488,2.488,0,0,0,46,125.943H44.535Z" transform="translate(-20.075 -120.981)" fill="#231f20"/><path d="M62.209,126.428v3.537H60.76V121.11h2.5a4.1,4.1,0,0,1,2.535.64,2.3,2.3,0,0,1,.821,1.938,2.416,2.416,0,0,1-1.72,2.354l2.5,3.918H65.746l-2.119-3.537H62.209Zm0-1.2h1.008a2.312,2.312,0,0,0,1.467-.374,1.371,1.371,0,0,0,.453-1.117,1.211,1.211,0,0,0-.489-1.081,2.7,2.7,0,0,0-1.479-.326h-.954v2.9Z" transform="translate(-27.083 -120.977)" fill="#231f20"/><path d="M78.01,129.965V121.11h1.449v8.855Z" transform="translate(-33.92 -120.977)" fill="#231f20"/><path d="M95.756,129.961H93.982L89.63,122.9h-.048l.03.392c.054.749.085,1.437.085,2.058v4.6H88.38V121.1h1.757l4.34,7.02h.036c-.006-.091-.024-.429-.048-1.014s-.036-1.038-.036-1.364v-4.636h1.328Z" transform="translate(-38.031 -120.973)" fill="#231f20"/><path d="M115.781,125.456a4.4,4.4,0,0,1-1.219,3.35,4.887,4.887,0,0,1-3.507,1.159H108.58V121.11h2.734a4.533,4.533,0,0,1,3.29,1.141A4.257,4.257,0,0,1,115.781,125.456Zm-1.521.048q0-3.178-2.976-3.181h-1.256v6.423h1.032Q114.257,128.755,114.26,125.5Z" transform="translate(-46.037 -120.977)" fill="#231f20"/><path d="M135.344,125.441a4.861,4.861,0,0,1-1.081,3.362,4.539,4.539,0,0,1-6.139.012,5.822,5.822,0,0,1,.006-6.749,3.977,3.977,0,0,1,3.085-1.177,3.9,3.9,0,0,1,3.054,1.2A4.822,4.822,0,0,1,135.344,125.441Zm-6.755,0a3.962,3.962,0,0,0,.658,2.481,2.692,2.692,0,0,0,3.906.012,5.015,5.015,0,0,0,.006-4.956,2.3,2.3,0,0,0-1.944-.839,2.357,2.357,0,0,0-1.968.839A3.878,3.878,0,0,0,128.589,125.441Z" transform="translate(-53.358 -120.89)" fill="#231f20"/><path d="M174.524,125.441a4.861,4.861,0,0,1-1.081,3.362,4.539,4.539,0,0,1-6.139.012,5.822,5.822,0,0,1,.006-6.749,3.977,3.977,0,0,1,3.085-1.177,3.9,3.9,0,0,1,3.054,1.2A4.851,4.851,0,0,1,174.524,125.441Zm-6.761,0a3.962,3.962,0,0,0,.658,2.481,2.692,2.692,0,0,0,3.906.012,5.015,5.015,0,0,0,.006-4.956,2.3,2.3,0,0,0-1.944-.839,2.357,2.357,0,0,0-1.968.839A3.878,3.878,0,0,0,167.763,125.441Z" transform="translate(-68.888 -120.89)" fill="#231f20"/><path d="M206.116,121.12h2.626a4.985,4.985,0,0,1,2.644.531,1.868,1.868,0,0,1,.815,1.684,2.047,2.047,0,0,1-.4,1.292,1.766,1.766,0,0,1-1.153.646v.06a2.266,2.266,0,0,1,1.37.694,2.115,2.115,0,0,1,.441,1.4,2.28,2.28,0,0,1-.833,1.871,3.571,3.571,0,0,1-2.318.676h-3.2V121.12Zm1.449,3.658h1.394a2.38,2.38,0,0,0,1.328-.29,1.106,1.106,0,0,0,.417-.978.985.985,0,0,0-.453-.905,2.805,2.805,0,0,0-1.431-.278h-1.256Zm0,1.171v2.8H209.1a2.238,2.238,0,0,0,1.37-.35,1.284,1.284,0,0,0,.465-1.1,1.177,1.177,0,0,0-.471-1.026,2.488,2.488,0,0,0-1.437-.332h-1.467Z" transform="translate(-84.695 -120.981)" fill="#231f20"/><path d="M225.239,126.428v3.537H223.79V121.11h2.5a4.1,4.1,0,0,1,2.535.64,2.3,2.3,0,0,1,.821,1.938,2.416,2.416,0,0,1-1.72,2.354l2.5,3.918h-1.648l-2.119-3.537h-1.419Zm0-1.2h1.008a2.312,2.312,0,0,0,1.467-.374,1.371,1.371,0,0,0,.453-1.117,1.211,1.211,0,0,0-.489-1.081,2.7,2.7,0,0,0-1.479-.326h-.96Z" transform="translate(-91.702 -120.977)" fill="#231f20"/><path d="M245.758,129.942l-.881-2.457H241.49l-.863,2.457H239.1l3.314-8.892h1.576l3.314,8.892Zm-1.262-3.706-.827-2.409q-.091-.244-.254-.761c-.109-.344-.181-.6-.223-.761a14.628,14.628,0,0,1-.477,1.63l-.8,2.306H244.5Z" transform="translate(-97.771 -120.953)" fill="#231f20"/><path d="M263.462,127.484a2.233,2.233,0,0,1-.851,1.853,3.715,3.715,0,0,1-2.354.67,5.642,5.642,0,0,1-2.457-.465v-1.37a6.879,6.879,0,0,0,1.286.447,5.449,5.449,0,0,0,1.268.163,2.018,2.018,0,0,0,1.268-.326,1.071,1.071,0,0,0,.41-.875,1.1,1.1,0,0,0-.374-.839,5.6,5.6,0,0,0-1.551-.815A4.067,4.067,0,0,1,258.4,124.8a2.368,2.368,0,0,1-.495-1.515,2.12,2.12,0,0,1,.785-1.745,3.277,3.277,0,0,1,2.113-.634,6.258,6.258,0,0,1,2.529.555l-.459,1.183a5.5,5.5,0,0,0-2.107-.495,1.622,1.622,0,0,0-1.068.308.987.987,0,0,0-.362.809,1.146,1.146,0,0,0,.145.592,1.465,1.465,0,0,0,.477.465,7.912,7.912,0,0,0,1.2.573,6.785,6.785,0,0,1,1.431.755,2.25,2.25,0,0,1,.664.791A2.311,2.311,0,0,1,263.462,127.484Z" transform="translate(-105.182 -120.898)" fill="#231f20"/><path d="M274.13,129.965V121.11h1.449v8.855Z" transform="translate(-111.655 -120.977)" fill="#231f20"/><path d="M284.51,129.965V121.11h1.449v7.612h3.749v1.243Z" transform="translate(-115.769 -120.977)" fill="#231f20"/><path d="M322.139,122.14a2.393,2.393,0,0,0-1.962.881,4.639,4.639,0,0,0-.024,4.9,2.436,2.436,0,0,0,1.992.833,5.047,5.047,0,0,0,1.093-.115,11.035,11.035,0,0,0,1.1-.29v1.243a6.7,6.7,0,0,1-2.36.392,3.779,3.779,0,0,1-2.988-1.177,4.923,4.923,0,0,1-1.038-3.368,5.428,5.428,0,0,1,.507-2.415,3.653,3.653,0,0,1,1.461-1.588,4.422,4.422,0,0,1,2.246-.549,5.55,5.55,0,0,1,2.505.567l-.519,1.207a8.842,8.842,0,0,0-.948-.374A3.427,3.427,0,0,0,322.139,122.14Z" transform="translate(-129.024 -120.89)" fill="#231f20"/><path d="M343.354,125.441a4.861,4.861,0,0,1-1.081,3.362,4.539,4.539,0,0,1-6.139.012,5.822,5.822,0,0,1,.006-6.749,3.977,3.977,0,0,1,3.085-1.177,3.9,3.9,0,0,1,3.054,1.2A4.822,4.822,0,0,1,343.354,125.441Zm-6.755,0a4,4,0,0,0,.658,2.481,2.692,2.692,0,0,0,3.906.012,5.015,5.015,0,0,0,.006-4.956,2.3,2.3,0,0,0-1.944-.839,2.357,2.357,0,0,0-1.968.839A3.9,3.9,0,0,0,336.6,125.441Z" transform="translate(-135.806 -120.89)" fill="#231f20"/><path d="M359.887,129.965l-2.565-7.395h-.048c.066,1.1.1,2.125.1,3.091v4.3H356.06V121.11h2.04l2.457,7.044h.036l2.529-7.044h2.046v8.855h-1.394v-4.376c0-.441.012-1.014.03-1.72s.042-1.135.06-1.286h-.048l-2.656,7.382Z" transform="translate(-144.129 -120.977)" fill="#231f20"/><path d="M402.748,129.942l-.881-2.457H398.48l-.863,2.457H396.09l3.314-8.892h1.576l3.314,8.892Zm-1.262-3.706-.827-2.409q-.091-.244-.254-.761c-.109-.344-.181-.6-.223-.761a14.628,14.628,0,0,1-.477,1.63l-.8,2.306h2.578Z" transform="translate(-159.996 -120.953)" fill="#231f20"/><path d="M419.209,122.14a2.393,2.393,0,0,0-1.962.881,4.639,4.639,0,0,0-.024,4.9,2.436,2.436,0,0,0,1.992.833,5.047,5.047,0,0,0,1.093-.115,11.035,11.035,0,0,0,1.1-.29v1.243a6.7,6.7,0,0,1-2.36.392,3.779,3.779,0,0,1-2.988-1.177,4.923,4.923,0,0,1-1.038-3.368,5.428,5.428,0,0,1,.507-2.415,3.654,3.654,0,0,1,1.461-1.588,4.422,4.422,0,0,1,2.246-.549,5.55,5.55,0,0,1,2.505.567l-.519,1.207a8.846,8.846,0,0,0-.948-.374A3.427,3.427,0,0,0,419.209,122.14Zm.827,9.374c0,.9-.616,1.346-1.847,1.346a2.75,2.75,0,0,1-.73-.091v-.827a3.064,3.064,0,0,0,.742.085,1.058,1.058,0,0,0,.519-.1.387.387,0,0,0,.193-.374c0-.344-.362-.567-1.087-.664l.507-1.008h.918l-.247.531a1.551,1.551,0,0,1,.755.417A.952.952,0,0,1,420.036,131.514Z" transform="translate(-167.499 -120.89)" fill="#231f20"/><path d="M440.424,125.441a4.861,4.861,0,0,1-1.081,3.362,4.539,4.539,0,0,1-6.139.012,5.822,5.822,0,0,1,.006-6.749,3.977,3.977,0,0,1,3.085-1.177,3.9,3.9,0,0,1,3.054,1.2A4.851,4.851,0,0,1,440.424,125.441Zm-6.761,0a4,4,0,0,0,.658,2.481,2.692,2.692,0,0,0,3.906.012,5.015,5.015,0,0,0,.006-4.956,2.3,2.3,0,0,0-1.944-.839,2.357,2.357,0,0,0-1.968.839A3.878,3.878,0,0,0,433.663,125.441Z" transform="translate(-174.281 -120.89)" fill="#231f20"/></g><g transform="translate(270.61 22.974)"><path d="M455.323,42.12c0-1-.73-1.31-1.618-1.31H452.19v4.2h.948V43.5h.525l.8,1.509h1.062l-.954-1.684A1.212,1.212,0,0,0,455.323,42.12Zm-2.185-.555h.483c.5,0,.767.139.767.555s-.266.628-.767.628h-.483Z" transform="translate(-449.842 -39.15)" fill="#636464"/><path d="M452.061,38.06a3.761,3.761,0,1,0,3.761,3.761A3.765,3.765,0,0,0,452.061,38.06Zm0,6.718a2.958,2.958,0,1,1,2.958-2.958A2.963,2.963,0,0,1,452.061,44.778Z" transform="translate(-448.3 -38.06)" fill="#636464"/></g></svg>