<?xml version="1.0" encoding="UTF-8"?>
<svg id="Layer_1" data-name="Layer 1" xmlns="http://www.w3.org/2000/svg" version="1.1" viewBox="0 0 264.5 82.9">
  <defs>
    <style>
      .cls-1 {
        fill: #fff;
        stroke-width: 0px;
      }
    </style>
  </defs>
  <path class="cls-1" d="M69.4,37.3c0,3-.6,5.8-1.8,8.4-1.2,2.6-2.8,4.9-4.8,6.9-2,2-4.4,3.5-7.1,4.6s-5.6,1.7-8.6,1.7-6-.6-8.7-1.7c-1.4-.6-2.7-1.2-3.9-2-.4-.3-.9-.6-1.3-.9-.7-.5-1.3-1.1-2-1.7-2-2-3.6-4.3-4.8-6.9-.2-.4-.3-.7-.5-1.1,0,0,0,0,0-.1-.1-.4-.3-.7-.6-1-.3-.3-.6-.6-1-.8-.2-.1-.4-.2-.6-.3-.2,0-.5-.1-.7-.2h0s-.2,0-.2,0h-9.4c-2,0-3.8-.4-5.5-1.2-1.7-.8-3.1-1.8-4.4-3l-.3-.3h0c-1-1.2-1.8-2.5-2.4-3.9-.7-1.5-1-3.2-1-4.9s.3-3.4,1-4.9c.5-1.1,1-2,1.6-2.9.7-1,1.6-1.7,2.3-2.3.8-.7,1.9-1.5,3.1-2,1.7-.8,3.5-1.2,5.5-1.2h24.9c-.2,0-.4.1-.6.2-2.9,1.2-5.4,2.9-7.6,4.9-1.4,1.4-2.7,2.9-3.7,4.6h-12.5c-.2,0-.4,0-.6,0-.3,0-.8.1-1.2.4-.2,0-.4.2-.5.3h0c-.1.1-.3.3-.4.3h0c0,0,0,.1,0,.1-.6.6-.9,1.4-.9,2.2h0c0,.9.3,1.6.8,2.3.5.5,1.1.9,1.7,1.1,0,0,.4.1,2.1.1s.6,0,.9,0h7.2c.2,0,.4,0,.7,0,.5,0,1,0,1.5.2,1.2.2,2.3.5,3.3,1,1,.5,1.9,1.1,2.9,1.9.5.4,1,.8,1.4,1.2,1,1,1.9,2.2,2.5,3.5.2.5.4,1.1.6,1.6.5,1.2,1.3,2.3,2.2,3.3.1.1.3.3.4.4,1.1,1.1,2.4,1.9,3.9,2.5,1.5.6,3,.9,4.7.9s3.3-.3,4.7-.9c1.5-.6,2.8-1.5,3.9-2.5,1.1-1.1,2-2.3,2.6-3.7.6-1.4,1-2.9,1-4.5s-.3-3.1-1-4.5c-.6-1.4-1.5-2.7-2.6-3.7-.8-.8-1.7-1.4-2.6-1.9-.4-.2-.8-.4-1.2-.6-.8-.3-1.5-.6-2.3-.7-.6-.1-1.3-.2-2-.2-.1,0-.3,0-.4,0s-.2,0-.4,0c-.7,0-1.3,0-2,.2-.8.2-1.6.4-2.4.7-.4.2-.8.4-1.2.6-1,.5-1.9,1.2-2.6,1.9-1.1,1.1-2,2.3-2.6,3.7-.6,1.3-.9,2.6-.9,4.1-.3-.4-.7-.9-1.1-1.3-.5-.5-1-.9-1.5-1.4-1-.8-2-1.5-3.2-2.1-1.1-.5-2.3-.8-3.5-1.1.2-.8.5-1.5.8-2.2.3-.6.6-1.2.9-1.8.3-.5.6-1,.9-1.5.9-1.3,1.8-2.5,3-3.5,2-1.9,4.4-3.5,7.1-4.6.6-.3,1.3-.5,2-.7.9-.3,1.9-.5,2.9-.7.7-.1,1.4-.2,2.1-.3.6,0,1.2,0,1.7,0s1.2,0,1.7,0c2.4.2,4.7.7,6.9,1.6,0,0,0,0,0,0,.5.2,1,.4,1.5.7,2.1,1.1,4,2.4,5.6,3.9.4.4.9.9,1.2,1.3.6.6,1.1,1.3,1.5,2,.8,1.1,1.4,2.3,2,3.5,1.2,2.6,1.8,5.5,1.8,8.4Z"/>
  <path class="cls-1" d="M32.2,55.4c-1,.9-2.2,1.7-3.6,2.3-1.7.8-3.5,1.2-5.5,1.2H2.8v-9.8h15.9c.4,0,.9,0,1.3,0,.4,0,.9,0,1.3,0,.7,0,1.2,0,1.7,0,.9,0,1.8-.4,2.4-1.2.1-.1.2-.3.3-.4,1.2,2.3,2.7,4.4,4.5,6.2.6.6,1.3,1.2,1.9,1.7Z"/>
  <polygon class="cls-1" points="56.7 8.8 56.7 0 40.9 13.1 51.4 13.1 56.7 8.8 56.7 8.8"/>
  <path class="cls-1" d="M69.4,15.7h33.9v11.3h-11.4v31.9h-11.3v-31.9h-11.2v-11.3Z"/>
  <path class="cls-1" d="M105.3,15.8h26.8v9.4h-15.5v7h15.5v9.5h-15.5v7.9h15.5v9.2h-26.8V15.8Z"/>
  <rect class="cls-1" x="187.8" y="15.8" width="11.3" height="43.1"/>
  <path class="cls-1" d="M218,15.8h-5.1l-11.8,25.3v17.8h3l2.6-5.6h17.6l2.6,5.6h11.3l-20.3-43.1ZM211.1,43.7l4.4-9.5,4.4,9.5h-8.8Z"/>
  <path class="cls-1" d="M242.7,32.2c-1.8,0-3.2-1.4-3.2-3.2s1.4-3.3,3.2-3.3,3.3,1.5,3.3,3.3h10c0-7.4-5.9-13.2-13.3-13.2s-13.2,5.9-13.2,13.3,5.9,13.2,13.2,13.2,3.3,1.5,3.3,3.3-1.5,3.2-3.3,3.2-3.2-1.4-3.2-3.3h-5.3l6.3,13.4h2.2c7.4,0,13.3-5.9,13.3-13.2s-1-6-2.9-8.3c-2.4-3.1-6.2-5.1-10.4-5.1Z"/>
  <path class="cls-1" d="M134,15.8h11.3v31.7h15.5v11.4h-26.8V15.8Z"/>
  <rect class="cls-1" x="162.8" y="15.8" width="11.3" height="43.1"/>
  <polygon class="cls-1" points="174.2 39.9 174.2 31.1 189.9 44.3 179.4 44.3 174.2 39.9 174.2 39.9"/>
  <path class="cls-1" d="M262.5,24.7c0-.9-.7-1.2-1.5-1.2h-1.4v4h.9v-1.4h.5l.8,1.4h1l-.9-1.6c.4-.2.7-.6.7-1.2ZM260.5,24.1h.5c.5,0,.7.1.7.5s-.3.6-.7.6h-.5v-1.1Z"/>
  <path class="cls-1" d="M260.9,21.8c-2,0-3.6,1.6-3.6,3.6s1.6,3.6,3.6,3.6,3.6-1.6,3.6-3.6-1.6-3.6-3.6-3.6ZM260.9,28.2c-1.6,0-2.8-1.3-2.8-2.8s1.3-2.8,2.8-2.8,2.8,1.3,2.8,2.8-1.3,2.8-2.8,2.8Z"/>
  <g>
    <path class="cls-1" d="M94.3,73c0,4.3-2.8,7.3-6.9,7.3s-6.9-2.9-6.9-6.8,2.9-6.9,6.9-6.9,6.2,2.1,6.8,5.2h-3.8c-.5-1.1-1.6-1.8-3-1.8-2,0-3.3,1.4-3.3,3.5s1.3,3.5,3.3,3.5,2.5-.7,3-1.7h-3.2v-2.3h7.1Z"/>
    <path class="cls-1" d="M113.3,76h-1.3v4h-3.6v-13h5.6c2.8,0,4.8,1.9,4.8,4.6s-.8,2.9-2.1,3.7l2.6,4.7h-4l-2.1-4ZM112,73h1.6c1,0,1.6-.6,1.6-1.4s-.6-1.4-1.6-1.4h-1.6v2.8Z"/>
    <path class="cls-1" d="M141.2,77.9h-4.6l-.7,2.1h-3.8l5.1-13h3.5l5.2,13h-4l-.7-2.1ZM138.8,71l-1.4,4h2.9l-1.4-4Z"/>
    <path class="cls-1" d="M172.2,80l-1-7.5-3.5,7.5h-1.1l-3.5-7.5-1,7.5h-3.6l2-13h3.6l3.1,7.1,3.1-7.1h3.6l2,13h-3.6Z"/>
    <path class="cls-1" d="M197.8,77.9h-4.6l-.7,2.1h-3.8l5.1-13h3.5l5.2,13h-4l-.7-2.1ZM195.5,71l-1.4,4h2.9l-1.4-4Z"/>
    <path class="cls-1" d="M214.7,73.5c0-3.9,3-6.9,6.9-6.9s6.1,2.3,6.6,5.6h-3.6c-.4-1.3-1.6-2.2-2.9-2.2s-3.2,1.5-3.2,3.5,1.4,3.5,3.2,3.5,2.6-.9,2.9-2.4h3.7c-.5,3.4-3.2,5.8-6.6,5.8s-6.9-2.9-6.9-6.8ZM222.6,82.9h-2.2v-4.3h2.2v4.3Z"/>
    <path class="cls-1" d="M241.6,73.5c0-4,3-6.8,7.2-6.8s7.2,2.9,7.2,6.8-3,6.8-7.2,6.8-7.2-2.9-7.2-6.8ZM252.2,73.5c0-2-1.4-3.5-3.4-3.5s-3.4,1.5-3.4,3.5,1.5,3.5,3.4,3.5,3.4-1.5,3.4-3.5Z"/>
  </g>
</svg>