<svg xmlns="http://www.w3.org/2000/svg" width="455.222" height="374.803" viewBox="0 0 455.222 374.803"><g transform="translate(-25.49 -62.497)"><rect width="50.2" height="72.7" transform="translate(314.6 141.6)" fill="#e0e0e0"/><rect width="50.2" height="72.7" transform="translate(312.1 141.6)" fill="#f5f5f5"/><rect width="37.7" height="56.9" transform="translate(318.3 149.5)" fill="#fff"/><path d="M356,206.4V190.5c0-10,0-24.3-.1-41l.1.1H318.3l.1-.1v56.9l-.1-.1c11.5,0,20.9,0,27.4.1h0c-6.6,0-16,0-27.5.1h-.1V149.4H356v.1c0,16.8,0,31-.1,41.1v15.6A.31.31,0,0,1,356,206.4Z" fill="#e0e0e0"/><path d="M354.3,149.9" fill="none" stroke="#fbfbfb" stroke-miterlimit="10" stroke-width="0.25"/><path d="M362.4,141.6s-.3.5-.9,1.3-1.4,1.8-2.4,3c-.9,1.1-1.8,2.2-2.5,2.9s-1.1,1.2-1.1,1.1a10.242,10.242,0,0,1,1-1.3c.7-.8,1.5-1.8,2.4-2.9s1.7-2.1,2.4-2.9S362.4,141.6,362.4,141.6Z" fill="#e0e0e0"/><path d="M356.2,206.3a47.441,47.441,0,0,0,6.6,8.2" fill="#fff"/><path d="M362.8,214.5s-.5-.4-1.1-1c-.7-.7-1.6-1.7-2.5-2.8a31.516,31.516,0,0,1-2.2-3c-.5-.8-.8-1.3-.8-1.3s.4.5.9,1.2c.6.8,1.3,1.8,2.2,3,.9,1.1,1.8,2.1,2.4,2.8C362.4,214,362.8,214.4,362.8,214.5Z" fill="#e0e0e0"/><path d="M312.1,214.2l6.6-8.1" fill="#fff"/><path d="M318.7,206.1a51.6,51.6,0,0,1-3.2,4.1c-1.8,2.2-3.3,4-3.4,4a51.6,51.6,0,0,1,3.2-4.1C317.1,207.9,318.6,206.1,318.7,206.1Z" fill="#e0e0e0"/><path d="M312.1,141.6c.1,0,1.5,1.7,3.2,3.8,1.7,2.2,3,3.9,3,4-.1,0-1.5-1.7-3.2-3.8A38.408,38.408,0,0,1,312.1,141.6Z" fill="#e0e0e0"/><rect width="12.6" height="35.8" transform="translate(331.6 161.1)" fill="#e0e0e0"/><path d="M265,345c-4.6,1.3-8.3,5-10.5,9.2a31.636,31.636,0,0,0-3,13.9c-.1,9.3,3.9,19.1,8.6,27.2,8.5-5.7,11.8-17.2,13.1-23.2,2-9.3,0-27.5-8.2-27.1" fill="#f5f5f5"/><path d="M249.2,409.3c1.9-5,.5-10.9-3.1-15a20.534,20.534,0,0,0-14.2-6.5c-2.5-.1-5.2.3-6.9,2.1a6.589,6.589,0,0,0-.9,6.5,13.9,13.9,0,0,0,4.2,5.4c6.2,5,13.1,8.8,20.9,7.5" fill="#f5f5f5"/><path d="M255.6,431.6a31.1,31.1,0,0,0-.3-6.1,29.974,29.974,0,0,0-1.5-6.5,46.806,46.806,0,0,0-3.1-7.6,30.678,30.678,0,0,0-9.5-11.3,28.883,28.883,0,0,0-4-2.2,8.652,8.652,0,0,0-1.6-.5c-.1.2,2.1,1,5.1,3.2a31.29,31.29,0,0,1,9,11.2,73.551,73.551,0,0,1,3.1,7.4,29.85,29.85,0,0,1,1.7,6.3C255.2,429.2,255.4,431.6,255.6,431.6Z" fill="#e0e0e0"/><path d="M265.3,359a17.761,17.761,0,0,0-.7,3c-.4,2-.9,4.8-1.5,8.3-1.2,7-2.8,16.7-4.2,27.5-1.5,10.8-2.5,20.6-3.1,27.7q-.45,5.4-.6,8.4c-.1,2-.1,3.1-.1,3.1a20.958,20.958,0,0,0,.5-3.1c.2-2.2.6-5,.9-8.4.8-7.1,1.9-16.8,3.4-27.6,1.5-10.7,2.9-20.3,3.9-27.5q.75-5.1,1.2-8.4A11.218,11.218,0,0,0,265.3,359Z" fill="#e0e0e0"/><path d="M260.3,414.3a35.473,35.473,0,0,1,25.6-20.1c2.8-.5,6.3-.4,7.9,2s.2,5.6-1.5,8a30.348,30.348,0,0,1-31.9,10.9" fill="#f5f5f5"/><path d="M282,401.6c0-.1-.6.1-1.6.3-1,.3-2.4.8-4.2,1.4a40.582,40.582,0,0,0-12.6,7.4,26.537,26.537,0,0,0-5,6.4,23.844,23.844,0,0,0-2.3,6.2,23.371,23.371,0,0,0-.6,4.4c0,1.1,0,1.6.1,1.6.2,0,.3-2.3,1.2-5.9a25.259,25.259,0,0,1,2.4-5.9,24.8,24.8,0,0,1,4.9-6.1,42.843,42.843,0,0,1,12.2-7.5C279.9,402.6,282.1,401.8,282,401.6Z" fill="#e0e0e0"/><path d="M455.6,169.8s-10.5-3.1-14.7,21-4.6,37.4-4.6,37.4-1.5,5.2-5.3,3.3c-3.9-1.9-10.5-8.8-15.1-5.8-4.8,3.1-4.8,9.6-1.1,17.9,3.7,8.4,11,27,11.7,28.7.6,1.7.4,4.5-2.4,3.6-2.9-.9-21-11.8-25.7-2.9s9.4,30.6,10.9,33,1.3,3.7.3,4.7-6.8-3.2-12.1-6.1-11.9-5.3-14.2,0c-2.3,5.4,2,23.5,27.8,47.2L423.8,362l15.3-5.6c32.1-14.1,42-29.8,41.6-35.7-.4-5.8-7.5-5.7-13.4-4.7-6,1-12.8,3.2-13.4,1.9-.7-1.3-.4-2.6,1.8-4.3,2.2-1.8,22.5-17.7,21-27.7s-22.3-5.5-25.3-5.6-2.3-2.8-1.1-4.1c1.2-1.4,14.2-16.6,20.3-23.3,6.2-6.7,8.3-12.8,4.8-17.3-3.4-4.4-11.9,0-16.2.5-4.3.6-4-4.8-4-4.8s4-12.7,7.8-36.8c3.8-24.2-7.4-24.6-7.4-24.6" fill="#f5f5f5"/><path d="M451.8,191.3a1.75,1.75,0,0,1-.1.5,10.4,10.4,0,0,1-.2,1.5c-.2,1.3-.5,3.3-.9,5.7-.7,5-1.9,12.2-3.3,21-2.9,17.7-7,42.2-11.7,69.3-4.7,27-8.9,51.5-11.9,69.2-1.5,8.8-2.7,16-3.5,21-.4,2.5-.7,4.4-1,5.7q-.15.9-.3,1.5a1.75,1.75,0,0,0-.1.5,1.75,1.75,0,0,1,.1-.5c.1-.4.1-.9.2-1.5.2-1.3.5-3.3.9-5.7.7-5,1.9-12.2,3.3-21,2.9-17.7,7-42.2,11.7-69.3,4.7-27,8.9-51.5,11.9-69.2,1.5-8.8,2.7-16,3.5-21,.4-2.5.7-4.4,1-5.7q.15-.9.3-1.5A1.214,1.214,0,0,1,451.8,191.3Z" fill="#e0e0e0"/><path d="M424.7,235.6a6.409,6.409,0,0,1,.7.9l1.8,2.7c1.5,2.3,3.4,5.5,5.5,9,2,3.5,3.9,6.7,5.3,9.1.6,1.1,1.2,2,1.6,2.8.4.6.6,1,.5,1a6.408,6.408,0,0,1-.7-.9l-1.8-2.7c-1.4-2.3-3.4-5.5-5.4-9-2.1-3.5-3.9-6.6-5.4-9.1-.6-1.1-1.2-2-1.6-2.7S424.6,235.6,424.7,235.6Z" fill="#e0e0e0"/><path d="M441.6,261c-.1-.1,6.3-4.4,14.3-9.6s14.5-9.3,14.6-9.2-6.3,4.4-14.3,9.6S441.7,261.1,441.6,261Z" fill="#e0e0e0"/><path d="M432.6,302.2a6.992,6.992,0,0,1,1.1-.4c.9-.3,1.9-.6,3.1-1,2.6-.8,6.3-1.9,10.2-3.3,4-1.4,7.5-2.7,10.1-3.8q1.8-.75,3-1.2a8.168,8.168,0,0,1,1.1-.4s-.4.2-1.1.6c-.7.3-1.7.8-3,1.4-2.5,1.1-6.1,2.5-10.1,3.9s-7.6,2.5-10.3,3.2c-1.3.4-2.4.6-3.2.8C433,302.1,432.6,302.2,432.6,302.2Z" fill="#e0e0e0"/><path d="M412.2,282.6s.3.2.9.7c.5.5,1.3,1.1,2.3,2,1.9,1.7,4.5,4.1,7.3,6.7,2.8,2.7,5.4,5.1,7.2,6.9L432,301c.5.5.8.8.7.8,0,0-.3-.2-.9-.7-.5-.5-1.3-1.1-2.3-2-1.9-1.7-4.5-4.1-7.3-6.7-2.8-2.7-5.4-5.1-7.2-6.9l-2.1-2.1C412.4,282.9,412.1,282.6,412.2,282.6Z" fill="#e0e0e0"/><path d="M399.6,317.9s.4.3,1.1.9c.8.7,1.7,1.5,2.9,2.5,2.4,2.2,5.8,5.2,9.5,8.6s7,6.4,9.3,8.7c1.1,1.1,2.1,2,2.8,2.7a7.208,7.208,0,0,1,1,1s-.4-.3-1.1-.9c-.8-.7-1.7-1.5-2.9-2.5-2.4-2.2-5.8-5.2-9.5-8.6s-7-6.4-9.3-8.7c-1.1-1.1-2.1-2-2.8-2.7C399.9,318.3,399.5,318,399.6,317.9Z" fill="#e0e0e0"/><path d="M425.7,341.6s.5-.2,1.4-.6c1-.4,2.3-.8,3.9-1.3,3.3-1.1,7.9-2.7,12.8-4.6,5-1.9,9.5-3.7,12.7-5.1,1.5-.6,2.8-1.2,3.8-1.6.9-.4,1.4-.6,1.4-.5,0,0-.5.3-1.3.7-.9.4-2.2,1-3.8,1.7-3.2,1.4-7.6,3.3-12.6,5.2s-9.6,3.4-12.9,4.5c-1.7.5-3,.9-4,1.2A13.079,13.079,0,0,1,425.7,341.6Z" fill="#e0e0e0"/><path d="M103.8,383.3c23.1-13.2,30.6-40.9,32-66.2.2-4.2,1.1-8.6-.6-12.5s-6.1-6.8-10.1-5.4c-3.3,1.2-5,4.7-7,7.6a24.347,24.347,0,0,1-10.8,8.5c-2.8,1.1-6.2,1.7-8.7,0-3.5-2.3-3.4-7.4-3-11.6.8-7.8,1.5-15.6,2.3-23.5.4-4.2.8-8.5-.1-12.6s-3.5-8.1-7.4-9.6-9,.4-10.3,4.4c-.5,1.7-.3,3.5-.6,5.2s-1.3,3.6-3,3.9-3.3-1-4.4-2.3c-3.9-4.6-6.4-10.4-8.6-16.1-2.3-5.7-4.4-11.5-7.9-16.5s-8.6-9.1-14.6-10-12.7,2.2-14.8,8,.8,12.1,4.2,17.2a93.584,93.584,0,0,0,17.8,20.4c1.2,1.1,2.6,2.2,2.9,3.8.7,2.9-2.3,5.4-5.1,6.1-3.2.8-6.6.1-9.9.2s-7,1.2-8.5,4.2c-2.1,4.1,1.1,9,4.3,12.2a82.715,82.715,0,0,0,22.5,15.9c3,1.4,6.1,2.7,8.4,5.1s3.4,6.3,1.7,9.1c-1.8,2.8-5.7,3.4-8.9,2.5s-5.9-2.9-8.9-4.4c-5.6-2.7-13.1-3-17.2,1.7-2.7,3.1-3.4,7.6-2.5,11.6s3.1,7.6,5.4,11c8.3,11.7,19.3,21.5,32.3,27.4,13.1,6,25.4,8.4,39.1,4.7" fill="#f5f5f5"/><path d="M102.5,402.1a183.337,183.337,0,0,0-3.7-35.2A387.9,387.9,0,0,0,87.6,325c-1.2-3.7-2.4-7.3-3.5-10.8-1.2-3.6-2.3-7.1-3.6-10.4a175.742,175.742,0,0,0-8.8-19c-3.1-5.9-6.2-11.4-9.2-16.5s-5.9-9.8-8.7-14a149,149,0,0,0-14.7-18.7c-1.9-2.1-3.4-3.6-4.5-4.6l-1.2-1.2-.4-.4a1.2,1.2,0,0,0,.4.4,14.25,14.25,0,0,1,1.1,1.2c1,1.1,2.5,2.7,4.4,4.7a173.815,173.815,0,0,1,14.5,18.8c2.8,4.2,5.6,8.9,8.6,14s6.1,10.6,9.1,16.5a183.043,183.043,0,0,1,8.7,18.9c1.3,3.4,2.5,6.8,3.6,10.4,1.2,3.6,2.3,7.2,3.5,10.8a381.921,381.921,0,0,1,11.3,41.8A182.415,182.415,0,0,1,102,402" fill="#e0e0e0"/><path d="M80.2,303.7q.15,0,.6-1.8c.3-1.1.7-2.8,1.2-4.9,1-4.1,2.1-9.9,3.4-16.2,1.2-6.3,2.5-12.1,3.5-16.2a48.9,48.9,0,0,1,1.3-4.8,5.845,5.845,0,0,0,.4-1.8,6.31,6.31,0,0,0-.7,1.7c-.4,1.1-.9,2.8-1.5,4.8-1.2,4.1-2.5,9.8-3.8,16.1-1.2,6.3-2.3,11.9-3.2,16.2-.4,2-.7,3.6-1,4.9C80.2,303,80.1,303.7,80.2,303.7Z" fill="#e0e0e0"/><path d="M27.1,288.7a11.583,11.583,0,0,0,2.1.5c1.4.3,3.4.6,5.8,1.1,4.9,1,11.6,2.6,18.9,4.7s13.9,4.3,18.6,6c2.4.8,4.2,1.6,5.5,2.1s2,.8,2.1.7a10.531,10.531,0,0,0-1.9-1c-1.3-.6-3.1-1.4-5.5-2.3a191.134,191.134,0,0,0-18.6-6.2c-7.4-2.1-14.1-3.6-19.1-4.5-2.5-.4-4.5-.7-5.9-.9A6,6,0,0,0,27.1,288.7Z" fill="#e0e0e0"/><path d="M98.2,365.8a2.476,2.476,0,0,0,.4-.6c.3-.5.7-1.1,1.1-1.9.9-1.6,2.3-4,3.8-7,3.2-5.9,7.3-14.3,11.7-23.6s8.5-17.7,11.5-23.7c1.5-2.9,2.7-5.3,3.6-7.1.4-.8.7-1.4,1-1.9a5.946,5.946,0,0,0,.3-.7,2.475,2.475,0,0,0-.4.6c-.3.5-.7,1.1-1.1,1.9-.9,1.6-2.3,4-3.8,7-3.2,5.9-7.3,14.3-11.7,23.6s-8.5,17.7-11.5,23.7c-1.5,2.9-2.7,5.3-3.6,7.1-.4.8-.7,1.4-1,1.9C98.3,365.6,98.2,365.8,98.2,365.8Z" fill="#e0e0e0"/><path d="M28.6,336.1s.2.1.7.4c.5.2,1.2.5,2,.9,1.9.8,4.4,1.9,7.5,3.2,6.3,2.7,14.9,6.5,24.5,10.8,9.6,4.2,18.2,8,24.6,10.6,3.2,1.3,5.8,2.3,7.6,3,.8.3,1.5.5,2.1.8a2.255,2.255,0,0,0,.7.2s-.2-.1-.7-.4c-.5-.2-1.2-.5-2-.9-1.9-.8-4.4-1.9-7.5-3.2-6.3-2.7-14.9-6.5-24.5-10.8-9.6-4.2-18.2-8-24.6-10.6-3.2-1.3-5.8-2.3-7.6-3-.8-.3-1.5-.6-2.1-.8A3.125,3.125,0,0,1,28.6,336.1Z" fill="#e0e0e0"/><path d="M174.8,81.7v82.5H56.3L52,82.3Z" fill="#e0e0e0"/><rect width="81.8" height="118.5" transform="translate(52.023 164.069) rotate(-90)" fill="#fff"/><path d="M171.1,164.6H51.5V81.7H171.2v82.9ZM52.6,163.5H170V82.8H52.6Z" fill="#e0e0e0"/><rect width="92.9" height="61.5" transform="translate(64.9 92.4)" fill="#fff"/><path d="M157.7,92.4h-6.9c-4.5,0-10.9,0-19.1.1-16.4,0-39.6.1-66.8.1l.3-.3v61.5h0l-.3-.3c35,0,67.3,0,92.9.1l-.2.2c.1-18.7.1-34,.1-44.7,0-5.3,0-9.5.1-12.4V93.5a8.658,8.658,0,0,1-.1-1.1v4.3c0,2.8,0,7,.1,12.3,0,10.7.1,26.1.1,44.9v.2h-.2c-25.5,0-57.8,0-92.9.1h-.3v-.3h0V92.1h.3c27.4.1,50.6.1,67,.1,8.2,0,14.6.1,19.1.1h6.3A2.8,2.8,0,0,0,157.7,92.4Z" fill="#e0e0e0"/><path d="M52,82.1a7.893,7.893,0,0,1,2,1.3c1.2.9,2.9,2.1,4.6,3.5,1.8,1.4,3.4,2.8,4.5,3.8a21.421,21.421,0,0,1,1.7,1.7,72.4,72.4,0,0,1-6.5-5.1C54.8,84.5,51.9,82.2,52,82.1Z" fill="#e0e0e0"/><path d="M170.6,82.3a64.2,64.2,0,0,1-6.2,5.3,62.378,62.378,0,0,1-6.6,4.9,64.2,64.2,0,0,1,6.2-5.3A49.042,49.042,0,0,1,170.6,82.3Z" fill="#e0e0e0"/><path d="M170.5,164.1c-4.4-3.6-8.8-7.1-13.2-10.7" fill="#fff"/><path d="M157.3,153.4a83.294,83.294,0,0,1,6.8,5.1,62.118,62.118,0,0,1,6.4,5.6,83.294,83.294,0,0,1-6.8-5.1A62.118,62.118,0,0,1,157.3,153.4Z" fill="#e0e0e0"/><path d="M52,164.1a64.2,64.2,0,0,1,6.2-5.3,57.691,57.691,0,0,1,6.5-4.8,64.2,64.2,0,0,1-6.2,5.3A62.623,62.623,0,0,1,52,164.1Z" fill="#e0e0e0"/><rect width="20.6" height="58.4" transform="translate(83.754 132.216) rotate(-90)" fill="#e0e0e0"/><rect width="63.4" height="91.9" transform="translate(385.2 62.5)" fill="#e0e0e0"/><rect width="63.4" height="91.9" transform="translate(382 62.5)" fill="#f5f5f5"/><rect width="47.6" height="72" transform="translate(389.9 72.5)" fill="#fff"/><path d="M437.5,144.4V124.3c0-12.7,0-30.7-.1-51.8l.2.2H390l.2-.2v72l-.1-.1c14.5,0,26.4.1,34.7.1h12.1a2.142,2.142,0,0,1,.6-.1H424.7c-8.3,0-20.2,0-34.8.1h-.1V72.2h48v.2c0,21.2-.1,39.2-.1,51.9V144C437.5,144.3,437.5,144.4,437.5,144.4Z" fill="#e0e0e0"/><path d="M435.3,73" fill="none" stroke="#fbfbfb" stroke-miterlimit="10" stroke-width="0.25"/><path d="M445.6,62.5a15.158,15.158,0,0,1-1.1,1.6c-.7,1-1.8,2.3-3,3.8-1.2,1.4-2.3,2.7-3.1,3.6a8.947,8.947,0,0,1-1.5,1.5s.4-.6,1.2-1.6,1.9-2.3,3.1-3.7,2.2-2.7,3-3.7A11.375,11.375,0,0,1,445.6,62.5Z" fill="#e0e0e0"/><path d="M437.8,144.2a60.173,60.173,0,0,0,8.3,10.4" fill="#fff"/><path d="M446.1,154.6s-.6-.5-1.4-1.3a39.852,39.852,0,0,1-3.1-3.5,44.532,44.532,0,0,1-2.8-3.8,10.6,10.6,0,0,1-1-1.7s.5.6,1.2,1.6,1.7,2.3,2.8,3.8c1.1,1.4,2.2,2.7,3,3.6A12.969,12.969,0,0,1,446.1,154.6Z" fill="#e0e0e0"/><path d="M382,154.3c2.8-3.4,5.5-6.8,8.3-10.2" fill="#fff"/><path d="M390.3,144.1a46.586,46.586,0,0,1-4,5.2,53.992,53.992,0,0,1-4.3,5,46.586,46.586,0,0,1,4-5.2A53.992,53.992,0,0,1,390.3,144.1Z" fill="#e0e0e0"/><path d="M382,62.5a42.265,42.265,0,0,1,4,4.8c2.2,2.7,3.8,5,3.8,5a42.265,42.265,0,0,1-4-4.8A42.323,42.323,0,0,1,382,62.5Z" fill="#e0e0e0"/><rect width="15.9" height="45.3" transform="translate(406.7 87.1)" fill="#e0e0e0"/><path d="M461.9,437c0,.1-97.4.3-217.5.3-120.2,0-217.6-.1-217.6-.3,0-.1,97.4-.3,217.6-.3C364.5,436.8,461.9,436.9,461.9,437Z" fill="#263238"/><path d="M339.7,264a17.072,17.072,0,0,1-5.2,16.9c-3,2.7-7,4.3-9.8,7.2a15.064,15.064,0,0,0-3,14.7,19.274,19.274,0,0,0,10.2,11.3,22.685,22.685,0,0,0,20.6-.7c7.7-4.4,12.2-13.1,13.4-21.9,1.1-8.8-.7-17.7-3-26.3" fill="#263238"/><path d="M437.2,419.3c8-1.3,15.5,1.1,23.4,2.9a13.049,13.049,0,0,0,6.5.3,9.315,9.315,0,0,0,6.4-7.7,12.57,12.57,0,0,0-2-8.8,7.755,7.755,0,0,0-2.7-2.7,8.61,8.61,0,0,0-3.8-1,26.626,26.626,0,0,0-14.1,2.7,42.829,42.829,0,0,0-11.7,8.5c-1.8,1.7-1.3,3.6-2,5.8" fill="#263238"/><path d="M275,290.2a61.391,61.391,0,0,1,.5-23,30.475,30.475,0,0,1,4-10.5,7.794,7.794,0,0,1,2.9-2.8,5.085,5.085,0,0,1,5.2,1.2,9.189,9.189,0,0,1,2.5,6.7,21.842,21.842,0,0,1-1.8,7.1c-3.2,8.1-8.1,14.7-13.3,21.3" fill="#263238"/><path d="M430,319.1c1.8,1.3,42.1,87.9,42.1,87.9h0a16.993,16.993,0,0,0-10.2-1l-2.2.6a35.263,35.263,0,0,0-11,5l-11.5,7.8h0a3.29,3.29,0,0,1-1.6-2.5v-.3L404.4,363Z" fill="#e8505b"/><path d="M279.1,181.3l10.7,60.9c3.5,8.2,43.7,57.9,43.7,57.9l-13.3,42.7-52.8-72.3a27.261,27.261,0,0,1-7.4-19.4l2.1-65.1Z" fill="#ffbe9d"/><path d="M336.1,290.6l27.6,2.1,24.1,3.7S430,307.5,430,312.1c0,1.5-11.5,38.2-18,60.2a148.934,148.934,0,0,0-3.9,16.2L430,437H326.2V392.5s-7-58.3-5.8-66.3S336.1,290.6,336.1,290.6Z" fill="#e8505b"/><path d="M266,156.7a127.488,127.488,0,0,1,1.9-18.5c.2-.9.5-1.9,1.4-2,1.1-.1,1.6,1.2,1.8,2.3a65.646,65.646,0,0,1-.9,22.1" fill="#eb996e"/><path d="M278.3,285.7c11.8-10.6,12.2-28.9,11.2-43.5-.1-1.1-.2-2.3.5-3.1,1.1-1.6,3.9-1,5,.6s1,3.8.9,5.7c.6-1.7,3.2-1.7,4.4-.4s1.4,3.2,1.6,5c.1,1.6.3,3.3.4,4.9l34.6,33s1-3,3.5-1.3,4.2,5.4,4.2,5.4l-24.4,53.2-45.2-55A15.984,15.984,0,0,1,278.3,285.7Z" fill="#e8505b"/><path d="M325.2,322.5a46.464,46.464,0,0,0-7.9,15.5,28.058,28.058,0,0,0,.5,17.2A23.743,23.743,0,0,0,336.1,370" fill="#e8505b"/><path d="M437.2,419.3,435.9,437h25.6l6-31.3h0a32.7,32.7,0,0,0-21.7,6.8Z" fill="#ffbe9d"/><path d="M290.3,281.8s.2-.5.6-1.4.9-2.2,1.5-3.8,1.3-3.6,1.9-5.8a66.943,66.943,0,0,0,1.5-7.3,49.084,49.084,0,0,0,.6-7.4c0-2.3,0-4.4-.1-6.1s-.3-3.1-.4-4.1-.2-1.5-.1-1.5a6.071,6.071,0,0,1,.3,1.5c.2,1,.4,2.4.6,4.1a54,54,0,0,1,.3,6.1,51.416,51.416,0,0,1-.6,7.5,66.219,66.219,0,0,1-1.6,7.3,43.112,43.112,0,0,1-2,5.8c-.7,1.6-1.3,2.9-1.7,3.8C290.6,281.4,290.4,281.8,290.3,281.8Z" fill="#263238"/><path d="M297.9,272.5A15.236,15.236,0,0,1,299,270a31.288,31.288,0,0,0,2-6.3,36.941,36.941,0,0,0,.9-6.5,15.2,15.2,0,0,1,.2-2.7,8.958,8.958,0,0,1,.2,2.8,29.318,29.318,0,0,1-.8,6.6,32.148,32.148,0,0,1-2.2,6.3A12.3,12.3,0,0,1,297.9,272.5Z" fill="#263238"/><path d="M338.5,300.2c-.1,0,.3-.7.6-1.9a9.322,9.322,0,0,0-.3-4.6,46.111,46.111,0,0,0-1.7-4.4c-.5-1.1-.8-1.8-.7-1.9a8.13,8.13,0,0,1,1,1.7,20.618,20.618,0,0,1,1.9,4.4,9.113,9.113,0,0,1,.1,4.9A4.088,4.088,0,0,1,338.5,300.2Z" fill="#263238"/><path d="M332.5,370.6l-.4-.2c-.3-.2-.7-.5-1.2-.8-1-.7-2.5-1.7-4.2-3.1a39.509,39.509,0,0,1-5.6-5.4,20.711,20.711,0,0,1-4.3-8.5,28.323,28.323,0,0,1-.6-9.5,35.729,35.729,0,0,1,1.7-7.6c.7-2.1,1.4-3.7,1.9-4.9a11.821,11.821,0,0,0,.6-1.3,1.1,1.1,0,0,1,.2-.4s-.2.6-.7,1.8c-.4,1.1-1.1,2.8-1.7,4.9a42.465,42.465,0,0,0-1.6,7.5,27.024,27.024,0,0,0,.6,9.3,22.436,22.436,0,0,0,4.2,8.3,39.487,39.487,0,0,0,5.5,5.4c1.7,1.4,3.1,2.5,4.1,3.2a10.63,10.63,0,0,1,1.1.9Z" fill="#263238"/><path d="M389.1,380.5a1.1,1.1,0,0,1-.4.2,8.568,8.568,0,0,1-1.3.3,24.9,24.9,0,0,1-4.9.6,27.41,27.41,0,0,1-26.1-16.4,32.7,32.7,0,0,1-1.6-4.7,8.575,8.575,0,0,0-.3-1.3c0-.3-.1-.5,0-.5,0,0,.2.6.5,1.7a27.531,27.531,0,0,0,1.7,4.6,29.081,29.081,0,0,0,10.4,12,27.962,27.962,0,0,0,15.3,4.3,29.08,29.08,0,0,0,4.9-.4C388.5,380.6,389.1,380.5,389.1,380.5Z" fill="#263238"/><path d="M405.1,399.9c-.1,0,1.2-5.6,3-12.3,1.8-6.8,3.3-12.3,3.5-12.2.1,0-1.2,5.6-3,12.3C406.7,394.5,405.2,400,405.1,399.9Z" fill="#263238"/><path d="M419,388.2c-.1.1-4.1-6.5-9-14.7-4.8-8.2-8.7-14.9-8.5-14.9.1-.1,4.1,6.5,9,14.7C415.3,381.4,419.2,388.1,419,388.2Z" fill="#263238"/><path d="M457.4,404.4c0,.1-1.5.2-3.7.8a29.585,29.585,0,0,0-3.9,1.3,38.415,38.415,0,0,0-4.5,2.3,26.365,26.365,0,0,0-4,3.1c-1.1,1.1-2.1,2.1-2.9,3-1.5,1.8-2.2,3.1-2.3,3a4.421,4.421,0,0,1,.5-.9,16.421,16.421,0,0,1,1.6-2.3,25.262,25.262,0,0,1,2.8-3.1,22.031,22.031,0,0,1,4.1-3.1,24.692,24.692,0,0,1,4.6-2.3,19.533,19.533,0,0,1,4-1.2,20.571,20.571,0,0,1,2.8-.4A2.679,2.679,0,0,1,457.4,404.4Z" fill="#263238"/><path d="M462.3,398.4c0,.1-1.6-.1-4.2.1a27.558,27.558,0,0,0-4.4.8,47.9,47.9,0,0,0-5.2,1.9,26.09,26.09,0,0,0-4.6,3,33.917,33.917,0,0,0-3.3,3.1c-1.7,1.9-2.5,3.3-2.6,3.3l.5-1c.2-.3.4-.7.7-1.1a11,11,0,0,1,1.1-1.4,20.292,20.292,0,0,1,3.3-3.2,29.449,29.449,0,0,1,4.7-3.1,24.237,24.237,0,0,1,5.3-1.9,29.316,29.316,0,0,1,4.5-.7,10.8,10.8,0,0,1,1.8,0,4.887,4.887,0,0,1,1.3.1C461.9,398.3,462.3,398.3,462.3,398.4Z" fill="#263238"/><g opacity="0.3"><path d="M355.6,360.8c-2.4,4.5-.4,9.9,1.8,14.5,1.7,3.5,3.5,7.1,6.6,9.6a14.485,14.485,0,0,0,10.8,3,14.075,14.075,0,0,0,9.6-5.9c-12.7.1-25-8.6-29.2-20.6"/></g><g opacity="0.3"><path d="M401.5,358.6c-1.8,4.3-.4,10.2,1.4,14.4,1.9,4.3,3.9,9,2.4,13.4a5.734,5.734,0,0,0-.6,2.5c.1.9,1,1.7,1.8,1.3.4-.2.6-.8.8-1.2,1.4-4.3,2.8-8.6,4.3-12.8"/></g><path d="M306.9,302.1a72.331,72.331,0,0,1,1-8,77.3,77.3,0,0,1,1.5-7.9,72.331,72.331,0,0,1-1,8C307.8,298.6,307.1,302.1,306.9,302.1Z" fill="#fafafa"/><path d="M296.4,299.9c-.1.1-1.8-2.3-4.2-5.1s-4.5-4.8-4.4-4.9a34.3,34.3,0,0,1,8.6,10Z" fill="#fafafa"/><path d="M305.4,274.1a10.475,10.475,0,0,1-1.1,1.8c-.8,1.1-1.9,2.5-3.2,4s-2.5,2.8-3.5,3.8c-.9.9-1.5,1.5-1.6,1.4s2.1-2.5,4.7-5.5S305.3,274,305.4,274.1Z" fill="#fafafa"/><path d="M301.9,261.5c-.1.1-.7-1.2-1.8-2.5s-2.3-2-2.2-2.2a6.26,6.26,0,0,1,4,4.7Z" fill="#fafafa"/><path d="M292.8,269.3a10.186,10.186,0,0,1-2.6.7,10.728,10.728,0,0,1-2.7.2,10.186,10.186,0,0,1,2.6-.7A7.045,7.045,0,0,1,292.8,269.3Z" fill="#fafafa"/><path d="M315.8,280.4c-.2,0,.2-2.1-.3-4.7-.5-2.5-1.8-4.3-1.6-4.4a7.45,7.45,0,0,1,2.1,4.3A7.889,7.889,0,0,1,315.8,280.4Z" fill="#fafafa"/><path d="M328.1,293.6a51.611,51.611,0,0,0-3.2-4.1,42.242,42.242,0,0,0-4-3.2,11.352,11.352,0,0,1,4.4,2.9A10.4,10.4,0,0,1,328.1,293.6Z" fill="#fafafa"/><path d="M308.4,316.6a9.613,9.613,0,0,1-4.6.8,10.5,10.5,0,0,1-4.6-1.1c0-.2,2,.5,4.6.6C306.3,316.9,308.3,316.4,308.4,316.6Z" fill="#fafafa"/><path d="M317.6,321.3c-.1-.1.6-2.4,1.3-5.3s.9-5.3,1.1-5.3a17.362,17.362,0,0,1-.6,5.4C318.8,319.1,317.8,321.4,317.6,321.3Z" fill="#fafafa"/><path d="M337.9,322.1a38.067,38.067,0,0,1-4.4-4.4,35.46,35.46,0,0,1-4-4.8,38.07,38.07,0,0,1,4.4,4.4A44.341,44.341,0,0,1,337.9,322.1Z" fill="#fafafa"/><path d="M347.3,345.5a16.754,16.754,0,0,1-3.3-3,20.8,20.8,0,0,1-2.9-3.4,16.754,16.754,0,0,1,3.3,3A20.8,20.8,0,0,1,347.3,345.5Z" fill="#fafafa"/><path d="M329.8,347.7a15.088,15.088,0,0,1-4,3,16.635,16.635,0,0,1-4.6,2c-.1-.1,2-1,4.4-2.4C327.9,348.9,329.7,347.6,329.8,347.7Z" fill="#fafafa"/><path d="M337.8,369.9c-.2,0,.4-2.7.7-6s.2-6,.4-6a19.734,19.734,0,0,1,.2,6C338.8,367.4,338,370,337.8,369.9Z" fill="#fafafa"/><path d="M368.1,351.8a22.273,22.273,0,0,1-7.5-8.6c.1-.1,1.5,2.1,3.6,4.5S368.2,351.7,368.1,351.8Z" fill="#fafafa"/><path d="M379.2,361.3c-.1-.1,1.4-2.2,3.1-4.8a51.122,51.122,0,0,1,3.1-4.8,21.594,21.594,0,0,1-2.6,5.1A25.669,25.669,0,0,1,379.2,361.3Z" fill="#fafafa"/><path d="M377.6,338.2a39.127,39.127,0,0,1-5.1-1.1,22.02,22.02,0,0,1-4.9-1.6,39.127,39.127,0,0,1,5.1,1.1A27.841,27.841,0,0,1,377.6,338.2Z" fill="#fafafa"/><path d="M369.5,378.8a30.531,30.531,0,0,1,0-4.7,35.258,35.258,0,0,1,.5-4.7,30.531,30.531,0,0,1,0,4.7C369.9,376.7,369.7,378.8,369.5,378.8Z" fill="#fafafa"/><path d="M376.5,392.7a34.3,34.3,0,0,0,1.3-4.9c.4-2.8-.1-5.1.1-5.1a10.648,10.648,0,0,1,.4,5.2A9.487,9.487,0,0,1,376.5,392.7Z" fill="#fafafa"/><path d="M358.4,389.7a13.8,13.8,0,0,1,.1-5.2,11.4,11.4,0,0,1,1.8-4.8c.1.1-.8,2.2-1.3,4.9S358.6,389.7,358.4,389.7Z" fill="#fafafa"/><path d="M341.9,396.7c-.1.1-2.1-1.6-4.7-3.6a45.3,45.3,0,0,1-4.6-3.7,26.7,26.7,0,0,1,5,3.3A25.327,25.327,0,0,1,341.9,396.7Z" fill="#fafafa"/><path d="M353.1,377.1a41.282,41.282,0,0,1-5.9,3.4c-3.3,1.8-6,3.1-6.1,2.9A41.282,41.282,0,0,1,347,380,50.483,50.483,0,0,1,353.1,377.1Z" fill="#fafafa"/><path d="M387.8,421.1a3.224,3.224,0,0,1-.6.2c-.4.1-1.1.2-1.9.3a40.337,40.337,0,0,1-7,.5,41.284,41.284,0,0,1-10.3-1.5,42.506,42.506,0,0,1-11.7-5.1,43.709,43.709,0,0,1-15.6-17A39.589,39.589,0,0,1,338,392a13.181,13.181,0,0,1-.5-1.8c-.1-.4-.2-.6-.1-.7a3.224,3.224,0,0,1,.2.6,18.4,18.4,0,0,0,.6,1.8,37.751,37.751,0,0,0,2.8,6.4,43.756,43.756,0,0,0,5.9,8.5,45.984,45.984,0,0,0,9.6,8.2,41.566,41.566,0,0,0,11.6,5,47.277,47.277,0,0,0,10.2,1.6,45.242,45.242,0,0,0,7-.3c.8-.1,1.5-.2,1.9-.3A2.8,2.8,0,0,0,387.8,421.1Z" fill="#263238"/><path d="M357.9,415.9a9.323,9.323,0,0,1,3.3-8.6,20.329,20.329,0,0,0-2.3,4.1C358,413.8,358.1,415.9,357.9,415.9Z" fill="#fafafa"/><path d="M349.7,412.5a20.048,20.048,0,0,0-2.6,2.5,13.387,13.387,0,0,0-1.6,3.2,5.076,5.076,0,0,1,1.2-3.5A4.83,4.83,0,0,1,349.7,412.5Z" fill="#fafafa"/><path d="M381.3,431.3a9.282,9.282,0,0,1-4.6-1.5,8.381,8.381,0,0,1-3.4-3.5,28.381,28.381,0,0,0,3.7,3A20.632,20.632,0,0,0,381.3,431.3Z" fill="#fafafa"/><path d="M386.3,403.6a7.089,7.089,0,0,1-1.8,4,6.8,6.8,0,0,1-3.6,2.4,16.545,16.545,0,0,0,3.2-2.8C385.6,405.5,386.1,403.6,386.3,403.6Z" fill="#fafafa"/><path d="M400.2,424.3c-.1-.1,1.2-1.8,2.4-4.1s1.9-4.3,2-4.3a11.629,11.629,0,0,1-1.6,4.5A10.084,10.084,0,0,1,400.2,424.3Z" fill="#fafafa"/><path d="M418.7,427c.1.1-1.8.9-3.6,2.4s-2.9,3.1-3.1,3a7.737,7.737,0,0,1,2.7-3.4A8.871,8.871,0,0,1,418.7,427Z" fill="#fafafa"/><path d="M404.6,403.3c-.2,0-1-2.9-2.9-6.1-1.8-3.3-3.9-5.5-3.7-5.6a14.667,14.667,0,0,1,1.4,1.4,26.625,26.625,0,0,1,2.8,4,31.08,31.08,0,0,1,2,4.4C404.6,402.6,404.7,403.3,404.6,403.3Z" fill="#fafafa"/><path d="M407.4,373.6a40.031,40.031,0,0,1-4.7,1.4,31.7,31.7,0,0,1-4.9.9,40.031,40.031,0,0,1,4.7-1.4C405.2,373.8,407.4,373.4,407.4,373.6Z" fill="#fafafa"/><path d="M398.9,364.7a22.526,22.526,0,0,1-3.1-3.5,21.247,21.247,0,0,1-2.7-3.8,22.526,22.526,0,0,1,3.1,3.5A21.242,21.242,0,0,1,398.9,364.7Z" fill="#fafafa"/><path d="M420,359.3a23.114,23.114,0,0,1-9.4-2.2c.1-.1,2.1.5,4.7,1.1S420,359.2,420,359.3Z" fill="#fafafa"/><path d="M434.9,359.1c-.1-.1.7-1.9,1.5-4.2s1.4-4.2,1.5-4.2a15.213,15.213,0,0,1-1,4.3C436.1,357.4,435.1,359.1,434.9,359.1Z" fill="#fafafa"/><path d="M431.6,379.4a12.915,12.915,0,0,1-4.4-1.7,9.993,9.993,0,0,1-3.6-3c.1-.1,1.7,1.3,3.9,2.6C429.7,378.5,431.6,379.2,431.6,379.4Z" fill="#fafafa"/><path d="M441.3,378.8a49.933,49.933,0,0,1,1.1-5.9,33.418,33.418,0,0,1,1.6-5.8,49.933,49.933,0,0,1-1.1,5.9C442.2,376.2,441.5,378.8,441.3,378.8Z" fill="#fafafa"/><path d="M433.2,401.5a30.416,30.416,0,0,1-3.5-4.4,33.409,33.409,0,0,1-3.1-4.7,30.416,30.416,0,0,1,3.5,4.4A33.412,33.412,0,0,1,433.2,401.5Z" fill="#fafafa"/><path d="M447.1,392.8c-.1.1-1.1-1.7-2.5-3.8-1.4-2-2.8-3.5-2.7-3.6a10.29,10.29,0,0,1,3.1,3.3A11.636,11.636,0,0,1,447.1,392.8Z" fill="#fafafa"/><path d="M460.1,390.8c-.1.1-1.4-1.9-3.2-4.2a43.388,43.388,0,0,1-3.2-4.2,17.394,17.394,0,0,1,3.6,3.9A22.189,22.189,0,0,1,460.1,390.8Z" fill="#fafafa"/><path d="M457,399.5c-.2,0-.1-1.7-1.2-3.4a8.039,8.039,0,0,0-2.7-2.4c0-.1.5,0,1.1.3a5.429,5.429,0,0,1,2,1.8,5.071,5.071,0,0,1,.9,2.6C457.2,399,457.1,399.5,457,399.5Z" fill="#fafafa"/><path d="M446.9,411.3c-.1,0-.1-.3-.1-.6a2.268,2.268,0,0,0-.7-1.1,2.2,2.2,0,0,0-1.3-.4c-.4,0-.6.1-.6,0s.1-.3.6-.4a2.226,2.226,0,0,1,1.7.3,1.762,1.762,0,0,1,.7,1.5A1.428,1.428,0,0,1,446.9,411.3Z" fill="#fafafa"/><path d="M342.8,430.2a13.5,13.5,0,0,1-5-3.2c-2.4-2.4-3.4-5-3.2-5a24.127,24.127,0,0,0,8.2,8.2Z" fill="#fafafa"/><path d="M279.2,182c-1.6-15.2-4.5-29.5-5.3-44.4a2.7,2.7,0,0,0-.7-2.1,1.9,1.9,0,0,0-2.6.8,6.146,6.146,0,0,0-.5,3,68.783,68.783,0,0,1-4,23.3c-1.7,4.8-4,9.5-5.3,14.5s1.1,6.7,3.4,11.3" fill="#ffbe9d"/><path d="M228.1,121.8c-.1.1-5.7-4.5-12.6-10.2-6.8-5.8-12.3-10.5-12.2-10.6s5.7,4.5,12.6,10.2C222.7,116.9,228.2,121.7,228.1,121.8Z" fill="#263238"/><path d="M256.6,114.9c-.1,0-.7-8.9-1.3-19.9s-.9-19.9-.7-19.9c.1,0,.7,8.9,1.3,19.9S256.8,114.9,256.6,114.9Z" fill="#263238"/><path d="M238.5,108.6c-.1,0-1.9-5-3.9-11.3s-3.6-11.4-3.4-11.5c.1,0,1.9,5,3.9,11.3S238.6,108.5,238.5,108.6Z" fill="#263238"/><path d="M222.3,131.1a61.748,61.748,0,0,1-7.7-3.3,66.893,66.893,0,0,1-7.5-3.7,61.749,61.749,0,0,1,7.7,3.3A66.892,66.892,0,0,1,222.3,131.1Z" fill="#263238"/><path d="M196,119.7a3.337,3.337,0,0,1-1.9,0c-1-.1-1.8-.3-1.8-.5a3.337,3.337,0,0,1,1.9,0C195.2,119.3,196,119.5,196,119.7Z" fill="#263238"/><path d="M231.8,79.3a3.617,3.617,0,0,1-.3-1.8c0-1,.1-1.8.3-1.8a3.617,3.617,0,0,1,.3,1.8A5.686,5.686,0,0,1,231.8,79.3Z" fill="#263238"/><path d="M292,93.4c.1.1-4.5,5.4-10.3,11.8s-10.6,11.6-10.7,11.5,4.5-5.4,10.3-11.8S291.9,93.3,292,93.4Z" fill="#263238"/><path d="M299.3,86.1c.1.1-.4.8-1.2,1.6s-1.5,1.3-1.6,1.2.4-.8,1.2-1.6C298.6,86.6,299.2,86,299.3,86.1Z" fill="#263238"/><path d="M317.2,111.7s-.5.3-1.4.8-2.2,1.2-3.8,2c-3.2,1.6-7.8,3.8-12.9,5.9s-9.9,3.8-13.3,5c-1.7.6-3.1,1-4.1,1.3s-1.5.4-1.5.4l1.5-.6c1-.4,2.4-.9,4-1.4,3.4-1.2,8.1-3,13.2-5.1s9.7-4.2,13-5.8c1.6-.7,2.9-1.4,3.9-1.8A7.306,7.306,0,0,1,317.2,111.7Z" fill="#263238"/><path d="M302.5,136.4a13.534,13.534,0,0,1-2.7.9,52.886,52.886,0,0,1-6.6,1.4c-2.6.4-5,.7-6.7.8s-2.8.1-2.8.1a15.077,15.077,0,0,1,2.8-.4c1.7-.2,4.1-.5,6.6-1,2.6-.4,4.9-.9,6.6-1.3A11.706,11.706,0,0,1,302.5,136.4Z" fill="#263238"/><path d="M315.8,133.9a9.022,9.022,0,0,1-2.9.3c-1.6,0-2.9-.1-2.9-.3a14.166,14.166,0,0,1,5.8,0Z" fill="#263238"/><path d="M264.2,188.3a14.032,14.032,0,0,1-5.3-13.2c.5-3,2-5.7,3.2-8.5s2.1-5.9,1.4-8.9a12.972,12.972,0,0,1-.8-3.4c0-1.2.7-2.5,1.9-2.5a3.021,3.021,0,0,1,2.2,1.3c1.9,2.4,3.5,9.5,2.5,14.7" fill="#ffbe9d"/><path d="M269.3,167.8a19.473,19.473,0,0,1,.2-2.3,29.567,29.567,0,0,0-.5-6.1,23.437,23.437,0,0,0-1.2-4.1,7.814,7.814,0,0,0-1.1-2,3.144,3.144,0,0,0-1.9-1.3c-.8-.1-1.4.6-1.7,1.4a3.943,3.943,0,0,0,.2,2.6,12.76,12.76,0,0,1,.7,2.8,10.072,10.072,0,0,1-.1,3c-.7,4.1-2.9,7.3-4,10.6a13.473,13.473,0,0,0-.9,4.7,13.933,13.933,0,0,0,3.6,9.5c1,1.1,1.6,1.5,1.6,1.6a5.2,5.2,0,0,1-.5-.3,9.478,9.478,0,0,1-1.3-1.1,13.407,13.407,0,0,1-3.2-5.3,14.342,14.342,0,0,1-.7-4.3,14.555,14.555,0,0,1,.9-4.9c1.1-3.3,3.2-6.6,3.9-10.5a9.417,9.417,0,0,0,.1-2.9,13.428,13.428,0,0,0-.7-2.7,4.123,4.123,0,0,1-.1-2.9,2.55,2.55,0,0,1,.8-1.2,2.389,2.389,0,0,1,1.4-.5,3.185,3.185,0,0,1,2.2,1.5,9.41,9.41,0,0,1,1.2,2.2,27.221,27.221,0,0,1,1.2,4.2,24.225,24.225,0,0,1,.4,6.2c-.1.7-.1,1.3-.2,1.7C269.3,167.6,269.3,167.8,269.3,167.8Z" fill="#eb996e"/><path d="M400,249.1a6.817,6.817,0,0,0,6.2,5.3,8.681,8.681,0,0,0,7.5-3.7,11.858,11.858,0,0,0,1.9-8.4c-.6-4.2-3.4-8.3-7.4-9.5-4.1-1.3-9.1,1-10.2,5.1l-4.7,6.5Z" fill="#263238"/><path d="M394.5,236.2A27.256,27.256,0,0,0,370,205.7c-14.5-1.4-27.4,9.4-29.6,23.8-1.9,12.6-3.5,25.4-3.5,30,.2,14,8.4,19.4,11.7,21a15.4,15.4,0,0,0,3.7.9h0a.1.1,0,0,1,.1.1l-3.1,16c-1.4,10.5,4.5,19.9,15,21.4s18.8-6.5,20.4-17.1Z" fill="#ffbe9d"/><path d="M342.8,237.7c.2.3,2.1-.7,4.4-.3,2.4.3,3.9,1.8,4.2,1.5.1-.1-.1-.7-.7-1.3a6.037,6.037,0,0,0-3.3-1.6,6.324,6.324,0,0,0-3.6.6C343,237.1,342.7,237.6,342.8,237.7Z" fill="#263238"/><path d="M363.9,242.3c.2.3,2.1-.7,4.4-.3,2.4.3,3.9,1.8,4.2,1.5.1-.1-.1-.7-.7-1.3a6.037,6.037,0,0,0-3.3-1.6,6.324,6.324,0,0,0-3.6.6C364.1,241.7,363.7,242.2,363.9,242.3Z" fill="#263238"/><path d="M355.7,253.5a20.807,20.807,0,0,0-3.7-1.3c-.6-.2-1.1-.4-1.2-.8-.1-.5.3-1.1.7-1.7.8-1.4,1.6-2.8,2.5-4.3,3.4-6.2,6-11.3,5.8-11.4-.3-.1-3.2,4.8-6.7,11-.8,1.5-1.6,3-2.4,4.4a4.451,4.451,0,0,0-.7,2.3,1.319,1.319,0,0,0,.9,1,5.389,5.389,0,0,0,1,.3A18.985,18.985,0,0,0,355.7,253.5Z" fill="#263238"/><path d="M352.4,281.6s9,2.1,21.4-3.1c0,0-5.4,11.5-22.3,7.4Z" fill="#eb996e"/><path d="M355.8,259.3a4.29,4.29,0,0,1,4.1-1,4.206,4.206,0,0,1,2.5,1.8,2.394,2.394,0,0,1-.2,2.8,2.848,2.848,0,0,1-3.2.3,11.825,11.825,0,0,1-2.8-2.2,2.407,2.407,0,0,1-.6-.8.94.94,0,0,1,.1-.9" fill="#eb996e"/><path d="M362.4,256.1c-.4-.1-.8,2.5-3.2,4-2.5,1.5-5.2.8-5.2,1.2-.1.2.5.6,1.7.8a6.451,6.451,0,0,0,4.3-.8,5.256,5.256,0,0,0,2.5-3.4C362.8,256.8,362.6,256.1,362.4,256.1Z" fill="#263238"/><path d="M365.5,234.6c.1.7,2.5.7,5.3,1.5,2.7.7,4.9,1.8,5.3,1.3.2-.3-.1-.9-.9-1.7a8.528,8.528,0,0,0-3.8-2,9.019,9.019,0,0,0-4.3-.1C366,233.9,365.4,234.3,365.5,234.6Z" fill="#263238"/><path d="M345.2,230.4c.3.6,2,.3,4,.5s3.6.9,4,.4c.2-.2,0-.8-.6-1.4a5.97,5.97,0,0,0-3.1-1.4,5.785,5.785,0,0,0-3.4.6C345.4,229.6,345.1,230.2,345.2,230.4Z" fill="#263238"/><path d="M337.7,226.4c2.9,4.4,12.1,1.7,17.6-1.3a13.167,13.167,0,0,0,18-3.7c3.2,4,9.6,2.7,12-1.8,2.3-4.6,1-10.8-2.2-14.8s-7.9-6-12.6-6.9c-11-2-23.1,2.2-29.7,12.2-3.1,4.6-4.9,10.8-3.1,16.3" fill="#263238"/><path d="M368.2,199.4c0,.2-2.6-.3-6.7.4a24.7,24.7,0,0,0-13.9,7.5,30.7,30.7,0,0,0-6.7,14.5,28.5,28.5,0,0,0-.3,6.7c-.1,0-.2-.6-.4-1.8a21.5,21.5,0,0,1,.1-5,28.665,28.665,0,0,1,6.6-15,23.77,23.77,0,0,1,14.5-7.5,21.5,21.5,0,0,1,5-.1A8.547,8.547,0,0,1,368.2,199.4Z" fill="#455a64"/><path d="M353.3,220c-.1,0-.2-.5-.2-1.6a14.439,14.439,0,0,1,.4-4.3,18.849,18.849,0,0,1,8.3-11.4,18.026,18.026,0,0,1,14-1.7,17.59,17.59,0,0,1,4,1.7c.9.5,1.3.9,1.3,1-.1.2-1.9-1.2-5.4-2a19.045,19.045,0,0,0-13.4,1.9,18.339,18.339,0,0,0-8.1,10.8C353.1,217.7,353.5,220,353.3,220Z" fill="#455a64"/><path d="M379.8,215.2c-.9,3.9-1.9,7.9-1.9,12,0,4,1,8.2,3.6,11.3,3.9,4.7,10.3,6.1,16.2,7.2a46.457,46.457,0,0,0,2.8-25c-.7-4.1-2-8.3-4.9-11.2a13.607,13.607,0,0,0-16.5-2" fill="#263238"/><path d="M383.1,234.6c-1.6,3.4-1.4,7.3-.9,11s1.5,7.3,1.4,11.1c0,3.7-1.2,7.7-4.1,10a24.34,24.34,0,0,0-2.5,2,2.465,2.465,0,0,0-.5,2.9c.6.9,2.2.9,2.5-.1l-.2.3a1.658,1.658,0,0,0,1.4,2.5,7.329,7.329,0,0,0,5.3-2.6c1.9-2.2,2.7-5.2,3.2-8.1,1.5-8.8,1.2-18,3.7-26.6" fill="#263238"/><path d="M349.2,292.5A21.614,21.614,0,0,0,378,307.8c5.2-2,9.4-5.9,13.4-9.7a31.4,31.4,0,0,1-29.1,36.5c-6.6.4-13.7-1.6-17.9-6.8a20.1,20.1,0,0,1-4-13,45.5,45.5,0,0,1,2.6-13.6c1.2-3.8,3.1-8,6.9-9.1" fill="#e8505b"/><path d="M396.6,246c4,2.2,6.1,6.6,6.9,11.1.8,4.4.4,9,.6,13.5s1.1,9.2,3.9,12.7c3,3.7,7.8,5.5,12,7.7,9.3,5,17,13.5,19.8,23.7s.3,22-7.4,29.3c-7,6.7-17.1,9-26.7,9-6.9,0-14.4-1.5-18.7-6.9-4.2-5.3-4-12.9-2.5-19.5s4.2-13.1,4.4-19.8a33.535,33.535,0,0,1-5.3,11.7c-.7,1-1.9,2.1-3,1.5-1.2-.6-.7-2.5-.2-3.7,8.3-18.4,5.4-55.6,10.3-75.9" fill="#263238"/><path d="M389.8,243.9c.2-.1,9.9-1.9,8.7,7.6-1.2,9.6-10.6,6.3-10.6,6.1S389.8,243.9,389.8,243.9Z" fill="#ffbe9d"/><path d="M391.3,254.4a1.726,1.726,0,0,1,.4.3,1.551,1.551,0,0,0,1.2.2c1.1-.2,2.1-1.7,2.4-3.4a4.722,4.722,0,0,0-.2-2.4c-.2-.7-.6-1.3-1.1-1.4a.8.8,0,0,0-1,.3c-.2.3-.1.4-.2.5a.634.634,0,0,1-.1-.6,1.333,1.333,0,0,1,.5-.6,1.147,1.147,0,0,1,1-.1,2.194,2.194,0,0,1,1.5,1.7,4.922,4.922,0,0,1,.2,2.7c-.3,1.9-1.5,3.6-3,3.8a1.721,1.721,0,0,1-1.5-.5A1.751,1.751,0,0,1,391.3,254.4Z" fill="#eb996e"/><path d="M339.3,313.2a24.5,24.5,0,0,1,1.6-3,41.786,41.786,0,0,0,3.5-7.3,17.9,17.9,0,0,0,.9-7.9c-.3-2-.9-3.2-.8-3.3a4.766,4.766,0,0,1,.4.8,14.6,14.6,0,0,1,.7,2.4,16.83,16.83,0,0,1-.7,8.1,30.9,30.9,0,0,1-3.6,7.3c-.6.9-1,1.6-1.4,2.1S339.3,313.2,339.3,313.2Z" fill="#263238"/><path d="M344.2,302.1a5.862,5.862,0,0,0-1.3-1.4,6.154,6.154,0,0,0-1.7-.7c0-.1.2-.2.6-.2a2.185,2.185,0,0,1,1.4.5,2.033,2.033,0,0,1,.9,1.2C344.3,301.9,344.2,302.1,344.2,302.1Z" fill="#fafafa"/><path d="M350.3,302.1a15.613,15.613,0,0,0-2.5-2.3,12.886,12.886,0,0,0-3.1-1.3,4.894,4.894,0,0,1,3.4.9C349.9,300.5,350.5,302.1,350.3,302.1Z" fill="#fafafa"/><path d="M354.2,322.4a17.383,17.383,0,0,1,.6-4.1c.5-2.2.9-4,1.1-4a17.383,17.383,0,0,1-.6,4.1C354.9,320.6,354.4,322.4,354.2,322.4Z" fill="#fafafa"/><path d="M369.8,325.5a19.975,19.975,0,0,1-.1-4.3,23.208,23.208,0,0,1,.4-4.3,19.975,19.975,0,0,1,.1,4.3C370.1,323.5,370,325.5,369.8,325.5Z" fill="#fafafa"/><path d="M51.3,369.9,35.9,437l32.6.1,15.1-59Z" fill="#b78876"/><path d="M211.5,287.4c-3.1-4.2-6.7-8.1-8.3-13.1-.8-2.4-1.1-4.9-1.9-7.3s-2.4-4.7-4.7-5.5c-2.3-.9-4.1,0-5.6,1.7l-11.2,32.7,6.5,25.1c6.4-1.5,14.5-3.2,20.5-5.9s10-7,10.4-13.6C217.4,296.4,214.6,291.6,211.5,287.4Z" fill="#263238"/><path d="M109.6,281.6s-38.9,16.9-43.8,24.6C61,313.8,45,368.3,45,368.3l41,12.1L85.3,437H185.8L185,337l-12.6-55.3s-22.2-1.4-24.2-2.4C146.1,278.4,109.6,281.6,109.6,281.6Z" fill="#e8505b"/><path d="M247.9,143c.3-2.3-1.3-4.8-.1-6.8.6-1.1,1.9-1.6,3.1-2.1a6.686,6.686,0,0,1,1.9-.5,1.676,1.676,0,0,1,1.6,1c.3.7-.2,1.5-.8,2.1a6.122,6.122,0,0,0-1.5,1.7c-.4,1,0,4,.4,4.9a77.966,77.966,0,0,1,3.3,10.7" fill="#b78876"/><path d="M239.6,143.8c.1-3.5,3-17.1,3.1-20.6,2.3.7,3.7,3.2,4.2,5.6s.2,4.9.6,7.3a25.915,25.915,0,0,0,4,9c1.7,2.8,3.5,5.7,4.2,8.9.8,3.2,3.7,11.5,1.4,13.9" fill="#b78876"/><path d="M239,167.2l-13.9,66.1c-.5,3-52.7,48.5-52.7,48.5L182.7,323l68.1-66.5a27.261,27.261,0,0,0,7.4-19.4l-1.2-62Z" fill="#b78876"/><path d="M236.6,144.2l2.4,23,18,7.9s.2-1.6,1-9.6c.9-8.8-8.6-12.6-12.8-19-1.8-2.8-1.3-7.9-2.7-14.2-.2-.7-1.2-5.1-1.7-7.5a4.85,4.85,0,0,0-2.2-3.2c-.8-.5-1.7-.8-2.4,0C235.5,122.3,236.6,144.2,236.6,144.2Z" fill="#b78876"/><path d="M247.9,171c2-1.7,2.5-4.8,1.7-7.4s-2.5-4.7-4.2-6.8a25.093,25.093,0,0,1-4.7-6.5c-.8-1.7-1.1-3.6-2-5.3a5.413,5.413,0,0,0-4.3-3.3c1.5,9.5,1.5,15,4.6,25.4" fill="#b78876"/><path d="M236.3,152.6a7.345,7.345,0,0,1-.2-.8c-.1-.6-.3-1.3-.5-2.2-.4-2-1-4.6-1.6-7.5l-.1-.3h.3a4.576,4.576,0,0,1,3.4,1.3,9.539,9.539,0,0,1,2.8,4.8,24.727,24.727,0,0,0,1.6,4.2,13.5,13.5,0,0,0,1.8,2.4l.6.9-.8-.8a8.644,8.644,0,0,1-1.9-2.4A18.343,18.343,0,0,1,240,148a9.529,9.529,0,0,0-2.7-4.6,4.026,4.026,0,0,0-3-1.1l.2-.3C235.7,148.1,236.5,152.6,236.3,152.6Z" fill="#7c5142"/><path d="M244.4,146.7c-.1,0-.9-4.2-1.7-9.4s-1.3-9.4-1.1-9.5c.1,0,.9,4.2,1.7,9.4C244,142.5,244.5,146.7,244.4,146.7Z" fill="#7c5142"/><path d="M250.1,147.5a.584.584,0,0,1,.1.4H250a62.024,62.024,0,0,1-1.8-6.5c-.4-1.9-.7-3.7-.9-5a6.638,6.638,0,0,1-.2-2.1c.1,0,.8,3.1,1.6,7,.7,3.1,1.3,5.7,1.5,6.6H250A1.577,1.577,0,0,0,250.1,147.5Z" fill="#7c5142"/><path d="M253.6,160.2c-.1,0-.4-.5-1.2-1.3a11.263,11.263,0,0,0-3.3-2.4,12.3,12.3,0,0,0-3.9-1.1,11.484,11.484,0,0,1-1.7-.1c0-.1.6-.3,1.7-.3a9.379,9.379,0,0,1,4.2,1,10.8,10.8,0,0,1,3.4,2.6C253.4,159.5,253.7,160.2,253.6,160.2Z" fill="#7c5142"/><path d="M240.6,169a16.251,16.251,0,0,1-1.2-2.7c-.6-1.7-1.4-4.1-2.1-6.9-.6-2.7-1.1-5.2-1.3-7s-.2-3-.2-3a20.942,20.942,0,0,1,.5,2.9c.3,1.8.8,4.3,1.4,7s1.4,5.1,1.9,6.9A12.668,12.668,0,0,1,240.6,169Z" fill="#7c5142"/><path d="M160.2,283a6.378,6.378,0,0,1,8.5-2c7.3-6,14.8-11.8,22.2-17.8-2.4,12-4,28.7,1.4,39.7,0,0,6.8,12.6,17.5,10.7l-9.6,9.5-15.2,14" fill="#e8505b"/><path d="M157.8,288.6a8.336,8.336,0,0,1,1.4-4.5c1.4-2.3,3.3-3.5,3.4-3.3a26.2,26.2,0,0,0-2.9,3.6A18.767,18.767,0,0,0,157.8,288.6Z" fill="#263238"/><path d="M165.7,296a7.432,7.432,0,0,1-.8-2.2,14.887,14.887,0,0,1-.2-5.7,14.621,14.621,0,0,1,2.1-5.3,9.444,9.444,0,0,1,1.5-1.8c.1.1-.5.7-1.2,2a16.258,16.258,0,0,0-1.9,5.2,14.407,14.407,0,0,0,0,5.5A13.127,13.127,0,0,1,165.7,296Z" fill="#263238"/><path d="M202.5,321.7a11.3,11.3,0,0,1-2.4,1,14,14,0,0,1-7-.2,16.762,16.762,0,0,1-8.4-6,27.567,27.567,0,0,1-5-11.7,86.869,86.869,0,0,1-1.2-23.1c.2-3,.6-5.3.8-7,.1-.8.3-1.5.3-1.9.1-.4.1-.7.2-.6a4.184,4.184,0,0,1-.1.7c-.1.5-.1,1.1-.2,1.9-.2,1.6-.5,4-.7,7a91.208,91.208,0,0,0,1.3,23,27.884,27.884,0,0,0,4.9,11.5,16.714,16.714,0,0,0,8.1,6,14.062,14.062,0,0,0,6.9.4A20.538,20.538,0,0,1,202.5,321.7Z" fill="#fafafa"/><path d="M86.2,397.2c-.1,0-.3-14.2-.3-31.7s.1-31.7.3-31.7c.1,0,.3,14.2.3,31.7S86.3,397.2,86.2,397.2Z" fill="#263238"/><path d="M85.4,322.7c-.1,0-.1-1.4-.6-3.6a26.944,26.944,0,0,0-1.2-3.8,18.588,18.588,0,0,0-2.5-4.2,22.688,22.688,0,0,0-3.4-3.5,23.547,23.547,0,0,0-3.3-2.2,34.108,34.108,0,0,0-3.4-1.5,3.5,3.5,0,0,1,1,.2,7.6,7.6,0,0,1,1.1.4,14.671,14.671,0,0,1,1.4.6,22.561,22.561,0,0,1,3.4,2.1,23.142,23.142,0,0,1,3.5,3.5,19.132,19.132,0,0,1,2.5,4.3,17.162,17.162,0,0,1,1.2,3.9,10.4,10.4,0,0,1,.2,1.5,5.284,5.284,0,0,1,.1,1.2C85.4,322.4,85.4,322.7,85.4,322.7Z" fill="#263238"/><path d="M153.9,281.2a7.344,7.344,0,0,1,.2.8q.15.9.3,2.4a27.706,27.706,0,0,1-1.2,9,26.056,26.056,0,0,1-7.2,11.2,25.561,25.561,0,0,1-15,6.3,25.129,25.129,0,0,1-15.8-4,26.2,26.2,0,0,1-11.4-18.7c-.1-1.1-.1-1.9-.1-2.5v-.9a6.173,6.173,0,0,0,.1.9c0,.6.1,1.4.2,2.4a27.816,27.816,0,0,0,2.7,8.5,26.626,26.626,0,0,0,8.8,9.8,25.573,25.573,0,0,0,30.2-2.3,25.86,25.86,0,0,0,7.2-11,27.511,27.511,0,0,0,1.4-8.8,12.528,12.528,0,0,0-.2-2.4A1.727,1.727,0,0,1,153.9,281.2Z" fill="#263238"/><path d="M85.3,367.9c0,.1-8.3-2.5-18.4-5.8-10.1-3.4-18.3-6.2-18.3-6.3s8.3,2.5,18.4,5.8C77.2,365,85.4,367.8,85.3,367.9Z" fill="#fafafa"/><path d="M184,354.1c0,.1-22.1.4-49.3.5s-49.3.1-49.3-.1c0-.1,22-.4,49.3-.5C161.9,353.9,184,353.9,184,354.1Z" fill="#fafafa"/><path d="M184.5,362.8c0,.1-22.2.3-49.5.3s-49.5-.1-49.5-.3,22.2-.3,49.5-.3S184.5,362.6,184.5,362.8Z" fill="#fafafa"/><path d="M170.9,373.3s-.1.3-.3.8c-.2.6-.5,1.3-.9,2.3-.2.5-.4,1-.7,1.6s-.6,1.2-.9,1.9c-.7,1.4-1.3,2.9-2.3,4.6-.5.8-.9,1.7-1.4,2.6s-1.1,1.8-1.7,2.8a61.584,61.584,0,0,1-4,5.9A116.5,116.5,0,0,1,148,408.2a114.81,114.81,0,0,1-12.6,10.5c-2.1,1.4-4.1,2.8-6,3.9-1,.6-1.9,1.1-2.8,1.6s-1.8.9-2.7,1.4c-1.7.9-3.3,1.6-4.6,2.2-.7.3-1.3.6-1.9.9-.6.2-1.2.4-1.7.6-1,.4-1.7.6-2.3.9-.5.2-.8.3-.8.3a4.56,4.56,0,0,0,.8-.4c.6-.2,1.3-.5,2.3-.9.5-.2,1-.4,1.6-.7s1.2-.6,1.9-.9c1.4-.7,2.9-1.3,4.6-2.3.8-.4,1.7-.9,2.6-1.4s1.8-1.1,2.8-1.6c1.9-1.1,3.9-2.5,6-3.9A104.279,104.279,0,0,0,147.7,408a115.9,115.9,0,0,0,10.7-12.3c1.4-2.1,2.9-4,4-5.9.6-.9,1.2-1.8,1.7-2.7s1-1.8,1.5-2.6c1-1.6,1.7-3.2,2.4-4.5.3-.7.7-1.3.9-1.9.3-.6.5-1.1.7-1.6.4-.9.7-1.7,1-2.2C170.8,373.6,170.9,373.3,170.9,373.3Z" fill="#263238"/><g opacity="0.3"><path d="M166.9,382c-6.7,8.2-13.8,14.1-23.6,17.9-4.7,1.8-9.7,3.1-14.3,5.2-4.6,2.2-8.9,5.4-10.9,10.1-1.6,3.6-.8,9,3,9.8a7.852,7.852,0,0,0,4.3-.7c19.5-7,32.4-24.9,41.5-42.3"/></g><path d="M96.9,204.1c-4.2,3.3-4.5,9.5-4.3,14.9s.3,11.5-3.6,15.2c-3.2,3.1-8.8,4.2-9.7,8.5a5.058,5.058,0,0,0,2.3,5.3,5.13,5.13,0,0,0,5.8-.4c-1.4,3.4-.7,7.7,2.1,10,2.9,2.2,7.9,1.2,9-2.3a4.425,4.425,0,1,0,8.6,2" fill="#263238"/><path d="M158.2,242.9a5.655,5.655,0,0,0,6.9,3.4,5.474,5.474,0,0,0,3.1-7c-.8-2.1-3-3.6-3.1-5.9-.1-2.7,2.7-4.5,5.2-5.5,2.5-1.1,5.4-2.4,5.8-5.1.4-2.6-1.8-4.7-3.7-6.5s-3.6-4.6-2.3-6.9c.7-1.2,2-1.8,2.9-2.8,1.9-2.2,1.2-6-1.1-7.9-2.2-1.9-5.5-2.3-8.4-2-2.9.4-5.7,1.5-8.6,2.2a35.924,35.924,0,0,1-28-5" fill="#263238"/><path d="M99.8,224.7l10.3,59.6a19.139,19.139,0,0,0,22.3,15.6h0a19.116,19.116,0,0,0,15.7-20.6c-.5-5.3-.9-9.7-.9-9.7s14.9-3.8,13.6-19c-.6-7.3-3.1-22.3-5.6-35.9a28.284,28.284,0,0,0-30.7-23.2l-1.5.1A28.4,28.4,0,0,0,99.8,224.7Z" fill="#b78876"/><path d="M152.1,224.6a2.194,2.194,0,0,1-1.9,2.4,2.016,2.016,0,0,1-2.4-1.7,2.194,2.194,0,0,1,1.9-2.4A2.016,2.016,0,0,1,152.1,224.6Z" fill="#263238"/><path d="M152.8,222.5c-.2.3-2-.7-4.3-.5s-3.9,1.6-4.2,1.3c-.1-.1.1-.7.8-1.3a5.926,5.926,0,0,1,3.3-1.4,5.866,5.866,0,0,1,3.5.8C152.6,221.9,152.9,222.4,152.8,222.5Z" fill="#263238"/><path d="M129.3,227.3a2.194,2.194,0,0,1-1.9,2.4A2.016,2.016,0,0,1,125,228a2.194,2.194,0,0,1,1.9-2.4A1.954,1.954,0,0,1,129.3,227.3Z" fill="#263238"/><path d="M129.9,225.2c-.2.3-2-.7-4.3-.5s-3.9,1.6-4.2,1.3c-.1-.1.1-.7.8-1.3a5.926,5.926,0,0,1,3.3-1.4,5.866,5.866,0,0,1,3.5.8C129.7,224.6,130,225.1,129.9,225.2Z" fill="#263238"/><path d="M140.1,241.7a22.38,22.38,0,0,1,3.7-1.1c.6-.1,1.1-.3,1.2-.7a2.7,2.7,0,0,0-.6-1.7l-2.2-4.4c-3.1-6.2-5.4-11.3-5.1-11.5.3-.1,2.9,4.8,6,11,.7,1.5,1.5,3,2.1,4.4a3.053,3.053,0,0,1,.5,2.3,1.5,1.5,0,0,1-.9,1,1.978,1.978,0,0,1-1,.2A18.474,18.474,0,0,1,140.1,241.7Z" fill="#263238"/><path d="M129.6,216c-.2.7-2.5.6-5.2,1.2-2.7.5-4.8,1.6-5.3,1-.2-.3.1-.9,1-1.6a9.1,9.1,0,0,1,8-1.7C129.1,215.3,129.7,215.7,129.6,216Z" fill="#263238"/><path d="M151.3,215.9c-.4.6-2,.2-4,.3-1.9.1-3.5.7-4,.2-.2-.3,0-.8.7-1.4a5.484,5.484,0,0,1,3.1-1.2,5.584,5.584,0,0,1,3.3.8C151.2,215.1,151.4,215.6,151.3,215.9Z" fill="#263238"/><path d="M114.6,206.5h0a12.35,12.35,0,0,0-3.8,8.2v.3c-.2,4.4.4,8.8.2,13.2s-1.3,8.9-4.2,12.2c-1.2,1.4-3.4,2.4-4.7,1.1a3.157,3.157,0,0,1-.7-1.9c-1.8-10.4-5.6-19.4-6.6-30.3a9.14,9.14,0,0,1,3.1-7.9c2.1-1.9,4.8-3.8,7.4-2.9,2.7,1,6.4,5.4,8.6,7.2" fill="#263238"/><path d="M105.6,231.1c-.3-.1-10.7-2.1-9.4,8.3,1.3,10.3,11.4,6.9,11.4,6.6C107.6,245.6,105.6,231.1,105.6,231.1Z" fill="#b78876"/><path d="M104,242.4a1.727,1.727,0,0,0-.4.3,1.813,1.813,0,0,1-1.3.2c-1.1-.3-2.3-1.9-2.6-3.7a5.538,5.538,0,0,1,.2-2.6,2.074,2.074,0,0,1,1.2-1.6.857.857,0,0,1,1.1.4c.2.3.1.5.2.5a.634.634,0,0,0,.1-.6,1.333,1.333,0,0,0-.5-.6,1.183,1.183,0,0,0-1-.1,2.778,2.778,0,0,0-1.7,1.8,7.317,7.317,0,0,0-.3,3c.3,2.1,1.7,3.9,3.2,4.1a1.823,1.823,0,0,0,1.6-.5A1.548,1.548,0,0,0,104,242.4Z" fill="#7c5142"/><path d="M105.1,200.1c-3-3.9,3.5-10.5,8.4-12.7,5-2.1,11.9-.3,17.2.9,3.3.8,6.7,1.9,10,1.5,2.3-.3,4.3-1.4,6.4-2.3a16.947,16.947,0,0,1,6.5-2,6.256,6.256,0,0,1,5.8,2.9c1.1,2,.1,5-2.1,5.5,2.7-1.9,7.1-.2,7.9,3a5.364,5.364,0,0,1-5.6,6.3c1.4-1.3,3.8.4,3.8,2.2,0,1.9-1.5,3.4-3.2,4.3-4.1,2.3-9.2,2.2-13.9,1.1-4.6-1.1-9-3-13.6-4.2s-12.3-3.4-16.6-1.4c-3.2,1.5-5.1,5.6-7,5a6.163,6.163,0,0,1-3.7-4.3,18.552,18.552,0,0,1-.3-5.8" fill="#263238"/><path d="M105.7,232.8a88.5,88.5,0,0,0,1.9,16.3,31.879,31.879,0,0,0,7.4,14.5c5,5.1,11.6,10,18.7,11.2,7.7,1.3,17.2-.3,23.5-5,3-2.2,5.2-7,4.2-10.6a8.117,8.117,0,0,0,4.5-6.6c.2-2.8-1.5-6.3-3.8-6.7,1.7-.3,2.1-2.9,1.5-4.4-.6-1.6-2.8-1.9-4.5-1.6a11.346,11.346,0,0,0-4.5,2.3,15.937,15.937,0,0,1-4.3,2.6c-5.4,1.7-10.8-3-16.4-2.8-5.1.2-9.6,4.4-14.7,3.7a10.22,10.22,0,0,1-6.8-4.7c-1.6-2.4-.9-11.2-1.5-14" fill="#263238"/><g opacity="0.6"><path d="M146.6,256.6c0,.1-.5-.2-1.2-.4a7.1,7.1,0,0,0-3-.2,6.588,6.588,0,0,0-2.8,1.2c-.6.5-1,.8-1,.8a3.7,3.7,0,0,1,.8-1.1,5.27,5.27,0,0,1,2.9-1.4,6.358,6.358,0,0,1,3.2.3A5.65,5.65,0,0,1,146.6,256.6Z" fill="#455a64"/></g><path d="M135.6,245.1c.4-.1.6,2.5,3,4.1,2.3,1.6,5,1,5.1,1.4.1.2-.6.5-1.7.7a6.994,6.994,0,0,1-4.2-1,5.758,5.758,0,0,1-2.3-3.4C135.2,245.8,135.4,245.1,135.6,245.1Z" fill="#fff"/><path d="M128.1,273.1a3.125,3.125,0,0,0,.7.2,10.783,10.783,0,0,0,1.9.6,28.717,28.717,0,0,0,7.2,1.1,28.356,28.356,0,0,0,5-.1,23.107,23.107,0,0,0,5.6-1.1,29.585,29.585,0,0,0,5.8-2.6,17.8,17.8,0,0,0,5-4.5,10.365,10.365,0,0,0,2-7.5V259l.2-.1a7.133,7.133,0,0,0,3.1-2.6,9.5,9.5,0,0,0,1-1.7,3.922,3.922,0,0,0,.4-1.8,7.445,7.445,0,0,0-2.4-6.1l-.1-.1.1-.1a4.159,4.159,0,0,0,.6-4.1,4.652,4.652,0,0,0-2.3-2.3,6.137,6.137,0,0,0-2.1-.3,4.184,4.184,0,0,1-.7.1,3.125,3.125,0,0,1,.7-.2,4.465,4.465,0,0,1,2.2.2,3.985,3.985,0,0,1,2.5,2.3,4.653,4.653,0,0,1-.6,4.5v-.3a7.475,7.475,0,0,1,2.6,6.4,7.336,7.336,0,0,1-.5,2,8.712,8.712,0,0,1-1.1,1.8,9.126,9.126,0,0,1-3.3,2.8l.1-.3a10.772,10.772,0,0,1-2,7.9,17.461,17.461,0,0,1-5.1,4.7,24,24,0,0,1-5.9,2.7,31.684,31.684,0,0,1-5.7,1.1,21.73,21.73,0,0,1-5.1,0,31.2,31.2,0,0,1-7.2-1.3c-.8-.3-1.5-.5-1.9-.7C128.3,273.3,128.1,273.2,128.1,273.1Z" fill="#455a64"/><path d="M82.8,246.8s-.2,0-.5-.3a2.355,2.355,0,0,1-1-1.3,4.68,4.68,0,0,1-.2-2.7,5.137,5.137,0,0,1,2-2.9,13.671,13.671,0,0,1,3.8-2,20.906,20.906,0,0,0,4.4-1.9,9,9,0,0,0,3.3-3.9,14.675,14.675,0,0,0,1.2-5.5c.1-3.9-.8-7.6-.9-11.1-.2-3.4.5-6.7,2.1-8.8a7.77,7.77,0,0,1,5-3.4,5.246,5.246,0,0,1,1.7-.1,2.8,2.8,0,0,0,.6.1,7.306,7.306,0,0,0-2.2.2,8.282,8.282,0,0,0-4.8,3.4c-1.5,2.1-2.1,5.2-1.9,8.6.1,3.4,1,7.1,1,11.1a15.279,15.279,0,0,1-1.2,5.7,9.4,9.4,0,0,1-3.5,4.1,24.157,24.157,0,0,1-4.5,1.9,12.891,12.891,0,0,0-3.7,1.9,4.847,4.847,0,0,0-1.9,2.7,5.034,5.034,0,0,0,.1,2.5A2.468,2.468,0,0,0,82.8,246.8Z" fill="#455a64"/><path d="M157.7,193.9a1.194,1.194,0,0,1,.5-.2,4.167,4.167,0,0,1,.6-.2c.2-.1.5-.1.8-.2a6.27,6.27,0,0,1,5.1,1.8h0a7.878,7.878,0,0,1,1.5,6.2,10.506,10.506,0,0,1-4.1,6.8,15.681,15.681,0,0,1-8.7,3,35.168,35.168,0,0,1-10.1-1.1,43.841,43.841,0,0,1-14.7-6.5,54.5,54.5,0,0,0-6-3.5,16.61,16.61,0,0,0-5.8-1.5,17.586,17.586,0,0,0-8.5,1.6,16.438,16.438,0,0,0-2.8,1.6,12.034,12.034,0,0,1,2.7-1.8,17.5,17.5,0,0,1,8.6-1.8,15.578,15.578,0,0,1,6,1.5,55.48,55.48,0,0,1,6.1,3.5,45.653,45.653,0,0,0,14.5,6.4,34.2,34.2,0,0,0,9.9,1.1,15.4,15.4,0,0,0,8.4-2.9,9.75,9.75,0,0,0,4-6.5,8.33,8.33,0,0,0-1.4-6h0a6.066,6.066,0,0,0-4.9-1.9A17.63,17.63,0,0,0,157.7,193.9Z" fill="#455a64"/><path d="M152.4,185.1a5.026,5.026,0,0,1-.5,2.3,9.7,9.7,0,0,1-4.3,4.7,13.044,13.044,0,0,1-4.2,1.5,14.55,14.55,0,0,1-5.1,0c-3.6-.4-7.3-1.8-11.1-3.1-3.9-1.2-7.8-1.9-11.2-1.2a14.757,14.757,0,0,0-7.9,4.6,16,16,0,0,0-3.2,5.4c-.5,1.4-.5,2.2-.6,2.2a2.8,2.8,0,0,1,.1-.6,7.925,7.925,0,0,1,.4-1.7,14.248,14.248,0,0,1,3.1-5.5,14.827,14.827,0,0,1,8.1-4.8c3.6-.8,7.6-.1,11.5,1.2,3.9,1.2,7.6,2.6,11.1,3.1a16.086,16.086,0,0,0,4.9,0,11.077,11.077,0,0,0,4.1-1.4,10.4,10.4,0,0,0,4.3-4.4A8.953,8.953,0,0,0,152.4,185.1Z" fill="#455a64"/><path d="M240.7,382a10.936,10.936,0,0,1,7,4.5,17.351,17.351,0,0,1,3,7.9c.9,5.4-.6,11.6-2.6,16.8-5.6-2.6-8.5-9.1-9.8-12.4-2-5.4-2.5-16.3,2.4-16.8" fill="#e8505b"/><path d="M256.3,418.9a8.984,8.984,0,0,1-.2-9.1,12.184,12.184,0,0,1,7.4-5.7,5.339,5.339,0,0,1,4.3.3,3.919,3.919,0,0,1,1.4,3.7,8.369,8.369,0,0,1-1.7,3.7c-3,3.7-6.5,6.8-11.2,7.1" fill="#e8505b"/><path d="M254.9,436.1s-.1-.4-.2-1.1a22.789,22.789,0,0,1-.2-3.1,43.9,43.9,0,0,1,.6-10.4,19.819,19.819,0,0,1,4.7-9.3,9.856,9.856,0,0,1,2.5-2c.6-.4,1-.6,1-.5.1.1-1.4.9-3.2,2.8a19.373,19.373,0,0,0-4.4,9.1,44.009,44.009,0,0,0-.8,10.3A23.12,23.12,0,0,1,254.9,436.1Z" fill="#263238"/><path d="M242,390.3a15.213,15.213,0,0,1,.7,1.8c.4,1.2,1,2.8,1.7,4.9,1.4,4.2,3.2,10,5,16.4,1.8,6.5,3.3,12.4,4.3,16.6.5,2.1.9,3.9,1.2,5.1s.4,1.9.3,1.9l-.6-1.8c-.3-1.3-.8-3-1.3-5-1.1-4.2-2.7-10.1-4.5-16.6s-3.5-12.3-4.8-16.5c-.6-2-1.1-3.7-1.5-5C242.1,391,241.9,390.3,242,390.3Z" fill="#263238"/><path d="M248.9,424a21.264,21.264,0,0,0-15.2-12.1c-1.7-.3-3.8-.3-4.7,1.2-.9,1.4-.1,3.4.9,4.7a18.057,18.057,0,0,0,19,6.6" fill="#e8505b"/><path d="M235.6,416.8a8.658,8.658,0,0,1,1.1.1,3.453,3.453,0,0,1,1.3.3,15.424,15.424,0,0,1,1.7.5,20.712,20.712,0,0,1,4.1,1.9,26.081,26.081,0,0,1,4.4,3.4,26.449,26.449,0,0,1,3.5,4.3,18.616,18.616,0,0,1,2,4c.3.6.4,1.2.6,1.6a3.452,3.452,0,0,1,.3,1.3c.1.7.2,1.1.1,1.1s-.4-1.5-1.4-3.8a24.629,24.629,0,0,0-5.5-8,30.259,30.259,0,0,0-4.2-3.3,29.1,29.1,0,0,0-3.9-2C237.2,417.2,235.6,416.9,235.6,416.8Z" fill="#263238"/></g></svg>